<svg aria-roledescription="er" role="graphics-document document" viewBox="0 0 1578.125 1152.949951171875" height="1152.949951171875" class="erDiagram" xmlns:xlink="http://www.w3.org/1999/xlink" xmlns="http://www.w3.org/2000/svg" width="1578.125" id="my-svg" style="background-color: white;"><style>#my-svg{font-family:trebuchet ms,verdana,arial,sans-serif;font-size:16px;fill:#333;}@keyframes edge-animation-frame{from{stroke-dashoffset:0;}}@keyframes dash{to{stroke-dashoffset:0;}}#my-svg .edge-animation-slow{stroke-dasharray:9,5!important;stroke-dashoffset:900;animation:dash 50s linear infinite;stroke-linecap:round;}#my-svg .edge-animation-fast{stroke-dasharray:9,5!important;stroke-dashoffset:900;animation:dash 20s linear infinite;stroke-linecap:round;}#my-svg .error-icon{fill:#552222;}#my-svg .error-text{fill:#552222;stroke:#552222;}#my-svg .edge-thickness-normal{stroke-width:1px;}#my-svg .edge-thickness-thick{stroke-width:3.5px;}#my-svg .edge-pattern-solid{stroke-dasharray:0;}#my-svg .edge-thickness-invisible{stroke-width:0;fill:none;}#my-svg .edge-pattern-dashed{stroke-dasharray:3;}#my-svg .edge-pattern-dotted{stroke-dasharray:2;}#my-svg .marker{fill:#333333;stroke:#333333;}#my-svg .marker.cross{stroke:#333333;}#my-svg svg{font-family:trebuchet ms,verdana,arial,sans-serif;font-size:16px;}#my-svg p{margin:0;}#my-svg .entityBox{fill:#ECECFF;stroke:#9370DB;}#my-svg .relationshipLabelBox{fill:hsl(80, 100%, 96.2745098039%);opacity:0.7;background-color:hsl(80, 100%, 96.2745098039%);}#my-svg .relationshipLabelBox rect{opacity:0.5;}#my-svg .labelBkg{background-color:rgba(248.6666666666, 255, 235.9999999999, 0.5);}#my-svg .edgeLabel .label{fill:#9370DB;font-size:14px;}#my-svg .label{font-family:trebuchet ms,verdana,arial,sans-serif;color:#333;}#my-svg .edge-pattern-dashed{stroke-dasharray:8,8;}#my-svg .node rect,#my-svg .node circle,#my-svg .node ellipse,#my-svg .node polygon{fill:#ECECFF;stroke:#9370DB;stroke-width:1px;}#my-svg .relationshipLine{stroke:#333333;stroke-width:1;fill:none;}#my-svg .marker{fill:none!important;stroke:#333333!important;stroke-width:1;}#my-svg :root{--mermaid-font-family:trebuchet ms,verdana,arial,sans-serif;}</style><g><defs><marker orient="auto" markerHeight="18" markerWidth="18" refY="9" refX="0" class="marker onlyOne er" id="my-svg_er-onlyOneStart"><path d="M9,0 L9,18 M15,0 L15,18"/></marker></defs><defs><marker orient="auto" markerHeight="18" markerWidth="18" refY="9" refX="18" class="marker onlyOne er" id="my-svg_er-onlyOneEnd"><path d="M3,0 L3,18 M9,0 L9,18"/></marker></defs><defs><marker orient="auto" markerHeight="18" markerWidth="30" refY="9" refX="0" class="marker zeroOrOne er" id="my-svg_er-zeroOrOneStart"><circle r="6" cy="9" cx="21" fill="white"/><path d="M9,0 L9,18"/></marker></defs><defs><marker orient="auto" markerHeight="18" markerWidth="30" refY="9" refX="30" class="marker zeroOrOne er" id="my-svg_er-zeroOrOneEnd"><circle r="6" cy="9" cx="9" fill="white"/><path d="M21,0 L21,18"/></marker></defs><defs><marker orient="auto" markerHeight="36" markerWidth="45" refY="18" refX="18" class="marker oneOrMore er" id="my-svg_er-oneOrMoreStart"><path d="M0,18 Q 18,0 36,18 Q 18,36 0,18 M42,9 L42,27"/></marker></defs><defs><marker orient="auto" markerHeight="36" markerWidth="45" refY="18" refX="27" class="marker oneOrMore er" id="my-svg_er-oneOrMoreEnd"><path d="M3,9 L3,27 M9,18 Q27,0 45,18 Q27,36 9,18"/></marker></defs><defs><marker orient="auto" markerHeight="36" markerWidth="57" refY="18" refX="18" class="marker zeroOrMore er" id="my-svg_er-zeroOrMoreStart"><circle r="6" cy="18" cx="48" fill="white"/><path d="M0,18 Q18,0 36,18 Q18,36 0,18"/></marker></defs><defs><marker orient="auto" markerHeight="36" markerWidth="57" refY="18" refX="39" class="marker zeroOrMore er" id="my-svg_er-zeroOrMoreEnd"><circle r="6" cy="18" cx="9" fill="white"/><path d="M21,18 Q39,0 57,18 Q39,36 21,18"/></marker></defs><g class="root"><g class="clusters"/><g class="edgePaths"><path marker-end="url(#my-svg_er-zeroOrMoreEnd)" marker-start="url(#my-svg_er-onlyOneStart)" style="" class="edge-thickness-normal edge-pattern-solid relationshipLine" id="id_entity-BETTER_TOGETHER_WEBHOOK_ENDPOINTS-0_entity-BETTER_TOGETHER_WEBHOOK_DELIVERIES-1_0" d="M742.539,640.6L742.539,650.567C742.539,660.533,742.539,680.467,742.539,700.4C742.539,720.333,742.539,740.267,742.539,750.233L742.539,760.2"/><path marker-end="url(#my-svg_er-zeroOrMoreEnd)" marker-start="url(#my-svg_er-onlyOneStart)" style="" class="edge-thickness-normal edge-pattern-solid relationshipLine" id="id_entity-EXTERNAL_IDENTITY_ACCESS__PERSON-2_entity-BETTER_TOGETHER_WEBHOOK_ENDPOINTS-0_1" d="M196.164,93.5L196.164,103.467C196.164,113.433,196.164,133.367,253.449,172.014C310.734,210.661,425.305,268.022,482.59,296.703L539.875,325.384"/><path marker-end="url(#my-svg_er-zeroOrMoreEnd)" marker-start="url(#my-svg_er-zeroOrOneStart)" style="" class="edge-thickness-normal edge-pattern-solid relationshipLine" id="id_entity-EXTERNAL_PLATFORM_NETWORK__COMMUNITY-3_entity-BETTER_TOGETHER_WEBHOOK_ENDPOINTS-0_2" d="M742.539,93.5L742.539,103.467C742.539,113.433,742.539,133.367,742.539,153.3C742.539,173.233,742.539,193.167,742.539,203.133L742.539,213.1"/><path marker-end="url(#my-svg_er-zeroOrMoreEnd)" marker-start="url(#my-svg_er-zeroOrOneStart)" style="" class="edge-thickness-normal edge-pattern-solid relationshipLine" id="id_entity-EXTERNAL_IDENTITY_ACCESS__OAUTHAPPLICATION-4_entity-BETTER_TOGETHER_WEBHOOK_ENDPOINTS-0_3" d="M1335.438,93.5L1335.438,103.467C1335.438,113.433,1335.438,133.367,1270.398,173.341C1205.359,213.315,1075.281,273.33,1010.242,303.338L945.203,333.345"/></g><g class="edgeLabels"><g transform="translate(742.5390625, 700.3999977111816)" class="edgeLabel"><g transform="translate(-80.34375, -19.799999237060547)" class="label"><g><rect height="39.599998474121094" width="160.6875" y="0" x="-3" style="" class="background"/><text style="" y="-10.1"><tspan dy="1.1em" y="-0.1em" x="0" class="text-outer-tspan"><tspan font-weight="normal" class="text-inner-tspan" font-style="normal">webhook_endpoint</tspan><tspan font-weight="normal" class="text-inner-tspan" font-style="normal"> /</tspan></tspan><tspan dy="1.1em" y="1em" x="0" class="text-outer-tspan"><tspan font-weight="normal" class="text-inner-tspan" font-style="normal">webhook_endpoint_id</tspan></tspan></text></g></g></g><g transform="translate(196.1640625, 153.29999923706055)" class="edgeLabel"><g transform="translate(-68.265625, -11)" class="label"><g><rect height="22" width="136.53125" y="0" x="-2" style="" class="background"/><text style="" y="-10.1"><tspan dy="1.1em" y="-0.1em" x="0" class="text-outer-tspan"><tspan font-weight="normal" class="text-inner-tspan" font-style="normal">person</tspan><tspan font-weight="normal" class="text-inner-tspan" font-style="normal"> /</tspan><tspan font-weight="normal" class="text-inner-tspan" font-style="normal"> person_id</tspan></tspan></text></g></g></g><g transform="translate(742.5390625, 153.29999923706055)" class="edgeLabel"><g transform="translate(-96.703125, -11)" class="label"><g><rect height="22" width="193.40625" y="0" x="-2" style="" class="background"/><text style="" y="-10.1"><tspan dy="1.1em" y="-0.1em" x="0" class="text-outer-tspan"><tspan font-weight="normal" class="text-inner-tspan" font-style="normal">community</tspan><tspan font-weight="normal" class="text-inner-tspan" font-style="normal"> /</tspan><tspan font-weight="normal" class="text-inner-tspan" font-style="normal"> community_id</tspan></tspan></text></g></g></g><g transform="translate(1335.4375, 153.29999923706055)" class="edgeLabel"><g transform="translate(-75.3984375, -19.799999237060547)" class="label"><g><rect height="39.599998474121094" width="150.796875" y="0" x="-2" style="" class="background"/><text style="" y="-10.1"><tspan dy="1.1em" y="-0.1em" x="0" class="text-outer-tspan"><tspan font-weight="normal" class="text-inner-tspan" font-style="normal">oauth_application</tspan><tspan font-weight="normal" class="text-inner-tspan" font-style="normal"> /</tspan></tspan><tspan dy="1.1em" y="1em" x="0" class="text-outer-tspan"><tspan font-weight="normal" class="text-inner-tspan" font-style="normal">oauth_application_id</tspan></tspan></text></g></g></g></g><g class="nodes"><g transform="translate(742.5390625, 426.8499984741211)" id="entity-BETTER_TOGETHER_WEBHOOK_ENDPOINTS-0" class="node default"><g style=""><path fill="#ECECFF" stroke-width="0" stroke="none" d="M-202.6640625 -213.75 L202.6640625 -213.75 L202.6640625 213.75 L-202.6640625 213.75"/><path stroke-dasharray="0 0" fill="none" stroke-width="1.3" stroke="#9370DB" d="M-202.6640625 -213.75 C-82.02185608080784 -213.75, 38.62035033838433 -213.75, 202.6640625 -213.75 M-202.6640625 -213.75 C-89.86438847086428 -213.75, 22.93528555827143 -213.75, 202.6640625 -213.75 M202.6640625 -213.75 C202.6640625 -110.7258861710683, 202.6640625 -7.701772342136593, 202.6640625 213.75 M202.6640625 -213.75 C202.6640625 -60.99064632715138, 202.6640625 91.76870734569724, 202.6640625 213.75 M202.6640625 213.75 C99.94177472227474 213.75, -2.7805130554505126 213.75, -202.6640625 213.75 M202.6640625 213.75 C98.09191023997136 213.75, -6.48024202005729 213.75, -202.6640625 213.75 M-202.6640625 213.75 C-202.6640625 71.78965954031031, -202.6640625 -70.17068091937938, -202.6640625 -213.75 M-202.6640625 213.75 C-202.6640625 60.24943085403103, -202.6640625 -93.25113829193793, -202.6640625 -213.75"/></g><g class="row-rect-odd" style=""><path fill="hsl(240, 100%, 100%)" stroke-width="0" stroke="none" d="M-202.6640625 -171 L202.6640625 -171 L202.6640625 -128.25 L-202.6640625 -128.25"/><path stroke-dasharray="0 0" fill="none" stroke-width="1.3" stroke="#9370DB" d="M-202.6640625 -171 C-62.165970693738416 -171, 78.33212111252317 -171, 202.6640625 -171 M-202.6640625 -171 C-47.58223865834711 -171, 107.49958518330578 -171, 202.6640625 -171 M202.6640625 -171 C202.6640625 -160.4763045510176, 202.6640625 -149.95260910203515, 202.6640625 -128.25 M202.6640625 -171 C202.6640625 -161.60768444371126, 202.6640625 -152.2153688874225, 202.6640625 -128.25 M202.6640625 -128.25 C80.40236987382156 -128.25, -41.85932275235689 -128.25, -202.6640625 -128.25 M202.6640625 -128.25 C101.67828199611928 -128.25, 0.6925014922385628 -128.25, -202.6640625 -128.25 M-202.6640625 -128.25 C-202.6640625 -145.21208665760312, -202.6640625 -162.17417331520625, -202.6640625 -171 M-202.6640625 -128.25 C-202.6640625 -138.76254809451694, -202.6640625 -149.27509618903386, -202.6640625 -171"/></g><g class="row-rect-even" style=""><path fill="hsl(240, 100%, 97.2745098039%)" stroke-width="0" stroke="none" d="M-202.6640625 -128.25 L202.6640625 -128.25 L202.6640625 -85.5 L-202.6640625 -85.5"/><path stroke-dasharray="0 0" fill="none" stroke-width="1.3" stroke="#9370DB" d="M-202.6640625 -128.25 C-50.57361674383853 -128.25, 101.51682901232294 -128.25, 202.6640625 -128.25 M-202.6640625 -128.25 C-69.10340013398638 -128.25, 64.45726223202723 -128.25, 202.6640625 -128.25 M202.6640625 -128.25 C202.6640625 -111.15520684123375, 202.6640625 -94.0604136824675, 202.6640625 -85.5 M202.6640625 -128.25 C202.6640625 -117.83511689110543, 202.6640625 -107.42023378221086, 202.6640625 -85.5 M202.6640625 -85.5 C57.76970715188756 -85.5, -87.12464819622488 -85.5, -202.6640625 -85.5 M202.6640625 -85.5 C66.90333242375937 -85.5, -68.85739765248127 -85.5, -202.6640625 -85.5 M-202.6640625 -85.5 C-202.6640625 -98.27581812168766, -202.6640625 -111.05163624337533, -202.6640625 -128.25 M-202.6640625 -85.5 C-202.6640625 -98.22455751558253, -202.6640625 -110.94911503116506, -202.6640625 -128.25"/></g><g class="row-rect-odd" style=""><path fill="hsl(240, 100%, 100%)" stroke-width="0" stroke="none" d="M-202.6640625 -85.5 L202.6640625 -85.5 L202.6640625 -42.75 L-202.6640625 -42.75"/><path stroke-dasharray="0 0" fill="none" stroke-width="1.3" stroke="#9370DB" d="M-202.6640625 -85.5 C-80.26945059614793 -85.5, 42.12516130770413 -85.5, 202.6640625 -85.5 M-202.6640625 -85.5 C-116.63382296475855 -85.5, -30.6035834295171 -85.5, 202.6640625 -85.5 M202.6640625 -85.5 C202.6640625 -71.30379327561165, 202.6640625 -57.10758655122331, 202.6640625 -42.75 M202.6640625 -85.5 C202.6640625 -75.65893087674054, 202.6640625 -65.8178617534811, 202.6640625 -42.75 M202.6640625 -42.75 C116.77452772581269 -42.75, 30.884992951625378 -42.75, -202.6640625 -42.75 M202.6640625 -42.75 C110.36101067906213 -42.75, 18.057958858124266 -42.75, -202.6640625 -42.75 M-202.6640625 -42.75 C-202.6640625 -54.34488634545045, -202.6640625 -65.9397726909009, -202.6640625 -85.5 M-202.6640625 -42.75 C-202.6640625 -56.26325115349165, -202.6640625 -69.7765023069833, -202.6640625 -85.5"/></g><g class="row-rect-even" style=""><path fill="hsl(240, 100%, 97.2745098039%)" stroke-width="0" stroke="none" d="M-202.6640625 -42.75 L202.6640625 -42.75 L202.6640625 0 L-202.6640625 0"/><path stroke-dasharray="0 0" fill="none" stroke-width="1.3" stroke="#9370DB" d="M-202.6640625 -42.75 C-52.14715101295923 -42.75, 98.36976047408154 -42.75, 202.6640625 -42.75 M-202.6640625 -42.75 C-77.3377764975941 -42.75, 47.98850950481179 -42.75, 202.6640625 -42.75 M202.6640625 -42.75 C202.6640625 -26.521242454303962, 202.6640625 -10.292484908607925, 202.6640625 0 M202.6640625 -42.75 C202.6640625 -29.736477165402192, 202.6640625 -16.722954330804388, 202.6640625 0 M202.6640625 0 C57.04232464566081 0, -88.57941320867837 0, -202.6640625 0 M202.6640625 0 C43.363319315204336 0, -115.93742386959133 0, -202.6640625 0 M-202.6640625 0 C-202.6640625 -11.78337019503083, -202.6640625 -23.56674039006166, -202.6640625 -42.75 M-202.6640625 0 C-202.6640625 -10.588638174937833, -202.6640625 -21.177276349875665, -202.6640625 -42.75"/></g><g class="row-rect-odd" style=""><path fill="hsl(240, 100%, 100%)" stroke-width="0" stroke="none" d="M-202.6640625 0 L202.6640625 0 L202.6640625 42.75 L-202.6640625 42.75"/><path stroke-dasharray="0 0" fill="none" stroke-width="1.3" stroke="#9370DB" d="M-202.6640625 0 C-48.667180626219476 0, 105.32970124756105 0, 202.6640625 0 M-202.6640625 0 C-85.58448021520542 0, 31.495102069589166 0, 202.6640625 0 M202.6640625 0 C202.6640625 15.957238351143817, 202.6640625 31.914476702287633, 202.6640625 42.75 M202.6640625 0 C202.6640625 16.685255096940306, 202.6640625 33.37051019388061, 202.6640625 42.75 M202.6640625 42.75 C68.32950409769927 42.75, -66.00505430460146 42.75, -202.6640625 42.75 M202.6640625 42.75 C51.57629667590413 42.75, -99.51146914819174 42.75, -202.6640625 42.75 M-202.6640625 42.75 C-202.6640625 33.1066458945345, -202.6640625 23.463291789069, -202.6640625 0 M-202.6640625 42.75 C-202.6640625 31.86234712135743, -202.6640625 20.97469424271486, -202.6640625 0"/></g><g class="row-rect-even" style=""><path fill="hsl(240, 100%, 97.2745098039%)" stroke-width="0" stroke="none" d="M-202.6640625 42.75 L202.6640625 42.75 L202.6640625 85.5 L-202.6640625 85.5"/><path stroke-dasharray="0 0" fill="none" stroke-width="1.3" stroke="#9370DB" d="M-202.6640625 42.75 C-108.1316169817511 42.75, -13.599171463502188 42.75, 202.6640625 42.75 M-202.6640625 42.75 C-69.68230510177344 42.75, 63.299452296453126 42.75, 202.6640625 42.75 M202.6640625 42.75 C202.6640625 55.821261983446995, 202.6640625 68.89252396689399, 202.6640625 85.5 M202.6640625 42.75 C202.6640625 55.277285339326326, 202.6640625 67.80457067865265, 202.6640625 85.5 M202.6640625 85.5 C77.1200195690058 85.5, -48.42402336198839 85.5, -202.6640625 85.5 M202.6640625 85.5 C68.55586069846794 85.5, -65.55234110306412 85.5, -202.6640625 85.5 M-202.6640625 85.5 C-202.6640625 71.64593468509571, -202.6640625 57.791869370191435, -202.6640625 42.75 M-202.6640625 85.5 C-202.6640625 69.88951411065854, -202.6640625 54.27902822131706, -202.6640625 42.75"/></g><g class="row-rect-odd" style=""><path fill="hsl(240, 100%, 100%)" stroke-width="0" stroke="none" d="M-202.6640625 85.5 L202.6640625 85.5 L202.6640625 128.25 L-202.6640625 128.25"/><path stroke-dasharray="0 0" fill="none" stroke-width="1.3" stroke="#9370DB" d="M-202.6640625 85.5 C-65.51617580552357 85.5, 71.63171088895285 85.5, 202.6640625 85.5 M-202.6640625 85.5 C-94.17057488334088 85.5, 14.322912733318248 85.5, 202.6640625 85.5 M202.6640625 85.5 C202.6640625 97.24262653132494, 202.6640625 108.98525306264987, 202.6640625 128.25 M202.6640625 85.5 C202.6640625 96.61232119857624, 202.6640625 107.7246423971525, 202.6640625 128.25 M202.6640625 128.25 C45.13762648818022 128.25, -112.38880952363957 128.25, -202.6640625 128.25 M202.6640625 128.25 C42.87564439718841 128.25, -116.91277370562318 128.25, -202.6640625 128.25 M-202.6640625 128.25 C-202.6640625 117.14371106825605, -202.6640625 106.0374221365121, -202.6640625 85.5 M-202.6640625 128.25 C-202.6640625 112.9438334829078, -202.6640625 97.63766696581561, -202.6640625 85.5"/></g><g class="row-rect-even" style=""><path fill="hsl(240, 100%, 97.2745098039%)" stroke-width="0" stroke="none" d="M-202.6640625 128.25 L202.6640625 128.25 L202.6640625 171 L-202.6640625 171"/><path stroke-dasharray="0 0" fill="none" stroke-width="1.3" stroke="#9370DB" d="M-202.6640625 128.25 C-52.396414176848566 128.25, 97.87123414630287 128.25, 202.6640625 128.25 M-202.6640625 128.25 C-106.43763691022194 128.25, -10.21121132044388 128.25, 202.6640625 128.25 M202.6640625 128.25 C202.6640625 142.63007753617512, 202.6640625 157.01015507235024, 202.6640625 171 M202.6640625 128.25 C202.6640625 142.96731310500047, 202.6640625 157.68462621000094, 202.6640625 171 M202.6640625 171 C45.02016153372173 171, -112.62373943255653 171, -202.6640625 171 M202.6640625 171 C57.345283141239776 171, -87.97349621752045 171, -202.6640625 171 M-202.6640625 171 C-202.6640625 156.12019530881082, -202.6640625 141.24039061762164, -202.6640625 128.25 M-202.6640625 171 C-202.6640625 161.23024948586013, -202.6640625 151.46049897172023, -202.6640625 128.25"/></g><g class="row-rect-odd" style=""><path fill="hsl(240, 100%, 100%)" stroke-width="0" stroke="none" d="M-202.6640625 171 L202.6640625 171 L202.6640625 213.75 L-202.6640625 213.75"/><path stroke-dasharray="0 0" fill="none" stroke-width="1.3" stroke="#9370DB" d="M-202.6640625 171 C-80.6146578376974 171, 41.43474682460521 171, 202.6640625 171 M-202.6640625 171 C-54.86395870841969 171, 92.93614508316062 171, 202.6640625 171 M202.6640625 171 C202.6640625 180.35739925979925, 202.6640625 189.7147985195985, 202.6640625 213.75 M202.6640625 171 C202.6640625 185.44267609426055, 202.6640625 199.8853521885211, 202.6640625 213.75 M202.6640625 213.75 C45.228829306182035 213.75, -112.20640388763593 213.75, -202.6640625 213.75 M202.6640625 213.75 C93.48651009269848 213.75, -15.691042314603038 213.75, -202.6640625 213.75 M-202.6640625 213.75 C-202.6640625 199.5421922481531, -202.6640625 185.33438449630623, -202.6640625 171 M-202.6640625 213.75 C-202.6640625 204.16389143036548, -202.6640625 194.57778286073096, -202.6640625 171"/></g><g style="" transform="translate(-177.6640625, -204.375)" class="label name"><foreignObject height="24" width="355.328125"><div style="display: table-cell; white-space: nowrap; line-height: 1.5; max-width: 455px; text-align: start;" xmlns="http://www.w3.org/1999/xhtml"><span class="nodeLabel"><p>BETTER_TOGETHER_WEBHOOK_ENDPOINTS</p></span></div></foreignObject></g><g style="" transform="translate(-190.1640625, -161.625)" class="label attribute-type"><foreignObject height="24" width="98.703125"><div style="display: table-cell; white-space: nowrap; line-height: 1.5; max-width: 199px; text-align: start;" xmlns="http://www.w3.org/1999/xhtml"><span class="nodeLabel"><p>community_id</p></span></div></foreignObject></g><g style="" transform="translate(57.421875, -161.625)" class="label attribute-name"><foreignObject height="24" width="30.25"><div style="display: table-cell; white-space: nowrap; line-height: 1.5; max-width: 130px; text-align: start;" xmlns="http://www.w3.org/1999/xhtml"><span class="nodeLabel"><p>uuid</p></span></div></foreignObject></g><g style="" transform="translate(215.1640625, -161.625)" class="label attribute-keys"><foreignObject height="0" width="0"><div style="display: table-cell; white-space: nowrap; line-height: 1.5; max-width: 100px; text-align: start;" xmlns="http://www.w3.org/1999/xhtml"><span class="nodeLabel"></span></div></foreignObject></g><g style="" transform="translate(215.1640625, -161.625)" class="label attribute-comment"><foreignObject height="0" width="0"><div style="display: table-cell; white-space: nowrap; line-height: 1.5; max-width: 100px; text-align: start;" xmlns="http://www.w3.org/1999/xhtml"><span class="nodeLabel"></span></div></foreignObject></g><g style="" transform="translate(-190.1640625, -118.875)" class="label attribute-type"><foreignObject height="24" width="146.796875"><div style="display: table-cell; white-space: nowrap; line-height: 1.5; max-width: 247px; text-align: start;" xmlns="http://www.w3.org/1999/xhtml"><span class="nodeLabel"><p>oauth_application_id</p></span></div></foreignObject></g><g style="" transform="translate(57.421875, -118.875)" class="label attribute-name"><foreignObject height="24" width="30.25"><div style="display: table-cell; white-space: nowrap; line-height: 1.5; max-width: 130px; text-align: start;" xmlns="http://www.w3.org/1999/xhtml"><span class="nodeLabel"><p>uuid</p></span></div></foreignObject></g><g style="" transform="translate(215.1640625, -118.875)" class="label attribute-keys"><foreignObject height="0" width="0"><div style="display: table-cell; white-space: nowrap; line-height: 1.5; max-width: 100px; text-align: start;" xmlns="http://www.w3.org/1999/xhtml"><span class="nodeLabel"></span></div></foreignObject></g><g style="" transform="translate(215.1640625, -118.875)" class="label attribute-comment"><foreignObject height="0" width="0"><div style="display: table-cell; white-space: nowrap; line-height: 1.5; max-width: 100px; text-align: start;" xmlns="http://www.w3.org/1999/xhtml"><span class="nodeLabel"></span></div></foreignObject></g><g style="" transform="translate(-190.1640625, -76.125)" class="label attribute-type"><foreignObject height="24" width="70.28125"><div style="display: table-cell; white-space: nowrap; line-height: 1.5; max-width: 170px; text-align: start;" xmlns="http://www.w3.org/1999/xhtml"><span class="nodeLabel"><p>person_id</p></span></div></foreignObject></g><g style="" transform="translate(57.421875, -76.125)" class="label attribute-name"><foreignObject height="24" width="30.25"><div style="display: table-cell; white-space: nowrap; line-height: 1.5; max-width: 130px; text-align: start;" xmlns="http://www.w3.org/1999/xhtml"><span class="nodeLabel"><p>uuid</p></span></div></foreignObject></g><g style="" transform="translate(215.1640625, -76.125)" class="label attribute-keys"><foreignObject height="0" width="0"><div style="display: table-cell; white-space: nowrap; line-height: 1.5; max-width: 100px; text-align: start;" xmlns="http://www.w3.org/1999/xhtml"><span class="nodeLabel"></span></div></foreignObject></g><g style="" transform="translate(215.1640625, -76.125)" class="label attribute-comment"><foreignObject height="0" width="0"><div style="display: table-cell; white-space: nowrap; line-height: 1.5; max-width: 100px; text-align: start;" xmlns="http://www.w3.org/1999/xhtml"><span class="nodeLabel"></span></div></foreignObject></g><g style="" transform="translate(-190.1640625, -33.375)" class="label attribute-type"><foreignObject height="24" width="47.140625"><div style="display: table-cell; white-space: nowrap; line-height: 1.5; max-width: 147px; text-align: start;" xmlns="http://www.w3.org/1999/xhtml"><span class="nodeLabel"><p>events</p></span></div></foreignObject></g><g style="" transform="translate(57.421875, -33.375)" class="label attribute-name"><foreignObject height="24" width="39.125"><div style="display: table-cell; white-space: nowrap; line-height: 1.5; max-width: 139px; text-align: start;" xmlns="http://www.w3.org/1999/xhtml"><span class="nodeLabel"><p>string</p></span></div></foreignObject></g><g style="" transform="translate(215.1640625, -33.375)" class="label attribute-keys"><foreignObject height="0" width="0"><div style="display: table-cell; white-space: nowrap; line-height: 1.5; max-width: 100px; text-align: start;" xmlns="http://www.w3.org/1999/xhtml"><span class="nodeLabel"></span></div></foreignObject></g><g style="" transform="translate(215.1640625, -33.375)" class="label attribute-comment"><foreignObject height="0" width="0"><div style="display: table-cell; white-space: nowrap; line-height: 1.5; max-width: 100px; text-align: start;" xmlns="http://www.w3.org/1999/xhtml"><span class="nodeLabel"></span></div></foreignObject></g><g style="" transform="translate(-190.1640625, 9.375)" class="label attribute-type"><foreignObject height="24" width="40.03125"><div style="display: table-cell; white-space: nowrap; line-height: 1.5; max-width: 140px; text-align: start;" xmlns="http://www.w3.org/1999/xhtml"><span class="nodeLabel"><p>name</p></span></div></foreignObject></g><g style="" transform="translate(57.421875, 9.375)" class="label attribute-name"><foreignObject height="24" width="39.125"><div style="display: table-cell; white-space: nowrap; line-height: 1.5; max-width: 139px; text-align: start;" xmlns="http://www.w3.org/1999/xhtml"><span class="nodeLabel"><p>string</p></span></div></foreignObject></g><g style="" transform="translate(215.1640625, 9.375)" class="label attribute-keys"><foreignObject height="0" width="0"><div style="display: table-cell; white-space: nowrap; line-height: 1.5; max-width: 100px; text-align: start;" xmlns="http://www.w3.org/1999/xhtml"><span class="nodeLabel"></span></div></foreignObject></g><g style="" transform="translate(215.1640625, 9.375)" class="label attribute-comment"><foreignObject height="0" width="0"><div style="display: table-cell; white-space: nowrap; line-height: 1.5; max-width: 100px; text-align: start;" xmlns="http://www.w3.org/1999/xhtml"><span class="nodeLabel"></span></div></foreignObject></g><g style="" transform="translate(-190.1640625, 52.125)" class="label attribute-type"><foreignObject height="24" width="43.578125"><div style="display: table-cell; white-space: nowrap; line-height: 1.5; max-width: 144px; text-align: start;" xmlns="http://www.w3.org/1999/xhtml"><span class="nodeLabel"><p>secret</p></span></div></foreignObject></g><g style="" transform="translate(57.421875, 52.125)" class="label attribute-name"><foreignObject height="24" width="39.125"><div style="display: table-cell; white-space: nowrap; line-height: 1.5; max-width: 139px; text-align: start;" xmlns="http://www.w3.org/1999/xhtml"><span class="nodeLabel"><p>string</p></span></div></foreignObject></g><g style="" transform="translate(215.1640625, 52.125)" class="label attribute-keys"><foreignObject height="0" width="0"><div style="display: table-cell; white-space: nowrap; line-height: 1.5; max-width: 100px; text-align: start;" xmlns="http://www.w3.org/1999/xhtml"><span class="nodeLabel"></span></div></foreignObject></g><g style="" transform="translate(215.1640625, 52.125)" class="label attribute-comment"><foreignObject height="0" width="0"><div style="display: table-cell; white-space: nowrap; line-height: 1.5; max-width: 100px; text-align: start;" xmlns="http://www.w3.org/1999/xhtml"><span class="nodeLabel"></span></div></foreignObject></g><g style="" transform="translate(-190.1640625, 94.875)" class="label attribute-type"><foreignObject height="24" width="17.78125"><div style="display: table-cell; white-space: nowrap; line-height: 1.5; max-width: 118px; text-align: start;" xmlns="http://www.w3.org/1999/xhtml"><span class="nodeLabel"><p>url</p></span></div></foreignObject></g><g style="" transform="translate(57.421875, 94.875)" class="label attribute-name"><foreignObject height="24" width="39.125"><div style="display: table-cell; white-space: nowrap; line-height: 1.5; max-width: 139px; text-align: start;" xmlns="http://www.w3.org/1999/xhtml"><span class="nodeLabel"><p>string</p></span></div></foreignObject></g><g style="" transform="translate(215.1640625, 94.875)" class="label attribute-keys"><foreignObject height="0" width="0"><div style="display: table-cell; white-space: nowrap; line-height: 1.5; max-width: 100px; text-align: start;" xmlns="http://www.w3.org/1999/xhtml"><span class="nodeLabel"></span></div></foreignObject></g><g style="" transform="translate(215.1640625, 94.875)" class="label attribute-comment"><foreignObject height="0" width="0"><div style="display: table-cell; white-space: nowrap; line-height: 1.5; max-width: 100px; text-align: start;" xmlns="http://www.w3.org/1999/xhtml"><span class="nodeLabel"></span></div></foreignObject></g><g style="" transform="translate(-190.1640625, 137.625)" class="label attribute-type"><foreignObject height="24" width="77.375"><div style="display: table-cell; white-space: nowrap; line-height: 1.5; max-width: 177px; text-align: start;" xmlns="http://www.w3.org/1999/xhtml"><span class="nodeLabel"><p>description</p></span></div></foreignObject></g><g style="" transform="translate(57.421875, 137.625)" class="label attribute-name"><foreignObject height="24" width="25.796875"><div style="display: table-cell; white-space: nowrap; line-height: 1.5; max-width: 126px; text-align: start;" xmlns="http://www.w3.org/1999/xhtml"><span class="nodeLabel"><p>text</p></span></div></foreignObject></g><g style="" transform="translate(215.1640625, 137.625)" class="label attribute-keys"><foreignObject height="0" width="0"><div style="display: table-cell; white-space: nowrap; line-height: 1.5; max-width: 100px; text-align: start;" xmlns="http://www.w3.org/1999/xhtml"><span class="nodeLabel"></span></div></foreignObject></g><g style="" transform="translate(215.1640625, 137.625)" class="label attribute-comment"><foreignObject height="0" width="0"><div style="display: table-cell; white-space: nowrap; line-height: 1.5; max-width: 100px; text-align: start;" xmlns="http://www.w3.org/1999/xhtml"><span class="nodeLabel"></span></div></foreignObject></g><g style="" transform="translate(-190.1640625, 180.375)" class="label attribute-type"><foreignObject height="24" width="41.796875"><div style="display: table-cell; white-space: nowrap; line-height: 1.5; max-width: 142px; text-align: start;" xmlns="http://www.w3.org/1999/xhtml"><span class="nodeLabel"><p>active</p></span></div></foreignObject></g><g style="" transform="translate(57.421875, 180.375)" class="label attribute-name"><foreignObject height="24" width="56.953125"><div style="display: table-cell; white-space: nowrap; line-height: 1.5; max-width: 157px; text-align: start;" xmlns="http://www.w3.org/1999/xhtml"><span class="nodeLabel"><p>boolean</p></span></div></foreignObject></g><g style="" transform="translate(215.1640625, 180.375)" class="label attribute-keys"><foreignObject height="0" width="0"><div style="display: table-cell; white-space: nowrap; line-height: 1.5; max-width: 100px; text-align: start;" xmlns="http://www.w3.org/1999/xhtml"><span class="nodeLabel"></span></div></foreignObject></g><g style="" transform="translate(215.1640625, 180.375)" class="label attribute-comment"><foreignObject height="0" width="0"><div style="display: table-cell; white-space: nowrap; line-height: 1.5; max-width: 100px; text-align: start;" xmlns="http://www.w3.org/1999/xhtml"><span class="nodeLabel"></span></div></foreignObject></g><g class="divider"><path stroke-dasharray="0 0" fill="none" stroke-width="1.3" stroke="#9370DB" d="M-202.6640625 -171 C-88.99000295315456 -171, 24.684056593690883 -171, 202.6640625 -171 M-202.6640625 -171 C-49.63188964217082 -171, 103.40028321565836 -171, 202.6640625 -171"/></g><g class="divider"><path stroke-dasharray="0 0" fill="none" stroke-width="1.3" stroke="#9370DB" d="M44.921875 -171 C44.921875 -82.461627377203, 44.921875 6.076745245593997, 44.921875 213.75 M44.921875 -171 C44.921875 -63.82979096620889, 44.921875 43.34041806758222, 44.921875 213.75"/></g><g class="divider"><path stroke-dasharray="0 0" fill="none" stroke-width="1.3" stroke="#9370DB" d="M-202.6640625 -171 C-107.2628907654652 -171, -11.861719030930402 -171, 202.6640625 -171 M-202.6640625 -171 C-61.22693409828037 -171, 80.21019430343927 -171, 202.6640625 -171"/></g></g><g transform="translate(742.5390625, 952.5749969482422)" id="entity-BETTER_TOGETHER_WEBHOOK_DELIVERIES-1" class="node default"><g style=""><path fill="#ECECFF" stroke-width="0" stroke="none" d="M-203.1171875 -192.375 L203.1171875 -192.375 L203.1171875 192.375 L-203.1171875 192.375"/><path stroke-dasharray="0 0" fill="none" stroke-width="1.3" stroke="#9370DB" d="M-203.1171875 -192.375 C-80.36941158077533 -192.375, 42.37836433844933 -192.375, 203.1171875 -192.375 M-203.1171875 -192.375 C-58.881180974356795 -192.375, 85.35482555128641 -192.375, 203.1171875 -192.375 M203.1171875 -192.375 C203.1171875 -79.88861862708652, 203.1171875 32.59776274582697, 203.1171875 192.375 M203.1171875 -192.375 C203.1171875 -115.03901944833176, 203.1171875 -37.703038896663514, 203.1171875 192.375 M203.1171875 192.375 C97.77430738359634 192.375, -7.568572732807326 192.375, -203.1171875 192.375 M203.1171875 192.375 C56.00507362954764 192.375, -91.10704024090472 192.375, -203.1171875 192.375 M-203.1171875 192.375 C-203.1171875 98.77633211233581, -203.1171875 5.1776642246716165, -203.1171875 -192.375 M-203.1171875 192.375 C-203.1171875 54.54813345112345, -203.1171875 -83.2787330977531, -203.1171875 -192.375"/></g><g class="row-rect-odd" style=""><path fill="hsl(240, 100%, 100%)" stroke-width="0" stroke="none" d="M-203.1171875 -149.625 L203.1171875 -149.625 L203.1171875 -106.875 L-203.1171875 -106.875"/><path stroke-dasharray="0 0" fill="none" stroke-width="1.3" stroke="#9370DB" d="M-203.1171875 -149.625 C-43.82486618348548 -149.625, 115.46745513302903 -149.625, 203.1171875 -149.625 M-203.1171875 -149.625 C-76.03416533803706 -149.625, 51.04885682392589 -149.625, 203.1171875 -149.625 M203.1171875 -149.625 C203.1171875 -137.94253464321, 203.1171875 -126.26006928641999, 203.1171875 -106.875 M203.1171875 -149.625 C203.1171875 -139.8669378132791, 203.1171875 -130.10887562655822, 203.1171875 -106.875 M203.1171875 -106.875 C98.95915620449233 -106.875, -5.1988750910153385 -106.875, -203.1171875 -106.875 M203.1171875 -106.875 C75.72464838270481 -106.875, -51.66789073459037 -106.875, -203.1171875 -106.875 M-203.1171875 -106.875 C-203.1171875 -116.1407773852428, -203.1171875 -125.4065547704856, -203.1171875 -149.625 M-203.1171875 -106.875 C-203.1171875 -116.19982525853885, -203.1171875 -125.5246505170777, -203.1171875 -149.625"/></g><g class="row-rect-even" style=""><path fill="hsl(240, 100%, 97.2745098039%)" stroke-width="0" stroke="none" d="M-203.1171875 -106.875 L203.1171875 -106.875 L203.1171875 -64.125 L-203.1171875 -64.125"/><path stroke-dasharray="0 0" fill="none" stroke-width="1.3" stroke="#9370DB" d="M-203.1171875 -106.875 C-83.6196239897919 -106.875, 35.87793952041619 -106.875, 203.1171875 -106.875 M-203.1171875 -106.875 C-91.50650190904257 -106.875, 20.10418368191486 -106.875, 203.1171875 -106.875 M203.1171875 -106.875 C203.1171875 -96.49930744874135, 203.1171875 -86.12361489748271, 203.1171875 -64.125 M203.1171875 -106.875 C203.1171875 -92.35679546826594, 203.1171875 -77.8385909365319, 203.1171875 -64.125 M203.1171875 -64.125 C116.04289224804465 -64.125, 28.968596996089303 -64.125, -203.1171875 -64.125 M203.1171875 -64.125 C88.39109090508691 -64.125, -26.335005689826176 -64.125, -203.1171875 -64.125 M-203.1171875 -64.125 C-203.1171875 -77.62459939578979, -203.1171875 -91.12419879157957, -203.1171875 -106.875 M-203.1171875 -64.125 C-203.1171875 -73.47314884279841, -203.1171875 -82.82129768559682, -203.1171875 -106.875"/></g><g class="row-rect-odd" style=""><path fill="hsl(240, 100%, 100%)" stroke-width="0" stroke="none" d="M-203.1171875 -64.125 L203.1171875 -64.125 L203.1171875 -21.375 L-203.1171875 -21.375"/><path stroke-dasharray="0 0" fill="none" stroke-width="1.3" stroke="#9370DB" d="M-203.1171875 -64.125 C-80.78660971262809 -64.125, 41.543968074743816 -64.125, 203.1171875 -64.125 M-203.1171875 -64.125 C-96.4034764189438 -64.125, 10.310234662112407 -64.125, 203.1171875 -64.125 M203.1171875 -64.125 C203.1171875 -54.05789284033572, 203.1171875 -43.990785680671436, 203.1171875 -21.375 M203.1171875 -64.125 C203.1171875 -48.32118506927729, 203.1171875 -32.51737013855459, 203.1171875 -21.375 M203.1171875 -21.375 C106.94988437801841 -21.375, 10.78258125603682 -21.375, -203.1171875 -21.375 M203.1171875 -21.375 C74.36221058806368 -21.375, -54.39276632387265 -21.375, -203.1171875 -21.375 M-203.1171875 -21.375 C-203.1171875 -35.11576398207731, -203.1171875 -48.85652796415463, -203.1171875 -64.125 M-203.1171875 -21.375 C-203.1171875 -34.85461903178598, -203.1171875 -48.33423806357196, -203.1171875 -64.125"/></g><g class="row-rect-even" style=""><path fill="hsl(240, 100%, 97.2745098039%)" stroke-width="0" stroke="none" d="M-203.1171875 -21.375 L203.1171875 -21.375 L203.1171875 21.375 L-203.1171875 21.375"/><path stroke-dasharray="0 0" fill="none" stroke-width="1.3" stroke="#9370DB" d="M-203.1171875 -21.375 C-48.03773137508054 -21.375, 107.04172474983892 -21.375, 203.1171875 -21.375 M-203.1171875 -21.375 C-95.79212625084737 -21.375, 11.532934998305251 -21.375, 203.1171875 -21.375 M203.1171875 -21.375 C203.1171875 -9.573781978437921, 203.1171875 2.2274360431241575, 203.1171875 21.375 M203.1171875 -21.375 C203.1171875 -10.355719154983305, 203.1171875 0.66356169003339, 203.1171875 21.375 M203.1171875 21.375 C115.91063279170733 21.375, 28.704078083414657 21.375, -203.1171875 21.375 M203.1171875 21.375 C50.463484533290114 21.375, -102.19021843341977 21.375, -203.1171875 21.375 M-203.1171875 21.375 C-203.1171875 4.344946570892091, -203.1171875 -12.685106858215818, -203.1171875 -21.375 M-203.1171875 21.375 C-203.1171875 5.28430411486784, -203.1171875 -10.80639177026432, -203.1171875 -21.375"/></g><g class="row-rect-odd" style=""><path fill="hsl(240, 100%, 100%)" stroke-width="0" stroke="none" d="M-203.1171875 21.375 L203.1171875 21.375 L203.1171875 64.125 L-203.1171875 64.125"/><path stroke-dasharray="0 0" fill="none" stroke-width="1.3" stroke="#9370DB" d="M-203.1171875 21.375 C-52.107028193314164 21.375, 98.90313111337167 21.375, 203.1171875 21.375 M-203.1171875 21.375 C-53.11711013678379 21.375, 96.88296722643241 21.375, 203.1171875 21.375 M203.1171875 21.375 C203.1171875 30.809312135130252, 203.1171875 40.243624270260504, 203.1171875 64.125 M203.1171875 21.375 C203.1171875 36.4470880801387, 203.1171875 51.51917616027739, 203.1171875 64.125 M203.1171875 64.125 C95.07856952834861 64.125, -12.960048443302782 64.125, -203.1171875 64.125 M203.1171875 64.125 C73.62695808913452 64.125, -55.86327132173096 64.125, -203.1171875 64.125 M-203.1171875 64.125 C-203.1171875 50.722158330010615, -203.1171875 37.31931666002123, -203.1171875 21.375 M-203.1171875 64.125 C-203.1171875 52.42326381098462, -203.1171875 40.72152762196925, -203.1171875 21.375"/></g><g class="row-rect-even" style=""><path fill="hsl(240, 100%, 97.2745098039%)" stroke-width="0" stroke="none" d="M-203.1171875 64.125 L203.1171875 64.125 L203.1171875 106.875 L-203.1171875 106.875"/><path stroke-dasharray="0 0" fill="none" stroke-width="1.3" stroke="#9370DB" d="M-203.1171875 64.125 C-84.17765123449108 64.125, 34.76188503101784 64.125, 203.1171875 64.125 M-203.1171875 64.125 C-111.33809333388145 64.125, -19.55899916776289 64.125, 203.1171875 64.125 M203.1171875 64.125 C203.1171875 75.57337811757202, 203.1171875 87.02175623514405, 203.1171875 106.875 M203.1171875 64.125 C203.1171875 76.52669257276807, 203.1171875 88.92838514553614, 203.1171875 106.875 M203.1171875 106.875 C77.14901545156474 106.875, -48.81915659687053 106.875, -203.1171875 106.875 M203.1171875 106.875 C70.32893349569716 106.875, -62.459320508605686 106.875, -203.1171875 106.875 M-203.1171875 106.875 C-203.1171875 90.57391463683393, -203.1171875 74.27282927366787, -203.1171875 64.125 M-203.1171875 106.875 C-203.1171875 98.0276225020081, -203.1171875 89.1802450040162, -203.1171875 64.125"/></g><g class="row-rect-odd" style=""><path fill="hsl(240, 100%, 100%)" stroke-width="0" stroke="none" d="M-203.1171875 106.875 L203.1171875 106.875 L203.1171875 149.625 L-203.1171875 149.625"/><path stroke-dasharray="0 0" fill="none" stroke-width="1.3" stroke="#9370DB" d="M-203.1171875 106.875 C-104.39674040927447 106.875, -5.676293318548943 106.875, 203.1171875 106.875 M-203.1171875 106.875 C-103.2142356959119 106.875, -3.3112838918237912 106.875, 203.1171875 106.875 M203.1171875 106.875 C203.1171875 121.66662470713116, 203.1171875 136.45824941426233, 203.1171875 149.625 M203.1171875 106.875 C203.1171875 119.15289661871877, 203.1171875 131.43079323743754, 203.1171875 149.625 M203.1171875 149.625 C99.01178189001045 149.625, -5.093623719979092 149.625, -203.1171875 149.625 M203.1171875 149.625 C61.1786353231887 149.625, -80.7599168536226 149.625, -203.1171875 149.625 M-203.1171875 149.625 C-203.1171875 132.72690817005753, -203.1171875 115.82881634011504, -203.1171875 106.875 M-203.1171875 149.625 C-203.1171875 139.39546970135535, -203.1171875 129.16593940271073, -203.1171875 106.875"/></g><g class="row-rect-even" style=""><path fill="hsl(240, 100%, 97.2745098039%)" stroke-width="0" stroke="none" d="M-203.1171875 149.625 L203.1171875 149.625 L203.1171875 192.375 L-203.1171875 192.375"/><path stroke-dasharray="0 0" fill="none" stroke-width="1.3" stroke="#9370DB" d="M-203.1171875 149.625 C-67.00617467112724 149.625, 69.10483815774552 149.625, 203.1171875 149.625 M-203.1171875 149.625 C-44.09010373938071 149.625, 114.93698002123858 149.625, 203.1171875 149.625 M203.1171875 149.625 C203.1171875 158.91578697516667, 203.1171875 168.20657395033334, 203.1171875 192.375 M203.1171875 149.625 C203.1171875 160.1622347442251, 203.1171875 170.6994694884502, 203.1171875 192.375 M203.1171875 192.375 C87.9512608058165 192.375, -27.214665888366994 192.375, -203.1171875 192.375 M203.1171875 192.375 C112.22263581784499 192.375, 21.328084135689977 192.375, -203.1171875 192.375 M-203.1171875 192.375 C-203.1171875 183.4133312396113, -203.1171875 174.4516624792226, -203.1171875 149.625 M-203.1171875 192.375 C-203.1171875 180.9045285577007, -203.1171875 169.43405711540143, -203.1171875 149.625"/></g><g style="" transform="translate(-178.1171875, -183)" class="label name"><foreignObject height="24" width="356.234375"><div style="display: table-cell; white-space: nowrap; line-height: 1.5; max-width: 456px; text-align: start;" xmlns="http://www.w3.org/1999/xhtml"><span class="nodeLabel"><p>BETTER_TOGETHER_WEBHOOK_DELIVERIES</p></span></div></foreignObject></g><g style="" transform="translate(-190.6171875, -140.25)" class="label attribute-type"><foreignObject height="24" width="155.6875"><div style="display: table-cell; white-space: nowrap; line-height: 1.5; max-width: 257px; text-align: start;" xmlns="http://www.w3.org/1999/xhtml"><span class="nodeLabel"><p>webhook_endpoint_id</p></span></div></foreignObject></g><g style="" transform="translate(59.65625, -140.25)" class="label attribute-name"><foreignObject height="24" width="30.25"><div style="display: table-cell; white-space: nowrap; line-height: 1.5; max-width: 130px; text-align: start;" xmlns="http://www.w3.org/1999/xhtml"><span class="nodeLabel"><p>uuid</p></span></div></foreignObject></g><g style="" transform="translate(215.6171875, -140.25)" class="label attribute-keys"><foreignObject height="0" width="0"><div style="display: table-cell; white-space: nowrap; line-height: 1.5; max-width: 100px; text-align: start;" xmlns="http://www.w3.org/1999/xhtml"><span class="nodeLabel"></span></div></foreignObject></g><g style="" transform="translate(215.6171875, -140.25)" class="label attribute-comment"><foreignObject height="0" width="0"><div style="display: table-cell; white-space: nowrap; line-height: 1.5; max-width: 100px; text-align: start;" xmlns="http://www.w3.org/1999/xhtml"><span class="nodeLabel"></span></div></foreignObject></g><g style="" transform="translate(-190.6171875, -97.5)" class="label attribute-type"><foreignObject height="24" width="39.140625"><div style="display: table-cell; white-space: nowrap; line-height: 1.5; max-width: 140px; text-align: start;" xmlns="http://www.w3.org/1999/xhtml"><span class="nodeLabel"><p>event</p></span></div></foreignObject></g><g style="" transform="translate(59.65625, -97.5)" class="label attribute-name"><foreignObject height="24" width="39.125"><div style="display: table-cell; white-space: nowrap; line-height: 1.5; max-width: 139px; text-align: start;" xmlns="http://www.w3.org/1999/xhtml"><span class="nodeLabel"><p>string</p></span></div></foreignObject></g><g style="" transform="translate(215.6171875, -97.5)" class="label attribute-keys"><foreignObject height="0" width="0"><div style="display: table-cell; white-space: nowrap; line-height: 1.5; max-width: 100px; text-align: start;" xmlns="http://www.w3.org/1999/xhtml"><span class="nodeLabel"></span></div></foreignObject></g><g style="" transform="translate(215.6171875, -97.5)" class="label attribute-comment"><foreignObject height="0" width="0"><div style="display: table-cell; white-space: nowrap; line-height: 1.5; max-width: 100px; text-align: start;" xmlns="http://www.w3.org/1999/xhtml"><span class="nodeLabel"></span></div></foreignObject></g><g style="" transform="translate(-190.6171875, -54.75)" class="label attribute-type"><foreignObject height="24" width="42.6875"><div style="display: table-cell; white-space: nowrap; line-height: 1.5; max-width: 143px; text-align: start;" xmlns="http://www.w3.org/1999/xhtml"><span class="nodeLabel"><p>status</p></span></div></foreignObject></g><g style="" transform="translate(59.65625, -54.75)" class="label attribute-name"><foreignObject height="24" width="39.125"><div style="display: table-cell; white-space: nowrap; line-height: 1.5; max-width: 139px; text-align: start;" xmlns="http://www.w3.org/1999/xhtml"><span class="nodeLabel"><p>string</p></span></div></foreignObject></g><g style="" transform="translate(215.6171875, -54.75)" class="label attribute-keys"><foreignObject height="0" width="0"><div style="display: table-cell; white-space: nowrap; line-height: 1.5; max-width: 100px; text-align: start;" xmlns="http://www.w3.org/1999/xhtml"><span class="nodeLabel"></span></div></foreignObject></g><g style="" transform="translate(215.6171875, -54.75)" class="label attribute-comment"><foreignObject height="0" width="0"><div style="display: table-cell; white-space: nowrap; line-height: 1.5; max-width: 100px; text-align: start;" xmlns="http://www.w3.org/1999/xhtml"><span class="nodeLabel"></span></div></foreignObject></g><g style="" transform="translate(-190.6171875, -12)" class="label attribute-type"><foreignObject height="24" width="109.421875"><div style="display: table-cell; white-space: nowrap; line-height: 1.5; max-width: 209px; text-align: start;" xmlns="http://www.w3.org/1999/xhtml"><span class="nodeLabel"><p>response_body</p></span></div></foreignObject></g><g style="" transform="translate(59.65625, -12)" class="label attribute-name"><foreignObject height="24" width="25.796875"><div style="display: table-cell; white-space: nowrap; line-height: 1.5; max-width: 126px; text-align: start;" xmlns="http://www.w3.org/1999/xhtml"><span class="nodeLabel"><p>text</p></span></div></foreignObject></g><g style="" transform="translate(215.6171875, -12)" class="label attribute-keys"><foreignObject height="0" width="0"><div style="display: table-cell; white-space: nowrap; line-height: 1.5; max-width: 100px; text-align: start;" xmlns="http://www.w3.org/1999/xhtml"><span class="nodeLabel"></span></div></foreignObject></g><g style="" transform="translate(215.6171875, -12)" class="label attribute-comment"><foreignObject height="0" width="0"><div style="display: table-cell; white-space: nowrap; line-height: 1.5; max-width: 100px; text-align: start;" xmlns="http://www.w3.org/1999/xhtml"><span class="nodeLabel"></span></div></foreignObject></g><g style="" transform="translate(-190.6171875, 30.75)" class="label attribute-type"><foreignObject height="24" width="61.359375"><div style="display: table-cell; white-space: nowrap; line-height: 1.5; max-width: 161px; text-align: start;" xmlns="http://www.w3.org/1999/xhtml"><span class="nodeLabel"><p>attempts</p></span></div></foreignObject></g><g style="" transform="translate(59.65625, 30.75)" class="label attribute-name"><foreignObject height="24" width="48.921875"><div style="display: table-cell; white-space: nowrap; line-height: 1.5; max-width: 150px; text-align: start;" xmlns="http://www.w3.org/1999/xhtml"><span class="nodeLabel"><p>integer</p></span></div></foreignObject></g><g style="" transform="translate(215.6171875, 30.75)" class="label attribute-keys"><foreignObject height="0" width="0"><div style="display: table-cell; white-space: nowrap; line-height: 1.5; max-width: 100px; text-align: start;" xmlns="http://www.w3.org/1999/xhtml"><span class="nodeLabel"></span></div></foreignObject></g><g style="" transform="translate(215.6171875, 30.75)" class="label attribute-comment"><foreignObject height="0" width="0"><div style="display: table-cell; white-space: nowrap; line-height: 1.5; max-width: 100px; text-align: start;" xmlns="http://www.w3.org/1999/xhtml"><span class="nodeLabel"></span></div></foreignObject></g><g style="" transform="translate(-190.6171875, 73.5)" class="label attribute-type"><foreignObject height="24" width="109.421875"><div style="display: table-cell; white-space: nowrap; line-height: 1.5; max-width: 210px; text-align: start;" xmlns="http://www.w3.org/1999/xhtml"><span class="nodeLabel"><p>response_code</p></span></div></foreignObject></g><g style="" transform="translate(59.65625, 73.5)" class="label attribute-name"><foreignObject height="24" width="48.921875"><div style="display: table-cell; white-space: nowrap; line-height: 1.5; max-width: 150px; text-align: start;" xmlns="http://www.w3.org/1999/xhtml"><span class="nodeLabel"><p>integer</p></span></div></foreignObject></g><g style="" transform="translate(215.6171875, 73.5)" class="label attribute-keys"><foreignObject height="0" width="0"><div style="display: table-cell; white-space: nowrap; line-height: 1.5; max-width: 100px; text-align: start;" xmlns="http://www.w3.org/1999/xhtml"><span class="nodeLabel"></span></div></foreignObject></g><g style="" transform="translate(215.6171875, 73.5)" class="label attribute-comment"><foreignObject height="0" width="0"><div style="display: table-cell; white-space: nowrap; line-height: 1.5; max-width: 100px; text-align: start;" xmlns="http://www.w3.org/1999/xhtml"><span class="nodeLabel"></span></div></foreignObject></g><g style="" transform="translate(-190.6171875, 116.25)" class="label attribute-type"><foreignObject height="24" width="87.171875"><div style="display: table-cell; white-space: nowrap; line-height: 1.5; max-width: 188px; text-align: start;" xmlns="http://www.w3.org/1999/xhtml"><span class="nodeLabel"><p>delivered_at</p></span></div></foreignObject></g><g style="" transform="translate(59.65625, 116.25)" class="label attribute-name"><foreignObject height="24" width="61.375"><div style="display: table-cell; white-space: nowrap; line-height: 1.5; max-width: 161px; text-align: start;" xmlns="http://www.w3.org/1999/xhtml"><span class="nodeLabel"><p>datetime</p></span></div></foreignObject></g><g style="" transform="translate(215.6171875, 116.25)" class="label attribute-keys"><foreignObject height="0" width="0"><div style="display: table-cell; white-space: nowrap; line-height: 1.5; max-width: 100px; text-align: start;" xmlns="http://www.w3.org/1999/xhtml"><span class="nodeLabel"></span></div></foreignObject></g><g style="" transform="translate(215.6171875, 116.25)" class="label attribute-comment"><foreignObject height="0" width="0"><div style="display: table-cell; white-space: nowrap; line-height: 1.5; max-width: 100px; text-align: start;" xmlns="http://www.w3.org/1999/xhtml"><span class="nodeLabel"></span></div></foreignObject></g><g style="" transform="translate(-190.6171875, 159)" class="label attribute-type"><foreignObject height="24" width="56.046875"><div style="display: table-cell; white-space: nowrap; line-height: 1.5; max-width: 156px; text-align: start;" xmlns="http://www.w3.org/1999/xhtml"><span class="nodeLabel"><p>payload</p></span></div></foreignObject></g><g style="" transform="translate(59.65625, 159)" class="label attribute-name"><foreignObject height="24" width="38.25"><div style="display: table-cell; white-space: nowrap; line-height: 1.5; max-width: 139px; text-align: start;" xmlns="http://www.w3.org/1999/xhtml"><span class="nodeLabel"><p>jsonb</p></span></div></foreignObject></g><g style="" transform="translate(215.6171875, 159)" class="label attribute-keys"><foreignObject height="0" width="0"><div style="display: table-cell; white-space: nowrap; line-height: 1.5; max-width: 100px; text-align: start;" xmlns="http://www.w3.org/1999/xhtml"><span class="nodeLabel"></span></div></foreignObject></g><g style="" transform="translate(215.6171875, 159)" class="label attribute-comment"><foreignObject height="0" width="0"><div style="display: table-cell; white-space: nowrap; line-height: 1.5; max-width: 100px; text-align: start;" xmlns="http://www.w3.org/1999/xhtml"><span class="nodeLabel"></span></div></foreignObject></g><g class="divider"><path stroke-dasharray="0 0" fill="none" stroke-width="1.3" stroke="#9370DB" d="M-203.1171875 -149.625 C-77.86485722704093 -149.625, 47.38747304591814 -149.625, 203.1171875 -149.625 M-203.1171875 -149.625 C-66.85367606744154 -149.625, 69.40983536511692 -149.625, 203.1171875 -149.625"/></g><g class="divider"><path stroke-dasharray="0 0" fill="none" stroke-width="1.3" stroke="#9370DB" d="M47.15625 -149.625 C47.15625 -46.947179067335796, 47.15625 55.73064186532841, 47.15625 192.375 M47.15625 -149.625 C47.15625 -14.726740598343042, 47.15625 120.17151880331392, 47.15625 192.375"/></g><g class="divider"><path stroke-dasharray="0 0" fill="none" stroke-width="1.3" stroke="#9370DB" d="M-203.1171875 -149.625 C-53.82033063264734 -149.625, 95.47652623470532 -149.625, 203.1171875 -149.625 M-203.1171875 -149.625 C-47.800547804032504 -149.625, 107.51609189193499 -149.625, 203.1171875 -149.625"/></g></g><g transform="translate(196.1640625, 50.75)" id="entity-EXTERNAL_IDENTITY_ACCESS__PERSON-2" class="node default"><g style=""><path fill="#ECECFF" stroke-width="0" stroke="none" d="M-188.1640625 -42.75 L188.1640625 -42.75 L188.1640625 42.75 L-188.1640625 42.75"/><path stroke-dasharray="0 0" fill="none" stroke-width="1.3" stroke="#9370DB" d="M-188.1640625 -42.75 C-60.977123262420776 -42.75, 66.20981597515845 -42.75, 188.1640625 -42.75 M-188.1640625 -42.75 C-92.96717488240438 -42.75, 2.2297127351912422 -42.75, 188.1640625 -42.75 M188.1640625 -42.75 C188.1640625 -16.153481985163165, 188.1640625 10.44303602967367, 188.1640625 42.75 M188.1640625 -42.75 C188.1640625 -12.305436655971711, 188.1640625 18.139126688056578, 188.1640625 42.75 M188.1640625 42.75 C38.221802289953246 42.75, -111.72045792009351 42.75, -188.1640625 42.75 M188.1640625 42.75 C93.61942920205277 42.75, -0.9252040958944576 42.75, -188.1640625 42.75 M-188.1640625 42.75 C-188.1640625 17.812463832626758, -188.1640625 -7.125072334746484, -188.1640625 -42.75 M-188.1640625 42.75 C-188.1640625 20.965357176865112, -188.1640625 -0.8192856462697762, -188.1640625 -42.75"/></g><g class="row-rect-odd" style=""><path fill="hsl(240, 100%, 100%)" stroke-width="0" stroke="none" d="M-188.1640625 0 L188.1640625 0 L188.1640625 42.75 L-188.1640625 42.75"/><path stroke-dasharray="0 0" fill="none" stroke-width="1.3" stroke="#9370DB" d="M-188.1640625 0 C-101.94231580722229 0, -15.720569114444572 0, 188.1640625 0 M-188.1640625 0 C-54.487323064636655 0, 79.18941637072669 0, 188.1640625 0 M188.1640625 0 C188.1640625 16.78333870175426, 188.1640625 33.56667740350852, 188.1640625 42.75 M188.1640625 0 C188.1640625 16.788721580355052, 188.1640625 33.577443160710104, 188.1640625 42.75 M188.1640625 42.75 C80.38143593650788 42.75, -27.40119062698423 42.75, -188.1640625 42.75 M188.1640625 42.75 C55.136237096149216 42.75, -77.89158830770157 42.75, -188.1640625 42.75 M-188.1640625 42.75 C-188.1640625 30.968242882017293, -188.1640625 19.18648576403459, -188.1640625 0 M-188.1640625 42.75 C-188.1640625 27.06557345756881, -188.1640625 11.381146915137617, -188.1640625 0"/></g><g style="" transform="translate(-163.1640625, -33.375)" class="label name"><foreignObject height="24" width="326.328125"><div style="display: table-cell; white-space: nowrap; line-height: 1.5; max-width: 426px; text-align: start;" xmlns="http://www.w3.org/1999/xhtml"><span class="nodeLabel"><p>EXTERNAL_IDENTITY_ACCESS__PERSON</p></span></div></foreignObject></g><g style="" transform="translate(-175.6640625, 9.375)" class="label attribute-type"><foreignObject height="24" width="39.125"><div style="display: table-cell; white-space: nowrap; line-height: 1.5; max-width: 139px; text-align: start;" xmlns="http://www.w3.org/1999/xhtml"><span class="nodeLabel"><p>string</p></span></div></foreignObject></g><g style="" transform="translate(-3.9609375, 9.375)" class="label attribute-name"><foreignObject height="24" width="72.046875"><div style="display: table-cell; white-space: nowrap; line-height: 1.5; max-width: 173px; text-align: start;" xmlns="http://www.w3.org/1999/xhtml"><span class="nodeLabel"><p>export_ref</p></span></div></foreignObject></g><g style="" transform="translate(200.6640625, 9.375)" class="label attribute-keys"><foreignObject height="0" width="0"><div style="display: table-cell; white-space: nowrap; line-height: 1.5; max-width: 100px; text-align: start;" xmlns="http://www.w3.org/1999/xhtml"><span class="nodeLabel"></span></div></foreignObject></g><g style="" transform="translate(200.6640625, 9.375)" class="label attribute-comment"><foreignObject height="0" width="0"><div style="display: table-cell; white-space: nowrap; line-height: 1.5; max-width: 100px; text-align: start;" xmlns="http://www.w3.org/1999/xhtml"><span class="nodeLabel"></span></div></foreignObject></g><g class="divider"><path stroke-dasharray="0 0" fill="none" stroke-width="1.3" stroke="#9370DB" d="M-188.1640625 0 C-69.09007580322418 0, 49.98391089355164 0, 188.1640625 0 M-188.1640625 0 C-53.050097534349305 0, 82.06386743130139 0, 188.1640625 0"/></g><g class="divider"><path stroke-dasharray="0 0" fill="none" stroke-width="1.3" stroke="#9370DB" d="M-16.4609375 0 C-16.4609375 9.555184511374387, -16.4609375 19.110369022748774, -16.4609375 42.75 M-16.4609375 0 C-16.4609375 16.01111817311187, -16.4609375 32.02223634622374, -16.4609375 42.75"/></g><g class="divider"><path stroke-dasharray="0 0" fill="none" stroke-width="1.3" stroke="#9370DB" d="M-188.1640625 0 C-95.47064933922474 0, -2.7772361784494706 0, 188.1640625 0 M-188.1640625 0 C-74.03836031819162 0, 40.08734186361676 0, 188.1640625 0"/></g></g><g transform="translate(742.5390625, 50.75)" id="entity-EXTERNAL_PLATFORM_NETWORK__COMMUNITY-3" class="node default"><g style=""><path fill="#ECECFF" stroke-width="0" stroke="none" d="M-218.2109375 -42.75 L218.2109375 -42.75 L218.2109375 42.75 L-218.2109375 42.75"/><path stroke-dasharray="0 0" fill="none" stroke-width="1.3" stroke="#9370DB" d="M-218.2109375 -42.75 C-53.88526728651138 -42.75, 110.44040292697724 -42.75, 218.2109375 -42.75 M-218.2109375 -42.75 C-50.88076780405777 -42.75, 116.44940189188446 -42.75, 218.2109375 -42.75 M218.2109375 -42.75 C218.2109375 -17.7761263328314, 218.2109375 7.197747334337201, 218.2109375 42.75 M218.2109375 -42.75 C218.2109375 -17.416542032246358, 218.2109375 7.916915935507284, 218.2109375 42.75 M218.2109375 42.75 C58.44424211402159 42.75, -101.32245327195682 42.75, -218.2109375 42.75 M218.2109375 42.75 C78.99745775851136 42.75, -60.21602198297728 42.75, -218.2109375 42.75 M-218.2109375 42.75 C-218.2109375 10.726135667775047, -218.2109375 -21.297728664449906, -218.2109375 -42.75 M-218.2109375 42.75 C-218.2109375 16.574812075884516, -218.2109375 -9.600375848230968, -218.2109375 -42.75"/></g><g class="row-rect-odd" style=""><path fill="hsl(240, 100%, 100%)" stroke-width="0" stroke="none" d="M-218.2109375 0 L218.2109375 0 L218.2109375 42.75 L-218.2109375 42.75"/><path stroke-dasharray="0 0" fill="none" stroke-width="1.3" stroke="#9370DB" d="M-218.2109375 0 C-100.56474897865083 0, 17.081439542698348 0, 218.2109375 0 M-218.2109375 0 C-86.95537131582537 0, 44.30019486834925 0, 218.2109375 0 M218.2109375 0 C218.2109375 13.046337822786345, 218.2109375 26.09267564557269, 218.2109375 42.75 M218.2109375 0 C218.2109375 11.998172895075493, 218.2109375 23.996345790150986, 218.2109375 42.75 M218.2109375 42.75 C81.72172559236213 42.75, -54.76748631527573 42.75, -218.2109375 42.75 M218.2109375 42.75 C126.20971471461856 42.75, 34.20849192923711 42.75, -218.2109375 42.75 M-218.2109375 42.75 C-218.2109375 25.80615184858802, -218.2109375 8.862303697176038, -218.2109375 0 M-218.2109375 42.75 C-218.2109375 28.21165437808527, -218.2109375 13.673308756170538, -218.2109375 0"/></g><g style="" transform="translate(-193.2109375, -33.375)" class="label name"><foreignObject height="24" width="386.421875"><div style="display: table-cell; white-space: nowrap; line-height: 1.5; max-width: 487px; text-align: start;" xmlns="http://www.w3.org/1999/xhtml"><span class="nodeLabel"><p>EXTERNAL_PLATFORM_NETWORK__COMMUNITY</p></span></div></foreignObject></g><g style="" transform="translate(-205.7109375, 9.375)" class="label attribute-type"><foreignObject height="24" width="39.125"><div style="display: table-cell; white-space: nowrap; line-height: 1.5; max-width: 139px; text-align: start;" xmlns="http://www.w3.org/1999/xhtml"><span class="nodeLabel"><p>string</p></span></div></foreignObject></g><g style="" transform="translate(-3.9609375, 9.375)" class="label attribute-name"><foreignObject height="24" width="72.046875"><div style="display: table-cell; white-space: nowrap; line-height: 1.5; max-width: 173px; text-align: start;" xmlns="http://www.w3.org/1999/xhtml"><span class="nodeLabel"><p>export_ref</p></span></div></foreignObject></g><g style="" transform="translate(230.7109375, 9.375)" class="label attribute-keys"><foreignObject height="0" width="0"><div style="display: table-cell; white-space: nowrap; line-height: 1.5; max-width: 100px; text-align: start;" xmlns="http://www.w3.org/1999/xhtml"><span class="nodeLabel"></span></div></foreignObject></g><g style="" transform="translate(230.7109375, 9.375)" class="label attribute-comment"><foreignObject height="0" width="0"><div style="display: table-cell; white-space: nowrap; line-height: 1.5; max-width: 100px; text-align: start;" xmlns="http://www.w3.org/1999/xhtml"><span class="nodeLabel"></span></div></foreignObject></g><g class="divider"><path stroke-dasharray="0 0" fill="none" stroke-width="1.3" stroke="#9370DB" d="M-218.2109375 0 C-60.456026631157584 0, 97.29888423768483 0, 218.2109375 0 M-218.2109375 0 C-119.84879142134702 0, -21.486645342694032 0, 218.2109375 0"/></g><g class="divider"><path stroke-dasharray="0 0" fill="none" stroke-width="1.3" stroke="#9370DB" d="M-16.4609375 0 C-16.4609375 11.128817498129731, -16.4609375 22.257634996259462, -16.4609375 42.75 M-16.4609375 0 C-16.4609375 12.887259474794526, -16.4609375 25.77451894958905, -16.4609375 42.75"/></g><g class="divider"><path stroke-dasharray="0 0" fill="none" stroke-width="1.3" stroke="#9370DB" d="M-218.2109375 0 C-130.24235178253457 0, -42.27376606506914 0, 218.2109375 0 M-218.2109375 0 C-100.63692411441795 0, 16.937089271164098 0, 218.2109375 0"/></g></g><g transform="translate(1335.4375, 50.75)" id="entity-EXTERNAL_IDENTITY_ACCESS__OAUTHAPPLICATION-4" class="node default"><g style=""><path fill="#ECECFF" stroke-width="0" stroke="none" d="M-234.6875 -42.75 L234.6875 -42.75 L234.6875 42.75 L-234.6875 42.75"/><path stroke-dasharray="0 0" fill="none" stroke-width="1.3" stroke="#9370DB" d="M-234.6875 -42.75 C-58.82959184083148 -42.75, 117.02831631833703 -42.75, 234.6875 -42.75 M-234.6875 -42.75 C-88.82721539025974 -42.75, 57.033069219480524 -42.75, 234.6875 -42.75 M234.6875 -42.75 C234.6875 -8.551003111421245, 234.6875 25.64799377715751, 234.6875 42.75 M234.6875 -42.75 C234.6875 -25.02431942253234, 234.6875 -7.29863884506468, 234.6875 42.75 M234.6875 42.75 C111.00747868958355 42.75, -12.6725426208329 42.75, -234.6875 42.75 M234.6875 42.75 C74.75484223345563 42.75, -85.17781553308873 42.75, -234.6875 42.75 M-234.6875 42.75 C-234.6875 13.061103833802836, -234.6875 -16.62779233239433, -234.6875 -42.75 M-234.6875 42.75 C-234.6875 16.390765202927994, -234.6875 -9.968469594144011, -234.6875 -42.75"/></g><g class="row-rect-odd" style=""><path fill="hsl(240, 100%, 100%)" stroke-width="0" stroke="none" d="M-234.6875 0 L234.6875 0 L234.6875 42.75 L-234.6875 42.75"/><path stroke-dasharray="0 0" fill="none" stroke-width="1.3" stroke="#9370DB" d="M-234.6875 0 C-59.48995867709081 0, 115.70758264581838 0, 234.6875 0 M-234.6875 0 C-87.69819357254616 0, 59.29111285490768 0, 234.6875 0 M234.6875 0 C234.6875 12.694090592650142, 234.6875 25.388181185300283, 234.6875 42.75 M234.6875 0 C234.6875 9.001568999566919, 234.6875 18.003137999133838, 234.6875 42.75 M234.6875 42.75 C92.04993840558234 42.75, -50.58762318883532 42.75, -234.6875 42.75 M234.6875 42.75 C64.21159282312402 42.75, -106.26431435375196 42.75, -234.6875 42.75 M-234.6875 42.75 C-234.6875 29.224791111838844, -234.6875 15.699582223677687, -234.6875 0 M-234.6875 42.75 C-234.6875 30.160211792211733, -234.6875 17.570423584423466, -234.6875 0"/></g><g style="" transform="translate(-209.6875, -33.375)" class="label name"><foreignObject height="24" width="419.375"><div style="display: table-cell; white-space: nowrap; line-height: 1.5; max-width: 519px; text-align: start;" xmlns="http://www.w3.org/1999/xhtml"><span class="nodeLabel"><p>EXTERNAL_IDENTITY_ACCESS__OAUTHAPPLICATION</p></span></div></foreignObject></g><g style="" transform="translate(-222.1875, 9.375)" class="label attribute-type"><foreignObject height="24" width="39.125"><div style="display: table-cell; white-space: nowrap; line-height: 1.5; max-width: 139px; text-align: start;" xmlns="http://www.w3.org/1999/xhtml"><span class="nodeLabel"><p>string</p></span></div></foreignObject></g><g style="" transform="translate(-3.9609375, 9.375)" class="label attribute-name"><foreignObject height="24" width="72.046875"><div style="display: table-cell; white-space: nowrap; line-height: 1.5; max-width: 173px; text-align: start;" xmlns="http://www.w3.org/1999/xhtml"><span class="nodeLabel"><p>export_ref</p></span></div></foreignObject></g><g style="" transform="translate(247.1875, 9.375)" class="label attribute-keys"><foreignObject height="0" width="0"><div style="display: table-cell; white-space: nowrap; line-height: 1.5; max-width: 100px; text-align: start;" xmlns="http://www.w3.org/1999/xhtml"><span class="nodeLabel"></span></div></foreignObject></g><g style="" transform="translate(247.1875, 9.375)" class="label attribute-comment"><foreignObject height="0" width="0"><div style="display: table-cell; white-space: nowrap; line-height: 1.5; max-width: 100px; text-align: start;" xmlns="http://www.w3.org/1999/xhtml"><span class="nodeLabel"></span></div></foreignObject></g><g class="divider"><path stroke-dasharray="0 0" fill="none" stroke-width="1.3" stroke="#9370DB" d="M-234.6875 0 C-103.04221207904118 0, 28.603075841917644 0, 234.6875 0 M-234.6875 0 C-139.86879172293698 0, -45.05008344587398 0, 234.6875 0"/></g><g class="divider"><path stroke-dasharray="0 0" fill="none" stroke-width="1.3" stroke="#9370DB" d="M-16.4609375 0 C-16.4609375 13.88828840712308, -16.4609375 27.77657681424616, -16.4609375 42.75 M-16.4609375 0 C-16.4609375 11.590650526087954, -16.4609375 23.181301052175908, -16.4609375 42.75"/></g><g class="divider"><path stroke-dasharray="0 0" fill="none" stroke-width="1.3" stroke="#9370DB" d="M-234.6875 0 C-92.13041937767017 0, 50.42666124465967 0, 234.6875 0 M-234.6875 0 C-104.99680475599416 0, 24.693890488011675 0, 234.6875 0"/></g></g></g></g></g></svg>