<svg aria-roledescription="class" role="graphics-document document" viewBox="0 0 2446.296875 703" height="703" class="classDiagram" xmlns:xlink="http://www.w3.org/1999/xlink" xmlns="http://www.w3.org/2000/svg" width="2446.296875" id="my-svg" style="background-color: white;"><style>#my-svg{font-family:trebuchet ms,verdana,arial,sans-serif;font-size:16px;fill:#333;}@keyframes edge-animation-frame{from{stroke-dashoffset:0;}}@keyframes dash{to{stroke-dashoffset:0;}}#my-svg .edge-animation-slow{stroke-dasharray:9,5!important;stroke-dashoffset:900;animation:dash 50s linear infinite;stroke-linecap:round;}#my-svg .edge-animation-fast{stroke-dasharray:9,5!important;stroke-dashoffset:900;animation:dash 20s linear infinite;stroke-linecap:round;}#my-svg .error-icon{fill:#552222;}#my-svg .error-text{fill:#552222;stroke:#552222;}#my-svg .edge-thickness-normal{stroke-width:1px;}#my-svg .edge-thickness-thick{stroke-width:3.5px;}#my-svg .edge-pattern-solid{stroke-dasharray:0;}#my-svg .edge-thickness-invisible{stroke-width:0;fill:none;}#my-svg .edge-pattern-dashed{stroke-dasharray:3;}#my-svg .edge-pattern-dotted{stroke-dasharray:2;}#my-svg .marker{fill:#333333;stroke:#333333;}#my-svg .marker.cross{stroke:#333333;}#my-svg svg{font-family:trebuchet ms,verdana,arial,sans-serif;font-size:16px;}#my-svg p{margin:0;}#my-svg g.classGroup text{fill:#9370DB;stroke:none;font-family:trebuchet ms,verdana,arial,sans-serif;font-size:10px;}#my-svg g.classGroup text .title{font-weight:bolder;}#my-svg .nodeLabel,#my-svg .edgeLabel{color:#131300;}#my-svg .edgeLabel .label rect{fill:#ECECFF;}#my-svg .label text{fill:#131300;}#my-svg .labelBkg{background:#ECECFF;}#my-svg .edgeLabel .label span{background:#ECECFF;}#my-svg .classTitle{font-weight:bolder;}#my-svg .node rect,#my-svg .node circle,#my-svg .node ellipse,#my-svg .node polygon,#my-svg .node path{fill:#ECECFF;stroke:#9370DB;stroke-width:1px;}#my-svg .divider{stroke:#9370DB;stroke-width:1;}#my-svg g.clickable{cursor:pointer;}#my-svg g.classGroup rect{fill:#ECECFF;stroke:#9370DB;}#my-svg g.classGroup line{stroke:#9370DB;stroke-width:1;}#my-svg .classLabel .box{stroke:none;stroke-width:0;fill:#ECECFF;opacity:0.5;}#my-svg .classLabel .label{fill:#9370DB;font-size:10px;}#my-svg .relation{stroke:#333333;stroke-width:1;fill:none;}#my-svg .dashed-line{stroke-dasharray:3;}#my-svg .dotted-line{stroke-dasharray:1 2;}#my-svg #compositionStart,#my-svg .composition{fill:#333333!important;stroke:#333333!important;stroke-width:1;}#my-svg #compositionEnd,#my-svg .composition{fill:#333333!important;stroke:#333333!important;stroke-width:1;}#my-svg #dependencyStart,#my-svg .dependency{fill:#333333!important;stroke:#333333!important;stroke-width:1;}#my-svg #dependencyStart,#my-svg .dependency{fill:#333333!important;stroke:#333333!important;stroke-width:1;}#my-svg #extensionStart,#my-svg .extension{fill:transparent!important;stroke:#333333!important;stroke-width:1;}#my-svg #extensionEnd,#my-svg .extension{fill:transparent!important;stroke:#333333!important;stroke-width:1;}#my-svg #aggregationStart,#my-svg .aggregation{fill:transparent!important;stroke:#333333!important;stroke-width:1;}#my-svg #aggregationEnd,#my-svg .aggregation{fill:transparent!important;stroke:#333333!important;stroke-width:1;}#my-svg #lollipopStart,#my-svg .lollipop{fill:#ECECFF!important;stroke:#333333!important;stroke-width:1;}#my-svg #lollipopEnd,#my-svg .lollipop{fill:#ECECFF!important;stroke:#333333!important;stroke-width:1;}#my-svg .edgeTerminals{font-size:11px;line-height:initial;}#my-svg .classTitleText{text-anchor:middle;font-size:18px;fill:#333;}#my-svg .label-icon{display:inline-block;height:1em;overflow:visible;vertical-align:-0.125em;}#my-svg .node .label-icon path{fill:currentColor;stroke:revert;stroke-width:revert;}#my-svg :root{--mermaid-font-family:trebuchet ms,verdana,arial,sans-serif;}</style><g><defs><marker orient="auto" markerHeight="240" markerWidth="190" refY="7" refX="18" class="marker aggregation class" id="my-svg_class-aggregationStart"><path d="M 18,7 L9,13 L1,7 L9,1 Z"/></marker></defs><defs><marker orient="auto" markerHeight="28" markerWidth="20" refY="7" refX="1" class="marker aggregation class" id="my-svg_class-aggregationEnd"><path d="M 18,7 L9,13 L1,7 L9,1 Z"/></marker></defs><defs><marker orient="auto" markerHeight="240" markerWidth="190" refY="7" refX="18" class="marker extension class" id="my-svg_class-extensionStart"><path d="M 1,7 L18,13 V 1 Z"/></marker></defs><defs><marker orient="auto" markerHeight="28" markerWidth="20" refY="7" refX="1" class="marker extension class" id="my-svg_class-extensionEnd"><path d="M 1,1 V 13 L18,7 Z"/></marker></defs><defs><marker orient="auto" markerHeight="240" markerWidth="190" refY="7" refX="18" class="marker composition class" id="my-svg_class-compositionStart"><path d="M 18,7 L9,13 L1,7 L9,1 Z"/></marker></defs><defs><marker orient="auto" markerHeight="28" markerWidth="20" refY="7" refX="1" class="marker composition class" id="my-svg_class-compositionEnd"><path d="M 18,7 L9,13 L1,7 L9,1 Z"/></marker></defs><defs><marker orient="auto" markerHeight="240" markerWidth="190" refY="7" refX="6" class="marker dependency class" id="my-svg_class-dependencyStart"><path d="M 5,7 L9,13 L1,7 L9,1 Z"/></marker></defs><defs><marker orient="auto" markerHeight="28" markerWidth="20" refY="7" refX="13" class="marker dependency class" id="my-svg_class-dependencyEnd"><path d="M 18,7 L9,13 L14,7 L9,1 Z"/></marker></defs><defs><marker orient="auto" markerHeight="240" markerWidth="190" refY="7" refX="13" class="marker lollipop class" id="my-svg_class-lollipopStart"><circle r="6" cy="7" cx="7" fill="transparent" stroke="black"/></marker></defs><defs><marker orient="auto" markerHeight="240" markerWidth="190" refY="7" refX="1" class="marker lollipop class" id="my-svg_class-lollipopEnd"><circle r="6" cy="7" cx="7" fill="transparent" stroke="black"/></marker></defs><g class="root"><g class="clusters"><g data-look="classic" id="Controllers" class="cluster undefined"><rect height="242" width="1653.4453125" y="8" x="784.8515625" style="fill:none !important;stroke:black !important"/><g transform="translate(1572.89453125, 8)" class="cluster-label"><g><rect style="stroke: none" class="background"/><text style="" y="-10.1"><tspan dy="1.1em" y="-0.1em" x="0" class="text-outer-tspan"><tspan font-weight="normal" class="text-inner-tspan" font-style="normal">Controllers</tspan></tspan></text></g></g></g><g data-look="classic" id="Models" class="cluster undefined"><rect height="531" width="692.0859375" y="8" x="72.765625" style="fill:none !important;stroke:black !important"/><g transform="translate(393.01953125, 8)" class="cluster-label"><g><rect style="stroke: none" class="background"/><text style="" y="-10.1"><tspan dy="1.1em" y="-0.1em" x="0" class="text-outer-tspan"><tspan font-weight="normal" class="text-inner-tspan" font-style="normal">Models</tspan></tspan></text></g></g></g></g><g class="edgePaths"><path marker-end="url(#my-svg_class-extensionEnd)" style="" class="edge-thickness-normal edge-pattern-solid relation" id="id_BetterTogether__Api__V1__PostsController_BetterTogether__Api__ApplicationController_1" d="M999.48,201L999.48,209.167C999.48,217.333,999.48,233.667,999.48,247.833C999.48,262,999.48,274,1029.297,293.744C1059.115,313.488,1118.749,340.977,1148.566,354.721L1178.383,368.465"/><path marker-end="url(#my-svg_class-extensionEnd)" style="" class="edge-thickness-normal edge-pattern-solid relation" id="id_BetterTogether__Api__V1__WebhooksController_BetterTogether__Api__ApplicationController_2" d="M1417.996,201L1417.996,209.167C1417.996,217.333,1417.996,233.667,1417.996,247.833C1417.996,262,1417.996,274,1405.102,292.88C1392.207,311.76,1366.418,337.52,1353.523,350.399L1340.629,363.279"/><path marker-end="url(#my-svg_class-dependencyEnd)" style="" class="edge-thickness-normal edge-pattern-dashed relation" id="id_BetterTogether__WebhookEndpointsController_BetterTogether__WebhookEndpoint_3" d="M1810.786,213L1794.686,219.167C1778.586,225.333,1746.387,237.667,1544.685,249.833C1342.984,262,971.78,274,778.295,285.433C584.81,296.865,569.044,307.73,561.161,313.163L553.278,318.595"/><path marker-end="url(#my-svg_class-extensionEnd)" style="" class="edge-thickness-normal edge-pattern-solid relation" id="id_BetterTogether__WebhookEndpointsController_BetterTogether__ResourceController_4" d="M2151.055,213L2159.936,219.167C2168.816,225.333,2186.577,237.667,2195.457,249.833C2204.338,262,2204.338,274,2204.338,292C2204.338,310,2204.338,334,2204.338,346L2204.338,358"/><path marker-end="url(#my-svg_class-dependencyEnd)" style="" class="edge-thickness-normal edge-pattern-solid relation" id="id_BetterTogether__WebhookDelivery_BetterTogether__WebhookEndpoint_5" d="M305.361,225L305.361,229.167C305.361,233.333,305.361,241.667,305.361,251.833C305.361,262,305.361,274,309.456,285.214C313.551,296.427,321.74,306.854,325.835,312.068L329.93,317.281"/><path marker-end="url(#my-svg_class-dependencyEnd)" style="" class="edge-thickness-normal edge-pattern-solid relation" id="id_BetterTogether__WebhookEndpoint_BetterTogether__Person_6" d="M210.109,499.244L193.885,505.87C177.661,512.496,145.214,525.748,128.99,538.374C112.766,551,112.766,563,112.766,574C112.766,585,112.766,595,112.766,600L112.766,605"/><path marker-end="url(#my-svg_class-dependencyEnd)" style="" class="edge-thickness-normal edge-pattern-solid relation" id="id_BetterTogether__WebhookEndpoint_BetterTogether__Community_7" d="M409.035,514L409.035,518.167C409.035,522.333,409.035,530.667,409.035,540.833C409.035,551,409.035,563,409.035,574C409.035,585,409.035,595,409.035,600L409.035,605"/><path marker-end="url(#my-svg_class-dependencyEnd)" style="" class="edge-thickness-normal edge-pattern-solid relation" id="id_BetterTogether__WebhookEndpoint_BetterTogether__OauthApplication_8" d="M607.961,494.18L627.467,501.65C646.973,509.12,685.984,524.06,705.49,537.53C724.996,551,724.996,563,724.996,574C724.996,585,724.996,595,724.996,600L724.996,605"/></g><g class="edgeLabels"><g><rect style="stroke: none" class="background"/></g><g><rect style="stroke: none" class="background"/></g><g><rect style="stroke: none" class="background"/></g><g class="edgeLabel"><g transform="translate(0, 0)" class="label"><text y="-10.1"><tspan dy="1.1em" y="-0.1em" x="0" class="text-outer-tspan"/></text></g></g><g class="edgeLabel"><g transform="translate(0, 0)" class="label"><text y="-10.1"><tspan dy="1.1em" y="-0.1em" x="0" class="text-outer-tspan"/></text></g></g><g transform="translate(1177.37145, 267.35379)" class="edgeLabel"><g transform="translate(-34.9140625, -10.5)" class="label"><g><rect height="21" width="69.828125" y="0" x="-2" style=";display: inline-block" class="background"/><text style=";display: inline-block" y="-10.1"><tspan dy="1.1em" y="-0.1em" x="0" class="text-outer-tspan"><tspan font-weight="normal" class="text-inner-tspan" font-style="normal">manages</tspan></tspan></text></g></g></g><g class="edgeLabel"><g transform="translate(0, 0)" class="label"><text y="-10.1"><tspan dy="1.1em" y="-0.1em" x="0" class="text-outer-tspan"/></text></g></g><g transform="translate(305.361328125, 286)" class="edgeLabel"><g transform="translate(-69.9453125, -11)" class="label"><g><rect height="22" width="139.890625" y="0" x="-3" style=";display: inline-block" class="background"/><text style=";display: inline-block" y="-10.1"><tspan dy="1.1em" y="-0.1em" x="0" class="text-outer-tspan"><tspan font-weight="normal" class="text-inner-tspan" font-style="normal">webhook_endpoint</tspan></tspan></text></g></g></g><g transform="translate(112.765625, 575)" class="edgeLabel"><g transform="translate(-26.4609375, -10.5)" class="label"><g><rect height="21" width="52.921875" y="0" x="-2" style=";display: inline-block" class="background"/><text style=";display: inline-block" y="-10.1"><tspan dy="1.1em" y="-0.1em" x="0" class="text-outer-tspan"><tspan font-weight="normal" class="text-inner-tspan" font-style="normal">person</tspan></tspan></text></g></g></g><g transform="translate(409.03515625, 575)" class="edgeLabel"><g transform="translate(-40.6796875, -10.5)" class="label"><g><rect height="21" width="81.359375" y="0" x="-2" style=";display: inline-block" class="background"/><text style=";display: inline-block" y="-10.1"><tspan dy="1.1em" y="-0.1em" x="0" class="text-outer-tspan"><tspan font-weight="normal" class="text-inner-tspan" font-style="normal">community</tspan></tspan></text></g></g></g><g transform="translate(724.99609375, 575)" class="edgeLabel"><g transform="translate(-64.71875, -11)" class="label"><g><rect height="22" width="129.4375" y="0" x="-2" style=";display: inline-block" class="background"/><text style=";display: inline-block" y="-10.1"><tspan dy="1.1em" y="-0.1em" x="0" class="text-outer-tspan"><tspan font-weight="normal" class="text-inner-tspan" font-style="normal">oauth_application</tspan></tspan></text></g></g></g></g><g class="nodes"><g transform="translate(999.48046875, 129)" id="classId-BetterTogether__Api__V1__PostsController-0" class="node default"><g class="basic label-container"><path style="" fill="#ECECFF" stroke-width="0" stroke="none" d="M-179.62890625 -72 L179.62890625 -72 L179.62890625 72 L-179.62890625 72"/><path style="" stroke-dasharray="0 0" fill="none" stroke-width="1.3" stroke="#9370DB" d="M-179.62890625 -72 C-103.9527876647245 -72, -28.276669079448993 -72, 179.62890625 -72 M-179.62890625 -72 C-62.27843722425446 -72, 55.07203180149108 -72, 179.62890625 -72 M179.62890625 -72 C179.62890625 -25.559687682128086, 179.62890625 20.88062463574383, 179.62890625 72 M179.62890625 -72 C179.62890625 -14.467935582354222, 179.62890625 43.064128835291555, 179.62890625 72 M179.62890625 72 C52.87251607046183 72, -73.88387410907634 72, -179.62890625 72 M179.62890625 72 C38.67833829336806 72, -102.27222966326389 72, -179.62890625 72 M-179.62890625 72 C-179.62890625 32.2885001348985, -179.62890625 -7.422999730203003, -179.62890625 -72 M-179.62890625 72 C-179.62890625 29.889950832438494, -179.62890625 -12.220098335123012, -179.62890625 -72"/></g><g transform="translate(-43.578125, -48)" class="annotation-group text"><g transform="translate(0,-12)" style="" class="label"><foreignObject height="24" width="87.15625"><div style="display: table-cell; white-space: nowrap; line-height: 1.5; max-width: 137px; text-align: center;" xmlns="http://www.w3.org/1999/xhtml"><span style="" class="nodeLabel markdown-node-label"><p>«Controller»</p></span></div></foreignObject></g></g><g transform="translate(-93.3359375, -24)" class="label-group text"><g transform="translate(0,-12)" style="font-weight: bolder" class="label"><foreignObject height="24" width="186.671875"><div style="display: table-cell; white-space: nowrap; line-height: 1.5; max-width: 221px; text-align: center;" xmlns="http://www.w3.org/1999/xhtml"><span style="" class="nodeLabel markdown-node-label"><p>Api::V1::PostsController</p></span></div></foreignObject></g></g><g transform="translate(-167.62890625, 24)" class="members-group text"><g transform="translate(0,-12)" style="" class="label"><foreignObject height="24" width="241.921875"><div style="display: table-cell; white-space: nowrap; line-height: 1.5; max-width: 292px; text-align: center;" xmlns="http://www.w3.org/1999/xhtml"><span style="" class="nodeLabel markdown-node-label"><p>concerns: Api::OauthAuthorization</p></span></div></foreignObject></g></g><g transform="translate(-167.62890625, 72)" class="methods-group text"/><g style="" class="divider"><path style="" stroke-dasharray="0 0" fill="none" stroke-width="1.3" stroke="#9370DB" d="M-179.62890625 0 C-42.6910902067514 0, 94.2467258364972 0, 179.62890625 0 M-179.62890625 0 C-105.21774389951335 0, -30.806581549026703 0, 179.62890625 0"/></g><g style="" class="divider"><path style="" stroke-dasharray="0 0" fill="none" stroke-width="1.3" stroke="#9370DB" d="M-179.62890625 48 C-84.90336735446932 48, 9.822171541061351 48, 179.62890625 48 M-179.62890625 48 C-60.24058431942447 48, 59.14773761115106 48, 179.62890625 48"/></g></g><g transform="translate(1417.99609375, 129)" id="classId-BetterTogether__Api__V1__WebhooksController-1" class="node default"><g class="basic label-container"><path style="" fill="#ECECFF" stroke-width="0" stroke="none" d="M-188.88671875 -72 L188.88671875 -72 L188.88671875 72 L-188.88671875 72"/><path style="" stroke-dasharray="0 0" fill="none" stroke-width="1.3" stroke="#9370DB" d="M-188.88671875 -72 C-48.37532351431841 -72, 92.13607172136318 -72, 188.88671875 -72 M-188.88671875 -72 C-67.04529024448604 -72, 54.79613826102792 -72, 188.88671875 -72 M188.88671875 -72 C188.88671875 -34.886417758148426, 188.88671875 2.227164483703149, 188.88671875 72 M188.88671875 -72 C188.88671875 -29.00238742426579, 188.88671875 13.995225151468418, 188.88671875 72 M188.88671875 72 C74.93563371368893 72, -39.01545132262214 72, -188.88671875 72 M188.88671875 72 C42.719014867781425 72, -103.44868901443715 72, -188.88671875 72 M-188.88671875 72 C-188.88671875 16.46468975418008, -188.88671875 -39.07062049163984, -188.88671875 -72 M-188.88671875 72 C-188.88671875 35.30126343102733, -188.88671875 -1.3974731379453402, -188.88671875 -72"/></g><g transform="translate(-43.578125, -48)" class="annotation-group text"><g transform="translate(0,-12)" style="" class="label"><foreignObject height="24" width="87.15625"><div style="display: table-cell; white-space: nowrap; line-height: 1.5; max-width: 137px; text-align: center;" xmlns="http://www.w3.org/1999/xhtml"><span style="" class="nodeLabel markdown-node-label"><p>«Controller»</p></span></div></foreignObject></g></g><g transform="translate(-111.8515625, -24)" class="label-group text"><g transform="translate(0,-12)" style="font-weight: bolder" class="label"><foreignObject height="24" width="223.703125"><div style="display: table-cell; white-space: nowrap; line-height: 1.5; max-width: 256px; text-align: center;" xmlns="http://www.w3.org/1999/xhtml"><span style="" class="nodeLabel markdown-node-label"><p>Api::V1::WebhooksController</p></span></div></foreignObject></g></g><g transform="translate(-176.88671875, 24)" class="members-group text"><g transform="translate(0,-12)" style="" class="label"><foreignObject height="24" width="241.921875"><div style="display: table-cell; white-space: nowrap; line-height: 1.5; max-width: 292px; text-align: center;" xmlns="http://www.w3.org/1999/xhtml"><span style="" class="nodeLabel markdown-node-label"><p>concerns: Api::OauthAuthorization</p></span></div></foreignObject></g></g><g transform="translate(-176.88671875, 72)" class="methods-group text"/><g style="" class="divider"><path style="" stroke-dasharray="0 0" fill="none" stroke-width="1.3" stroke="#9370DB" d="M-188.88671875 0 C-88.4444796507716 0, 11.997759448456804 0, 188.88671875 0 M-188.88671875 0 C-66.21299881479176 0, 56.46072112041648 0, 188.88671875 0"/></g><g style="" class="divider"><path style="" stroke-dasharray="0 0" fill="none" stroke-width="1.3" stroke="#9370DB" d="M-188.88671875 48 C-56.43922829467235 48, 76.0082621606553 48, 188.88671875 48 M-188.88671875 48 C-95.92296588492269 48, -2.9592130198453788 48, 188.88671875 48"/></g></g><g transform="translate(2030.08984375, 129)" id="classId-BetterTogether__WebhookEndpointsController-2" class="node default"><g class="basic label-container"><path style="" fill="#ECECFF" stroke-width="0" stroke="none" d="M-373.20703125 -84 L373.20703125 -84 L373.20703125 84 L-373.20703125 84"/><path style="" stroke-dasharray="0 0" fill="none" stroke-width="1.3" stroke="#9370DB" d="M-373.20703125 -84 C-79.32870838741576 -84, 214.54961447516848 -84, 373.20703125 -84 M-373.20703125 -84 C-144.03881404998904 -84, 85.12940315002191 -84, 373.20703125 -84 M373.20703125 -84 C373.20703125 -27.823944010421933, 373.20703125 28.352111979156135, 373.20703125 84 M373.20703125 -84 C373.20703125 -38.48705392678796, 373.20703125 7.025892146424084, 373.20703125 84 M373.20703125 84 C94.45071025147928 84, -184.30561074704144 84, -373.20703125 84 M373.20703125 84 C200.25508437999318 84, 27.303137509986357 84, -373.20703125 84 M-373.20703125 84 C-373.20703125 44.87563704761823, -373.20703125 5.751274095236454, -373.20703125 -84 M-373.20703125 84 C-373.20703125 44.903107843625335, -373.20703125 5.8062156872506705, -373.20703125 -84"/></g><g transform="translate(-43.578125, -60)" class="annotation-group text"><g transform="translate(0,-12)" style="" class="label"><foreignObject height="24" width="87.15625"><div style="display: table-cell; white-space: nowrap; line-height: 1.5; max-width: 137px; text-align: center;" xmlns="http://www.w3.org/1999/xhtml"><span style="" class="nodeLabel markdown-node-label"><p>«Controller»</p></span></div></foreignObject></g></g><g transform="translate(-113.1796875, -36)" class="label-group text"><g transform="translate(0,-12)" style="font-weight: bolder" class="label"><foreignObject height="24" width="226.359375"><div style="display: table-cell; white-space: nowrap; line-height: 1.5; max-width: 259px; text-align: center;" xmlns="http://www.w3.org/1999/xhtml"><span style="" class="nodeLabel markdown-node-label"><p>WebhookEndpointsController</p></span></div></foreignObject></g></g><g transform="translate(-361.20703125, 12)" class="members-group text"><g transform="translate(0,-12)" style="" class="label"><foreignObject height="24" width="190.9375"><div style="display: table-cell; white-space: nowrap; line-height: 1.5; max-width: 241px; text-align: center;" xmlns="http://www.w3.org/1999/xhtml"><span style="" class="nodeLabel markdown-node-label"><p>models: WebhookEndpoint</p></span></div></foreignObject></g><g transform="translate(0,12)" style="" class="label"><foreignObject height="24" width="609.234375"><div style="display: table-cell; white-space: nowrap; line-height: 1.5; max-width: 659px; text-align: center;" xmlns="http://www.w3.org/1999/xhtml"><span style="" class="nodeLabel markdown-node-label"><p>concerns: InvitationSessionManagement, InvitationTokenSession, InvitationUserSetup</p></span></div></foreignObject></g></g><g transform="translate(-361.20703125, 84)" class="methods-group text"/><g style="" class="divider"><path style="" stroke-dasharray="0 0" fill="none" stroke-width="1.3" stroke="#9370DB" d="M-373.20703125 -12 C-141.39616044861305 -12, 90.41471035277391 -12, 373.20703125 -12 M-373.20703125 -12 C-95.5464968408462 -12, 182.1140375683076 -12, 373.20703125 -12"/></g><g style="" class="divider"><path style="" stroke-dasharray="0 0" fill="none" stroke-width="1.3" stroke="#9370DB" d="M-373.20703125 60 C-211.2316301939519 60, -49.2562291379038 60, 373.20703125 60 M-373.20703125 60 C-164.19280242992753 60, 44.82142639014495 60, 373.20703125 60"/></g></g><g transform="translate(305.361328125, 129)" id="classId-BetterTogether__WebhookDelivery-3" class="node default"><g class="basic label-container"><path style="" fill="#ECECFF" stroke-width="0" stroke="none" d="M-196.265625 -96 L196.265625 -96 L196.265625 96 L-196.265625 96"/><path style="" stroke-dasharray="0 0" fill="none" stroke-width="1.3" stroke="#9370DB" d="M-196.265625 -96 C-95.68026657612546 -96, 4.905091847749077 -96, 196.265625 -96 M-196.265625 -96 C-64.21895845605093 -96, 67.82770808789815 -96, 196.265625 -96 M196.265625 -96 C196.265625 -35.520206598976486, 196.265625 24.959586802047028, 196.265625 96 M196.265625 -96 C196.265625 -27.89728521862655, 196.265625 40.2054295627469, 196.265625 96 M196.265625 96 C111.17309153095232 96, 26.08055806190464 96, -196.265625 96 M196.265625 96 C104.74816124795166 96, 13.230697495903314 96, -196.265625 96 M-196.265625 96 C-196.265625 21.489661571548936, -196.265625 -53.02067685690213, -196.265625 -96 M-196.265625 96 C-196.265625 56.721432781178194, -196.265625 17.44286556235639, -196.265625 -96"/></g><g transform="translate(-30.6875, -72)" class="annotation-group text"><g transform="translate(0,-12)" style="" class="label"><foreignObject height="24" width="61.375"><div style="display: table-cell; white-space: nowrap; line-height: 1.5; max-width: 111px; text-align: center;" xmlns="http://www.w3.org/1999/xhtml"><span style="" class="nodeLabel markdown-node-label"><p>«Model»</p></span></div></foreignObject></g></g><g transform="translate(-66.984375, -48)" class="label-group text"><g transform="translate(0,-12)" style="font-weight: bolder" class="label"><foreignObject height="24" width="133.96875"><div style="display: table-cell; white-space: nowrap; line-height: 1.5; max-width: 175px; text-align: center;" xmlns="http://www.w3.org/1999/xhtml"><span style="" class="nodeLabel markdown-node-label"><p>WebhookDelivery</p></span></div></foreignObject></g></g><g transform="translate(-184.265625, 0)" class="members-group text"><g transform="translate(0,-12)" style="" class="label"><foreignObject height="24" width="301.546875"><div style="display: table-cell; white-space: nowrap; line-height: 1.5; max-width: 352px; text-align: center;" xmlns="http://www.w3.org/1999/xhtml"><span style="" class="nodeLabel markdown-node-label"><p>table: better_together_webhook_deliveries</p></span></div></foreignObject></g><g transform="translate(0,12)" style="" class="label"><foreignObject height="24" width="268.625"><div style="display: table-cell; white-space: nowrap; line-height: 1.5; max-width: 319px; text-align: center;" xmlns="http://www.w3.org/1999/xhtml"><span style="" class="nodeLabel markdown-node-label"><p>concerns: BetterTogetherId, Seedable</p></span></div></foreignObject></g><g transform="translate(0,36)" style="" class="label"><foreignObject height="24" width="172.53125"><div style="display: table-cell; white-space: nowrap; line-height: 1.5; max-width: 224px; text-align: center;" xmlns="http://www.w3.org/1999/xhtml"><span style="" class="nodeLabel markdown-node-label"><p>weak refs: owner: seeds</p></span></div></foreignObject></g></g><g transform="translate(-184.265625, 96)" class="methods-group text"/><g style="" class="divider"><path style="" stroke-dasharray="0 0" fill="none" stroke-width="1.3" stroke="#9370DB" d="M-196.265625 -24 C-59.078544170664884 -24, 78.10853665867023 -24, 196.265625 -24 M-196.265625 -24 C-103.49046910245426 -24, -10.715313204908512 -24, 196.265625 -24"/></g><g style="" class="divider"><path style="" stroke-dasharray="0 0" fill="none" stroke-width="1.3" stroke="#9370DB" d="M-196.265625 72 C-66.78120280047321 72, 62.70321939905358 72, 196.265625 72 M-196.265625 72 C-91.80737372663923 72, 12.650877546721546 72, 196.265625 72"/></g></g><g transform="translate(409.03515625, 418)" id="classId-BetterTogether__WebhookEndpoint-4" class="node default"><g class="basic label-container"><path style="" fill="#ECECFF" stroke-width="0" stroke="none" d="M-198.92578125 -96 L198.92578125 -96 L198.92578125 96 L-198.92578125 96"/><path style="" stroke-dasharray="0 0" fill="none" stroke-width="1.3" stroke="#9370DB" d="M-198.92578125 -96 C-73.99501552813753 -96, 50.93575019372494 -96, 198.92578125 -96 M-198.92578125 -96 C-87.99868969606726 -96, 22.92840185786548 -96, 198.92578125 -96 M198.92578125 -96 C198.92578125 -38.33817790475267, 198.92578125 19.32364419049466, 198.92578125 96 M198.92578125 -96 C198.92578125 -55.23947763322118, 198.92578125 -14.478955266442355, 198.92578125 96 M198.92578125 96 C90.81253147743628 96, -17.30071829512744 96, -198.92578125 96 M198.92578125 96 C44.307857040632854 96, -110.31006716873429 96, -198.92578125 96 M-198.92578125 96 C-198.92578125 43.665954976272005, -198.92578125 -8.66809004745599, -198.92578125 -96 M-198.92578125 96 C-198.92578125 22.289711275672317, -198.92578125 -51.420577448655365, -198.92578125 -96"/></g><g transform="translate(-30.6875, -72)" class="annotation-group text"><g transform="translate(0,-12)" style="" class="label"><foreignObject height="24" width="61.375"><div style="display: table-cell; white-space: nowrap; line-height: 1.5; max-width: 111px; text-align: center;" xmlns="http://www.w3.org/1999/xhtml"><span style="" class="nodeLabel markdown-node-label"><p>«Model»</p></span></div></foreignObject></g></g><g transform="translate(-70.5078125, -48)" class="label-group text"><g transform="translate(0,-12)" style="font-weight: bolder" class="label"><foreignObject height="24" width="141.015625"><div style="display: table-cell; white-space: nowrap; line-height: 1.5; max-width: 181px; text-align: center;" xmlns="http://www.w3.org/1999/xhtml"><span style="" class="nodeLabel markdown-node-label"><p>WebhookEndpoint</p></span></div></foreignObject></g></g><g transform="translate(-186.92578125, 0)" class="members-group text"><g transform="translate(0,-12)" style="" class="label"><foreignObject height="24" width="303.34375"><div style="display: table-cell; white-space: nowrap; line-height: 1.5; max-width: 353px; text-align: center;" xmlns="http://www.w3.org/1999/xhtml"><span style="" class="nodeLabel markdown-node-label"><p>table: better_together_webhook_endpoints</p></span></div></foreignObject></g><g transform="translate(0,12)" style="" class="label"><foreignObject height="24" width="268.625"><div style="display: table-cell; white-space: nowrap; line-height: 1.5; max-width: 319px; text-align: center;" xmlns="http://www.w3.org/1999/xhtml"><span style="" class="nodeLabel markdown-node-label"><p>concerns: BetterTogetherId, Seedable</p></span></div></foreignObject></g><g transform="translate(0,36)" style="" class="label"><foreignObject height="24" width="172.53125"><div style="display: table-cell; white-space: nowrap; line-height: 1.5; max-width: 224px; text-align: center;" xmlns="http://www.w3.org/1999/xhtml"><span style="" class="nodeLabel markdown-node-label"><p>weak refs: owner: seeds</p></span></div></foreignObject></g></g><g transform="translate(-186.92578125, 96)" class="methods-group text"/><g style="" class="divider"><path style="" stroke-dasharray="0 0" fill="none" stroke-width="1.3" stroke="#9370DB" d="M-198.92578125 -24 C-108.23138933006203 -24, -17.53699741012406 -24, 198.92578125 -24 M-198.92578125 -24 C-71.35438555472103 -24, 56.21701014055793 -24, 198.92578125 -24"/></g><g style="" class="divider"><path style="" stroke-dasharray="0 0" fill="none" stroke-width="1.3" stroke="#9370DB" d="M-198.92578125 72 C-90.15728797724356 72, 18.61120529551289 72, 198.92578125 72 M-198.92578125 72 C-45.60358571757712 72, 107.71860981484576 72, 198.92578125 72"/></g></g><g transform="translate(1285.845703125, 418)" id="classId-BetterTogether__Api__ApplicationController-5" class="node default"><g class="basic label-container"><path style="" fill="#ECECFF" stroke-width="0" stroke="none" d="M-181.2109375 -42 L181.2109375 -42 L181.2109375 42 L-181.2109375 42"/><path style="" stroke-dasharray="0 0" fill="none" stroke-width="1.3" stroke="#9370DB" d="M-181.2109375 -42 C-101.03952742539644 -42, -20.868117350792886 -42, 181.2109375 -42 M-181.2109375 -42 C-101.71546452040455 -42, -22.219991540809104 -42, 181.2109375 -42 M181.2109375 -42 C181.2109375 -15.957766364152949, 181.2109375 10.084467271694102, 181.2109375 42 M181.2109375 -42 C181.2109375 -13.735744951257729, 181.2109375 14.528510097484542, 181.2109375 42 M181.2109375 42 C56.42192038329199 42, -68.36709673341602 42, -181.2109375 42 M181.2109375 42 C37.121568616169355 42, -106.96780026766129 42, -181.2109375 42 M-181.2109375 42 C-181.2109375 18.62365377635005, -181.2109375 -4.7526924472999, -181.2109375 -42 M-181.2109375 42 C-181.2109375 24.58957064346186, -181.2109375 7.179141286923723, -181.2109375 -42"/></g><g transform="translate(0, -18)" class="annotation-group text"/><g transform="translate(-169.2109375, -18)" class="label-group text"><g transform="translate(0,-12)" style="font-weight: bolder" class="label"><foreignObject height="24" width="338.421875"><div style="display: table-cell; white-space: nowrap; line-height: 1.5; max-width: 362px; text-align: center;" xmlns="http://www.w3.org/1999/xhtml"><span style="" class="nodeLabel markdown-node-label"><p>BetterTogether__Api__ApplicationController</p></span></div></foreignObject></g></g><g transform="translate(-169.2109375, 30)" class="members-group text"/><g transform="translate(-169.2109375, 60)" class="methods-group text"/><g style="" class="divider"><path style="" stroke-dasharray="0 0" fill="none" stroke-width="1.3" stroke="#9370DB" d="M-181.2109375 6 C-105.25725941891912 6, -29.30358133783824 6, 181.2109375 6 M-181.2109375 6 C-87.15795367340976 6, 6.895030153180471 6, 181.2109375 6"/></g><g style="" class="divider"><path style="" stroke-dasharray="0 0" fill="none" stroke-width="1.3" stroke="#9370DB" d="M-181.2109375 24 C-89.6850540310641 24, 1.840829437871804 24, 181.2109375 24 M-181.2109375 24 C-79.19481303479886 24, 22.82131143040229 24, 181.2109375 24"/></g></g><g transform="translate(2204.337890625, 418)" id="classId-BetterTogether__ResourceController-6" class="node default"><g class="basic label-container"><path style="" fill="#ECECFF" stroke-width="0" stroke="none" d="M-152.328125 -42 L152.328125 -42 L152.328125 42 L-152.328125 42"/><path style="" stroke-dasharray="0 0" fill="none" stroke-width="1.3" stroke="#9370DB" d="M-152.328125 -42 C-58.97661192303387 -42, 34.37490115393226 -42, 152.328125 -42 M-152.328125 -42 C-54.46489147265419 -42, 43.398342054691625 -42, 152.328125 -42 M152.328125 -42 C152.328125 -17.487200164310025, 152.328125 7.0255996713799505, 152.328125 42 M152.328125 -42 C152.328125 -14.648112745420963, 152.328125 12.703774509158073, 152.328125 42 M152.328125 42 C37.01961466724981 42, -78.28889566550038 42, -152.328125 42 M152.328125 42 C66.48731269975086 42, -19.35349960049828 42, -152.328125 42 M-152.328125 42 C-152.328125 16.658618060706853, -152.328125 -8.682763878586293, -152.328125 -42 M-152.328125 42 C-152.328125 14.154833986075268, -152.328125 -13.690332027849465, -152.328125 -42"/></g><g transform="translate(0, -18)" class="annotation-group text"/><g transform="translate(-140.328125, -18)" class="label-group text"><g transform="translate(0,-12)" style="font-weight: bolder" class="label"><foreignObject height="24" width="280.65625"><div style="display: table-cell; white-space: nowrap; line-height: 1.5; max-width: 311px; text-align: center;" xmlns="http://www.w3.org/1999/xhtml"><span style="" class="nodeLabel markdown-node-label"><p>BetterTogether__ResourceController</p></span></div></foreignObject></g></g><g transform="translate(-140.328125, 30)" class="members-group text"/><g transform="translate(-140.328125, 60)" class="methods-group text"/><g style="" class="divider"><path style="" stroke-dasharray="0 0" fill="none" stroke-width="1.3" stroke="#9370DB" d="M-152.328125 6 C-66.07374711473472 6, 20.18063077053057 6, 152.328125 6 M-152.328125 6 C-78.9577407414216 6, -5.587356482843205 6, 152.328125 6"/></g><g style="" class="divider"><path style="" stroke-dasharray="0 0" fill="none" stroke-width="1.3" stroke="#9370DB" d="M-152.328125 24 C-36.272775433934996 24, 79.78257413213001 24, 152.328125 24 M-152.328125 24 C-49.2550005407562 24, 53.8181239184876 24, 152.328125 24"/></g></g><g transform="translate(112.765625, 653)" id="classId-BetterTogether__Person-7" class="node default"><g class="basic label-container"><path style="" fill="#ECECFF" stroke-width="0" stroke="none" d="M-104.765625 -42 L104.765625 -42 L104.765625 42 L-104.765625 42"/><path style="" stroke-dasharray="0 0" fill="none" stroke-width="1.3" stroke="#9370DB" d="M-104.765625 -42 C-35.923565626197856 -42, 32.91849374760429 -42, 104.765625 -42 M-104.765625 -42 C-45.862923077326506 -42, 13.039778845346987 -42, 104.765625 -42 M104.765625 -42 C104.765625 -18.65948303197056, 104.765625 4.681033936058881, 104.765625 42 M104.765625 -42 C104.765625 -23.751074340260107, 104.765625 -5.502148680520214, 104.765625 42 M104.765625 42 C35.9012299916548 42, -32.9631650166904 42, -104.765625 42 M104.765625 42 C25.537356504378423 42, -53.690911991243155 42, -104.765625 42 M-104.765625 42 C-104.765625 12.569044288067285, -104.765625 -16.86191142386543, -104.765625 -42 M-104.765625 42 C-104.765625 24.236192350794745, -104.765625 6.47238470158949, -104.765625 -42"/></g><g transform="translate(0, -18)" class="annotation-group text"/><g transform="translate(-92.765625, -18)" class="label-group text"><g transform="translate(0,-12)" style="font-weight: bolder" class="label"><foreignObject height="24" width="185.53125"><div style="display: table-cell; white-space: nowrap; line-height: 1.5; max-width: 223px; text-align: center;" xmlns="http://www.w3.org/1999/xhtml"><span style="" class="nodeLabel markdown-node-label"><p>BetterTogether__Person</p></span></div></foreignObject></g></g><g transform="translate(-92.765625, 30)" class="members-group text"/><g transform="translate(-92.765625, 60)" class="methods-group text"/><g style="" class="divider"><path style="" stroke-dasharray="0 0" fill="none" stroke-width="1.3" stroke="#9370DB" d="M-104.765625 6 C-42.51026396770169 6, 19.74509706459662 6, 104.765625 6 M-104.765625 6 C-43.608860648249404 6, 17.54790370350119 6, 104.765625 6"/></g><g style="" class="divider"><path style="" stroke-dasharray="0 0" fill="none" stroke-width="1.3" stroke="#9370DB" d="M-104.765625 24 C-37.94597364754462 24, 28.87367770491076 24, 104.765625 24 M-104.765625 24 C-48.650755705301606 24, 7.4641135893967885 24, 104.765625 24"/></g></g><g transform="translate(409.03515625, 653)" id="classId-BetterTogether__Community-8" class="node default"><g class="basic label-container"><path style="" fill="#ECECFF" stroke-width="0" stroke="none" d="M-121.6484375 -42 L121.6484375 -42 L121.6484375 42 L-121.6484375 42"/><path style="" stroke-dasharray="0 0" fill="none" stroke-width="1.3" stroke="#9370DB" d="M-121.6484375 -42 C-57.34655656389437 -42, 6.955324372211265 -42, 121.6484375 -42 M-121.6484375 -42 C-51.269270879626376 -42, 19.10989574074725 -42, 121.6484375 -42 M121.6484375 -42 C121.6484375 -16.251384641588945, 121.6484375 9.49723071682211, 121.6484375 42 M121.6484375 -42 C121.6484375 -11.353031605615612, 121.6484375 19.293936788768775, 121.6484375 42 M121.6484375 42 C57.133734678678294 42, -7.380968142643411 42, -121.6484375 42 M121.6484375 42 C43.42947042283683 42, -34.78949665432634 42, -121.6484375 42 M-121.6484375 42 C-121.6484375 17.700066551748588, -121.6484375 -6.599866896502824, -121.6484375 -42 M-121.6484375 42 C-121.6484375 14.515008157262919, -121.6484375 -12.969983685474162, -121.6484375 -42"/></g><g transform="translate(0, -18)" class="annotation-group text"/><g transform="translate(-109.6484375, -18)" class="label-group text"><g transform="translate(0,-12)" style="font-weight: bolder" class="label"><foreignObject height="24" width="219.296875"><div style="display: table-cell; white-space: nowrap; line-height: 1.5; max-width: 254px; text-align: center;" xmlns="http://www.w3.org/1999/xhtml"><span style="" class="nodeLabel markdown-node-label"><p>BetterTogether__Community</p></span></div></foreignObject></g></g><g transform="translate(-109.6484375, 30)" class="members-group text"/><g transform="translate(-109.6484375, 60)" class="methods-group text"/><g style="" class="divider"><path style="" stroke-dasharray="0 0" fill="none" stroke-width="1.3" stroke="#9370DB" d="M-121.6484375 6 C-32.53269025656839 6, 56.58305698686323 6, 121.6484375 6 M-121.6484375 6 C-29.548941919437965 6, 62.55055366112407 6, 121.6484375 6"/></g><g style="" class="divider"><path style="" stroke-dasharray="0 0" fill="none" stroke-width="1.3" stroke="#9370DB" d="M-121.6484375 24 C-32.06161058944613 24, 57.525216321107735 24, 121.6484375 24 M-121.6484375 24 C-54.79735287982744 24, 12.053731740345114 24, 121.6484375 24"/></g></g><g transform="translate(724.99609375, 653)" id="classId-BetterTogether__OauthApplication-9" class="node default"><g class="basic label-container"><path style="" fill="#ECECFF" stroke-width="0" stroke="none" d="M-144.3125 -42 L144.3125 -42 L144.3125 42 L-144.3125 42"/><path style="" stroke-dasharray="0 0" fill="none" stroke-width="1.3" stroke="#9370DB" d="M-144.3125 -42 C-53.816193417408755 -42, 36.68011316518249 -42, 144.3125 -42 M-144.3125 -42 C-29.410850817075755 -42, 85.49079836584849 -42, 144.3125 -42 M144.3125 -42 C144.3125 -12.99245791801885, 144.3125 16.0150841639623, 144.3125 42 M144.3125 -42 C144.3125 -11.298355676846615, 144.3125 19.40328864630677, 144.3125 42 M144.3125 42 C37.59525496322043 42, -69.12199007355915 42, -144.3125 42 M144.3125 42 C84.69692726666185 42, 25.081354533323704 42, -144.3125 42 M-144.3125 42 C-144.3125 17.104319980039584, -144.3125 -7.791360039920832, -144.3125 -42 M-144.3125 42 C-144.3125 9.36218919431203, -144.3125 -23.27562161137594, -144.3125 -42"/></g><g transform="translate(0, -18)" class="annotation-group text"/><g transform="translate(-132.3125, -18)" class="label-group text"><g transform="translate(0,-12)" style="font-weight: bolder" class="label"><foreignObject height="24" width="264.625"><div style="display: table-cell; white-space: nowrap; line-height: 1.5; max-width: 295px; text-align: center;" xmlns="http://www.w3.org/1999/xhtml"><span style="" class="nodeLabel markdown-node-label"><p>BetterTogether__OauthApplication</p></span></div></foreignObject></g></g><g transform="translate(-132.3125, 30)" class="members-group text"/><g transform="translate(-132.3125, 60)" class="methods-group text"/><g style="" class="divider"><path style="" stroke-dasharray="0 0" fill="none" stroke-width="1.3" stroke="#9370DB" d="M-144.3125 6 C-39.42731149333072 6, 65.45787701333856 6, 144.3125 6 M-144.3125 6 C-70.95556027950684 6, 2.401379440986318 6, 144.3125 6"/></g><g style="" class="divider"><path style="" stroke-dasharray="0 0" fill="none" stroke-width="1.3" stroke="#9370DB" d="M-144.3125 24 C-59.13094377473014 24, 26.050612450539717 24, 144.3125 24 M-144.3125 24 C-52.67947254950893 24, 38.95355490098214 24, 144.3125 24"/></g></g></g></g></g></svg>