<svg aria-roledescription="flowchart-v2" role="graphics-document document" viewBox="0 0 2686.28125 855.75" height="855.75" class="flowchart" xmlns:xlink="http://www.w3.org/1999/xlink" xmlns="http://www.w3.org/2000/svg" width="2686.28125" id="my-svg" style="background-color: white;"><style>#my-svg{font-family:trebuchet ms,verdana,arial,sans-serif;font-size:16px;fill:#333;}@keyframes edge-animation-frame{from{stroke-dashoffset:0;}}@keyframes dash{to{stroke-dashoffset:0;}}#my-svg .edge-animation-slow{stroke-dasharray:9,5!important;stroke-dashoffset:900;animation:dash 50s linear infinite;stroke-linecap:round;}#my-svg .edge-animation-fast{stroke-dasharray:9,5!important;stroke-dashoffset:900;animation:dash 20s linear infinite;stroke-linecap:round;}#my-svg .error-icon{fill:#552222;}#my-svg .error-text{fill:#552222;stroke:#552222;}#my-svg .edge-thickness-normal{stroke-width:1px;}#my-svg .edge-thickness-thick{stroke-width:3.5px;}#my-svg .edge-pattern-solid{stroke-dasharray:0;}#my-svg .edge-thickness-invisible{stroke-width:0;fill:none;}#my-svg .edge-pattern-dashed{stroke-dasharray:3;}#my-svg .edge-pattern-dotted{stroke-dasharray:2;}#my-svg .marker{fill:#333333;stroke:#333333;}#my-svg .marker.cross{stroke:#333333;}#my-svg svg{font-family:trebuchet ms,verdana,arial,sans-serif;font-size:16px;}#my-svg p{margin:0;}#my-svg .label{font-family:trebuchet ms,verdana,arial,sans-serif;color:#333;}#my-svg .cluster-label text{fill:#333;}#my-svg .cluster-label span{color:#333;}#my-svg .cluster-label span p{background-color:transparent;}#my-svg .label text,#my-svg span{fill:#333;color:#333;}#my-svg .node rect,#my-svg .node circle,#my-svg .node ellipse,#my-svg .node polygon,#my-svg .node path{fill:#ECECFF;stroke:#9370DB;stroke-width:1px;}#my-svg .rough-node .label text,#my-svg .node .label text,#my-svg .image-shape .label,#my-svg .icon-shape .label{text-anchor:middle;}#my-svg .node .katex path{fill:#000;stroke:#000;stroke-width:1px;}#my-svg .rough-node .label,#my-svg .node .label,#my-svg .image-shape .label,#my-svg .icon-shape .label{text-align:center;}#my-svg .node.clickable{cursor:pointer;}#my-svg .root .anchor path{fill:#333333!important;stroke-width:0;stroke:#333333;}#my-svg .arrowheadPath{fill:#333333;}#my-svg .edgePath .path{stroke:#333333;stroke-width:2.0px;}#my-svg .flowchart-link{stroke:#333333;fill:none;}#my-svg .edgeLabel{background-color:rgba(232,232,232, 0.8);text-align:center;}#my-svg .edgeLabel p{background-color:rgba(232,232,232, 0.8);}#my-svg .edgeLabel rect{opacity:0.5;background-color:rgba(232,232,232, 0.8);fill:rgba(232,232,232, 0.8);}#my-svg .labelBkg{background-color:rgba(232, 232, 232, 0.5);}#my-svg .cluster rect{fill:#ffffde;stroke:#aaaa33;stroke-width:1px;}#my-svg .cluster text{fill:#333;}#my-svg .cluster span{color:#333;}#my-svg div.mermaidTooltip{position:absolute;text-align:center;max-width:200px;padding:2px;font-family:trebuchet ms,verdana,arial,sans-serif;font-size:12px;background:hsl(80, 100%, 96.2745098039%);border:1px solid #aaaa33;border-radius:2px;pointer-events:none;z-index:100;}#my-svg .flowchartTitleText{text-anchor:middle;font-size:18px;fill:#333;}#my-svg rect.text{fill:none;stroke-width:0;}#my-svg .icon-shape,#my-svg .image-shape{background-color:rgba(232,232,232, 0.8);text-align:center;}#my-svg .icon-shape p,#my-svg .image-shape p{background-color:rgba(232,232,232, 0.8);padding:2px;}#my-svg .icon-shape rect,#my-svg .image-shape rect{opacity:0.5;background-color:rgba(232,232,232, 0.8);fill:rgba(232,232,232, 0.8);}#my-svg .label-icon{display:inline-block;height:1em;overflow:visible;vertical-align:-0.125em;}#my-svg .node .label-icon path{fill:currentColor;stroke:revert;stroke-width:revert;}#my-svg :root{--mermaid-font-family:trebuchet ms,verdana,arial,sans-serif;}</style><g><marker orient="auto" markerHeight="8" markerWidth="8" markerUnits="userSpaceOnUse" refY="5" refX="5" viewBox="0 0 10 10" class="marker flowchart-v2" id="my-svg_flowchart-v2-pointEnd"><path style="stroke-width: 1; stroke-dasharray: 1, 0;" class="arrowMarkerPath" d="M 0 0 L 10 5 L 0 10 z"/></marker><marker orient="auto" markerHeight="8" markerWidth="8" markerUnits="userSpaceOnUse" refY="5" refX="4.5" viewBox="0 0 10 10" class="marker flowchart-v2" id="my-svg_flowchart-v2-pointStart"><path style="stroke-width: 1; stroke-dasharray: 1, 0;" class="arrowMarkerPath" d="M 0 5 L 10 10 L 10 0 z"/></marker><marker orient="auto" markerHeight="11" markerWidth="11" markerUnits="userSpaceOnUse" refY="5" refX="11" viewBox="0 0 10 10" class="marker flowchart-v2" id="my-svg_flowchart-v2-circleEnd"><circle style="stroke-width: 1; stroke-dasharray: 1, 0;" class="arrowMarkerPath" r="5" cy="5" cx="5"/></marker><marker orient="auto" markerHeight="11" markerWidth="11" markerUnits="userSpaceOnUse" refY="5" refX="-1" viewBox="0 0 10 10" class="marker flowchart-v2" id="my-svg_flowchart-v2-circleStart"><circle style="stroke-width: 1; stroke-dasharray: 1, 0;" class="arrowMarkerPath" r="5" cy="5" cx="5"/></marker><marker orient="auto" markerHeight="11" markerWidth="11" markerUnits="userSpaceOnUse" refY="5.2" refX="12" viewBox="0 0 11 11" class="marker cross flowchart-v2" id="my-svg_flowchart-v2-crossEnd"><path style="stroke-width: 2; stroke-dasharray: 1, 0;" class="arrowMarkerPath" d="M 1,1 l 9,9 M 10,1 l -9,9"/></marker><marker orient="auto" markerHeight="11" markerWidth="11" markerUnits="userSpaceOnUse" refY="5.2" refX="-1" viewBox="0 0 11 11" class="marker cross flowchart-v2" id="my-svg_flowchart-v2-crossStart"><path style="stroke-width: 2; stroke-dasharray: 1, 0;" class="arrowMarkerPath" d="M 1,1 l 9,9 M 10,1 l -9,9"/></marker><g class="root"><g class="clusters"/><g class="edgePaths"><path marker-end="url(#my-svg_flowchart-v2-pointEnd)" style="" class="edge-thickness-normal edge-pattern-solid edge-thickness-normal edge-pattern-solid flowchart-link" id="L_content_publishing_identity_access_0" d="M1452.391,208.329L1434.182,206.274C1415.974,204.219,1379.557,200.11,1321.474,198.055C1263.391,196,1183.641,196,1103.15,196C1022.659,196,941.427,196,865.823,239.647C790.219,283.293,720.242,370.586,685.254,414.233L650.265,457.879"/><path marker-end="url(#my-svg_flowchart-v2-pointEnd)" style="" class="edge-thickness-normal edge-pattern-solid edge-thickness-normal edge-pattern-solid flowchart-link" id="L_content_publishing_platform_network_0" d="M1712.391,223L1730.599,223C1748.807,223,1785.224,223,1843.307,223C1901.391,223,1981.141,223,2061.632,223C2142.122,223,2223.354,223,2293.012,240.161C2362.67,257.322,2420.753,291.643,2449.795,308.804L2478.837,325.965"/><path marker-end="url(#my-svg_flowchart-v2-pointEnd)" style="" class="edge-thickness-normal edge-pattern-solid edge-thickness-normal edge-pattern-solid flowchart-link" id="L_conversations_safety_identity_access_0" d="M268,500L286.208,500C304.417,500,340.833,500,376.583,500C412.333,500,447.417,500,464.958,500L482.5,500"/><path marker-end="url(#my-svg_flowchart-v2-pointEnd)" style="" class="edge-thickness-normal edge-pattern-solid edge-thickness-normal edge-pattern-solid flowchart-link" id="L_events_calendar_identity_access_0" d="M268,47L286.208,47C304.417,47,340.833,47,395.172,115.41C449.511,183.821,521.773,320.642,557.904,389.052L594.034,457.463"/><path marker-end="url(#my-svg_flowchart-v2-pointEnd)" style="" class="edge-thickness-normal edge-pattern-solid edge-thickness-normal edge-pattern-solid flowchart-link" id="L_events_calendar_platform_network_0" d="M268,63.573L286.208,65.894C304.417,68.215,340.833,72.858,398.917,75.179C457,77.5,536.75,77.5,617.241,77.5C697.732,77.5,778.964,77.5,860.195,77.5C941.427,77.5,1022.659,77.5,1103.15,77.5C1183.641,77.5,1263.391,77.5,1343.141,77.5C1422.891,77.5,1502.641,77.5,1582.391,77.5C1662.141,77.5,1741.891,77.5,1821.641,77.5C1901.391,77.5,1981.141,77.5,2061.632,77.5C2142.122,77.5,2223.354,77.5,2298.685,118.74C2374.016,159.98,2443.446,242.46,2478.161,283.7L2512.876,324.94"/><path marker-end="url(#my-svg_flowchart-v2-pointEnd)" style="" class="edge-thickness-normal edge-pattern-solid edge-thickness-normal edge-pattern-solid flowchart-link" id="L_exchange_governance_content_publishing_0" d="M1233.891,269.815L1252.099,266.637C1270.307,263.46,1306.724,257.105,1342.478,251.892C1378.233,246.68,1413.325,242.609,1430.871,240.574L1448.417,238.539"/><path marker-end="url(#my-svg_flowchart-v2-pointEnd)" style="" class="edge-thickness-normal edge-pattern-solid edge-thickness-normal edge-pattern-solid flowchart-link" id="L_exchange_governance_geography_and_places_0" d="M1233.891,292.5L1252.099,292.5C1270.307,292.5,1306.724,292.5,1351.825,306.607C1396.927,320.714,1450.713,348.928,1477.607,363.035L1504.5,377.142"/><path marker-end="url(#my-svg_flowchart-v2-pointEnd)" style="" class="edge-thickness-normal edge-pattern-solid edge-thickness-normal edge-pattern-solid flowchart-link" id="L_exchange_governance_identity_access_0" d="M1064.653,343.5L1030.577,387.792C996.501,432.083,928.348,520.667,868.763,553.523C809.178,586.379,758.161,563.508,732.653,552.072L707.144,540.636"/><path marker-end="url(#my-svg_flowchart-v2-pointEnd)" style="" class="edge-thickness-normal edge-pattern-solid edge-thickness-normal edge-pattern-solid flowchart-link" id="L_exchange_governance_platform_network_0" d="M1233.891,309.344L1252.099,311.704C1270.307,314.063,1306.724,318.781,1364.807,321.141C1422.891,323.5,1502.641,323.5,1582.391,323.5C1662.141,323.5,1741.891,323.5,1821.641,323.5C1901.391,323.5,1981.141,323.5,2061.632,323.5C2142.122,323.5,2223.354,323.5,2282.263,326.765C2341.172,330.031,2377.758,336.561,2396.051,339.827L2414.343,343.092"/><path marker-end="url(#my-svg_flowchart-v2-pointEnd)" style="" class="edge-thickness-normal edge-pattern-solid edge-thickness-normal edge-pattern-solid flowchart-link" id="L_geography_and_places_identity_access_0" d="M1510.753,457L1482.818,472.208C1454.882,487.417,1399.012,517.833,1331.201,533.042C1263.391,548.25,1183.641,548.25,1103.15,548.25C1022.659,548.25,941.427,548.25,882.516,544.628C823.605,541.005,787.014,533.761,768.719,530.138L750.424,526.516"/><path marker-end="url(#my-svg_flowchart-v2-pointEnd)" style="" class="edge-thickness-normal edge-pattern-solid edge-thickness-normal edge-pattern-solid flowchart-link" id="L_geography_and_places_platform_network_0" d="M1712.391,383.225L1730.599,378.354C1748.807,373.483,1785.224,363.742,1843.307,358.871C1901.391,354,1981.141,354,2061.632,354C2142.122,354,2223.354,354,2282.254,354.975C2341.153,355.951,2377.72,357.901,2396.003,358.877L2414.287,359.852"/><path marker-end="url(#my-svg_flowchart-v2-pointEnd)" style="" class="edge-thickness-normal edge-pattern-solid edge-thickness-normal edge-pattern-solid flowchart-link" id="L_geography_and_places_shared_supporting_0" d="M1712.391,418L1730.599,418C1748.807,418,1785.224,418,1820.976,419.503C1856.729,421.007,1891.817,424.013,1909.361,425.516L1926.905,427.02"/><path marker-end="url(#my-svg_flowchart-v2-pointEnd)" style="" class="edge-thickness-normal edge-pattern-solid edge-thickness-normal edge-pattern-solid flowchart-link" id="L_identity_access_exchange_governance_0" d="M640.745,461L677.32,402.167C713.895,343.333,787.045,225.667,852.478,188.681C917.91,151.695,975.624,195.39,1004.481,217.238L1033.339,239.086"/><path marker-end="url(#my-svg_flowchart-v2-pointEnd)" style="" class="edge-thickness-normal edge-pattern-solid edge-thickness-normal edge-pattern-solid flowchart-link" id="L_identity_access_platform_network_0" d="M642.791,461L679.025,407.25C715.259,353.5,787.727,246,864.577,192.25C941.427,138.5,1022.659,138.5,1103.15,138.5C1183.641,138.5,1263.391,138.5,1343.141,138.5C1422.891,138.5,1502.641,138.5,1582.391,138.5C1662.141,138.5,1741.891,138.5,1821.641,138.5C1901.391,138.5,1981.141,138.5,2061.632,138.5C2142.122,138.5,2223.354,138.5,2297.167,169.627C2370.981,200.755,2437.375,263.009,2470.572,294.137L2503.77,325.264"/><path marker-end="url(#my-svg_flowchart-v2-pointEnd)" style="" class="edge-thickness-normal edge-pattern-solid edge-thickness-normal edge-pattern-solid flowchart-link" id="L_integrations_webhooks_identity_access_0" d="M268,790.547L286.208,787.998C304.417,785.448,340.833,780.349,392.829,738.928C444.826,697.506,512.401,619.763,546.189,580.891L579.977,542.019"/><path marker-end="url(#my-svg_flowchart-v2-pointEnd)" style="" class="edge-thickness-normal edge-pattern-solid edge-thickness-normal edge-pattern-solid flowchart-link" id="L_integrations_webhooks_platform_network_0" d="M268,817.036L286.208,818.197C304.417,819.358,340.833,821.679,398.917,822.839C457,824,536.75,824,617.241,824C697.732,824,778.964,824,860.195,824C941.427,824,1022.659,824,1103.15,824C1183.641,824,1263.391,824,1343.141,824C1422.891,824,1502.641,824,1582.391,824C1662.141,824,1741.891,824,1821.641,824C1901.391,824,1981.141,824,2061.632,824C2142.122,824,2223.354,824,2300.806,754.922C2378.258,685.843,2451.93,547.686,2488.766,478.608L2525.602,409.53"/><path marker-end="url(#my-svg_flowchart-v2-pointEnd)" style="" class="edge-thickness-normal edge-pattern-solid edge-thickness-normal edge-pattern-solid flowchart-link" id="L_metrics_search_ai_content_publishing_0" d="M268,664.177L286.208,661.856C304.417,659.535,340.833,654.892,398.917,652.571C457,650.25,536.75,650.25,617.241,650.25C697.732,650.25,778.964,650.25,860.195,650.25C941.427,650.25,1022.659,650.25,1103.15,650.25C1183.641,650.25,1263.391,650.25,1339.175,586.123C1414.959,521.997,1486.778,393.743,1522.688,329.617L1558.597,265.49"/><path marker-end="url(#my-svg_flowchart-v2-pointEnd)" style="" class="edge-thickness-normal edge-pattern-solid edge-thickness-normal edge-pattern-solid flowchart-link" id="L_metrics_search_ai_identity_access_0" d="M268,680.75L286.208,680.75C304.417,680.75,340.833,680.75,389.781,657.527C438.729,634.304,500.207,587.857,530.947,564.634L561.686,541.411"/><path marker-end="url(#my-svg_flowchart-v2-pointEnd)" style="" class="edge-thickness-normal edge-pattern-solid edge-thickness-normal edge-pattern-solid flowchart-link" id="L_metrics_search_ai_platform_network_0" d="M268,715.525L286.208,720.396C304.417,725.267,340.833,735.008,398.917,739.879C457,744.75,536.75,744.75,617.241,744.75C697.732,744.75,778.964,744.75,860.195,744.75C941.427,744.75,1022.659,744.75,1103.15,744.75C1183.641,744.75,1263.391,744.75,1343.141,744.75C1422.891,744.75,1502.641,744.75,1582.391,744.75C1662.141,744.75,1741.891,744.75,1821.641,744.75C1901.391,744.75,1981.141,744.75,2061.632,744.75C2142.122,744.75,2223.354,744.75,2300.031,688.852C2376.708,632.954,2448.831,521.157,2484.892,465.259L2520.953,409.361"/><path marker-end="url(#my-svg_flowchart-v2-pointEnd)" style="" class="edge-thickness-normal edge-pattern-solid edge-thickness-normal edge-pattern-solid flowchart-link" id="L_platform_network_identity_access_0" d="M2485.236,406L2455.127,424.625C2425.019,443.25,2364.803,480.5,2294.078,499.125C2223.354,517.75,2142.122,517.75,2061.632,517.75C1981.141,517.75,1901.391,517.75,1821.641,517.75C1741.891,517.75,1662.141,517.75,1582.391,517.75C1502.641,517.75,1422.891,517.75,1343.141,517.75C1263.391,517.75,1183.641,517.75,1103.15,517.75C1022.659,517.75,941.427,517.75,882.527,516.418C823.627,515.086,787.058,512.423,768.774,511.091L750.489,509.759"/><path marker-end="url(#my-svg_flowchart-v2-pointEnd)" style="" class="edge-thickness-normal edge-pattern-solid edge-thickness-normal edge-pattern-solid flowchart-link" id="L_shared_supporting_geography_and_places_0" d="M1930.891,453.171L1912.682,455.226C1894.474,457.281,1858.057,461.39,1822.295,459.96C1786.532,458.53,1751.423,451.559,1733.868,448.074L1716.314,444.589"/><path marker-end="url(#my-svg_flowchart-v2-pointEnd)" style="" class="edge-thickness-normal edge-pattern-solid edge-thickness-normal edge-pattern-solid flowchart-link" id="L_shared_supporting_identity_access_0" d="M1994.361,477.5L1965.574,494.375C1936.788,511.25,1879.214,545,1810.552,561.875C1741.891,578.75,1662.141,578.75,1582.391,578.75C1502.641,578.75,1422.891,578.75,1343.141,578.75C1263.391,578.75,1183.641,578.75,1103.15,578.75C1022.659,578.75,941.427,578.75,880.944,572.33C820.461,565.91,780.727,553.07,760.86,546.65L740.993,540.23"/><path marker-end="url(#my-svg_flowchart-v2-pointEnd)" style="" class="edge-thickness-normal edge-pattern-solid edge-thickness-normal edge-pattern-solid flowchart-link" id="L_shared_supporting_platform_network_0" d="M2190.891,438.5L2209.84,438.5C2228.789,438.5,2266.688,438.5,2303.946,433.128C2341.205,427.756,2377.824,417.012,2396.134,411.64L2414.443,406.268"/></g><g class="edgeLabels"><g transform="translate(1103.890625, 196)" class="edgeLabel"><g transform="translate(-88.6953125, -10.5)" class="label"><g><rect height="21" width="177.390625" y="0" x="-2" style="" class="background"/><text style="" y="-10.1"><tspan dy="1.1em" y="-0.1em" x="0" class="text-outer-tspan"><tspan font-weight="normal" class="text-inner-tspan" font-style="normal">30</tspan><tspan font-weight="normal" class="text-inner-tspan" font-style="normal"> cross-subsystem</tspan><tspan font-weight="normal" class="text-inner-tspan" font-style="normal"> refs</tspan></tspan></text></g></g></g><g transform="translate(2060.890625, 223)" class="edgeLabel"><g transform="translate(-84.25, -10.5)" class="label"><g><rect height="21" width="168.5" y="0" x="-2" style="" class="background"/><text style="" y="-10.1"><tspan dy="1.1em" y="-0.1em" x="0" class="text-outer-tspan"><tspan font-weight="normal" class="text-inner-tspan" font-style="normal">5</tspan><tspan font-weight="normal" class="text-inner-tspan" font-style="normal"> cross-subsystem</tspan><tspan font-weight="normal" class="text-inner-tspan" font-style="normal"> refs</tspan></tspan></text></g></g></g><g transform="translate(377.25, 500)" class="edgeLabel"><g transform="translate(-84.25, -10.5)" class="label"><g><rect height="21" width="168.5" y="0" x="-2" style="" class="background"/><text style="" y="-10.1"><tspan dy="1.1em" y="-0.1em" x="0" class="text-outer-tspan"><tspan font-weight="normal" class="text-inner-tspan" font-style="normal">9</tspan><tspan font-weight="normal" class="text-inner-tspan" font-style="normal"> cross-subsystem</tspan><tspan font-weight="normal" class="text-inner-tspan" font-style="normal"> refs</tspan></tspan></text></g></g></g><g transform="translate(377.25, 47)" class="edgeLabel"><g transform="translate(-84.25, -10.5)" class="label"><g><rect height="21" width="168.5" y="0" x="-2" style="" class="background"/><text style="" y="-10.1"><tspan dy="1.1em" y="-0.1em" x="0" class="text-outer-tspan"><tspan font-weight="normal" class="text-inner-tspan" font-style="normal">5</tspan><tspan font-weight="normal" class="text-inner-tspan" font-style="normal"> cross-subsystem</tspan><tspan font-weight="normal" class="text-inner-tspan" font-style="normal"> refs</tspan></tspan></text></g></g></g><g transform="translate(1343.140625, 77.5)" class="edgeLabel"><g transform="translate(-84.25, -10.5)" class="label"><g><rect height="21" width="168.5" y="0" x="-2" style="" class="background"/><text style="" y="-10.1"><tspan dy="1.1em" y="-0.1em" x="0" class="text-outer-tspan"><tspan font-weight="normal" class="text-inner-tspan" font-style="normal">2</tspan><tspan font-weight="normal" class="text-inner-tspan" font-style="normal"> cross-subsystem</tspan><tspan font-weight="normal" class="text-inner-tspan" font-style="normal"> refs</tspan></tspan></text></g></g></g><g transform="translate(1342.6882, 250.82895)" class="edgeLabel"><g transform="translate(-84.25, -10.5)" class="label"><g><rect height="21" width="168.5" y="0" x="-2" style="" class="background"/><text style="" y="-10.1"><tspan dy="1.1em" y="-0.1em" x="0" class="text-outer-tspan"><tspan font-weight="normal" class="text-inner-tspan" font-style="normal">1</tspan><tspan font-weight="normal" class="text-inner-tspan" font-style="normal"> cross-subsystem</tspan><tspan font-weight="normal" class="text-inner-tspan" font-style="normal"> refs</tspan></tspan></text></g></g></g><g transform="translate(1343.140625, 292.5)" class="edgeLabel"><g transform="translate(-84.25, -10.5)" class="label"><g><rect height="21" width="168.5" y="0" x="-2" style="" class="background"/><text style="" y="-10.1"><tspan dy="1.1em" y="-0.1em" x="0" class="text-outer-tspan"><tspan font-weight="normal" class="text-inner-tspan" font-style="normal">6</tspan><tspan font-weight="normal" class="text-inner-tspan" font-style="normal"> cross-subsystem</tspan><tspan font-weight="normal" class="text-inner-tspan" font-style="normal"> refs</tspan></tspan></text></g></g></g><g transform="translate(910.06663, 544.42832)" class="edgeLabel"><g transform="translate(-88.6953125, -10.5)" class="label"><g><rect height="21" width="177.390625" y="0" x="-2" style="" class="background"/><text style="" y="-10.1"><tspan dy="1.1em" y="-0.1em" x="0" class="text-outer-tspan"><tspan font-weight="normal" class="text-inner-tspan" font-style="normal">13</tspan><tspan font-weight="normal" class="text-inner-tspan" font-style="normal"> cross-subsystem</tspan><tspan font-weight="normal" class="text-inner-tspan" font-style="normal"> refs</tspan></tspan></text></g></g></g><g transform="translate(1821.640625, 323.5)" class="edgeLabel"><g transform="translate(-84.25, -10.5)" class="label"><g><rect height="21" width="168.5" y="0" x="-2" style="" class="background"/><text style="" y="-10.1"><tspan dy="1.1em" y="-0.1em" x="0" class="text-outer-tspan"><tspan font-weight="normal" class="text-inner-tspan" font-style="normal">3</tspan><tspan font-weight="normal" class="text-inner-tspan" font-style="normal"> cross-subsystem</tspan><tspan font-weight="normal" class="text-inner-tspan" font-style="normal"> refs</tspan></tspan></text></g></g></g><g transform="translate(1103.890625, 548.25)" class="edgeLabel"><g transform="translate(-84.25, -10.5)" class="label"><g><rect height="21" width="168.5" y="0" x="-2" style="" class="background"/><text style="" y="-10.1"><tspan dy="1.1em" y="-0.1em" x="0" class="text-outer-tspan"><tspan font-weight="normal" class="text-inner-tspan" font-style="normal">6</tspan><tspan font-weight="normal" class="text-inner-tspan" font-style="normal"> cross-subsystem</tspan><tspan font-weight="normal" class="text-inner-tspan" font-style="normal"> refs</tspan></tspan></text></g></g></g><g transform="translate(2060.890625, 354)" class="edgeLabel"><g transform="translate(-84.25, -10.5)" class="label"><g><rect height="21" width="168.5" y="0" x="-2" style="" class="background"/><text style="" y="-10.1"><tspan dy="1.1em" y="-0.1em" x="0" class="text-outer-tspan"><tspan font-weight="normal" class="text-inner-tspan" font-style="normal">6</tspan><tspan font-weight="normal" class="text-inner-tspan" font-style="normal"> cross-subsystem</tspan><tspan font-weight="normal" class="text-inner-tspan" font-style="normal"> refs</tspan></tspan></text></g></g></g><g transform="translate(1821.640625, 418)" class="edgeLabel"><g transform="translate(-84.25, -10.5)" class="label"><g><rect height="21" width="168.5" y="0" x="-2" style="" class="background"/><text style="" y="-10.1"><tspan dy="1.1em" y="-0.1em" x="0" class="text-outer-tspan"><tspan font-weight="normal" class="text-inner-tspan" font-style="normal">1</tspan><tspan font-weight="normal" class="text-inner-tspan" font-style="normal"> cross-subsystem</tspan><tspan font-weight="normal" class="text-inner-tspan" font-style="normal"> refs</tspan></tspan></text></g></g></g><g transform="translate(808.85476, 190.58467)" class="edgeLabel"><g transform="translate(-84.25, -10.5)" class="label"><g><rect height="21" width="168.5" y="0" x="-2" style="" class="background"/><text style="" y="-10.1"><tspan dy="1.1em" y="-0.1em" x="0" class="text-outer-tspan"><tspan font-weight="normal" class="text-inner-tspan" font-style="normal">2</tspan><tspan font-weight="normal" class="text-inner-tspan" font-style="normal"> cross-subsystem</tspan><tspan font-weight="normal" class="text-inner-tspan" font-style="normal"> refs</tspan></tspan></text></g></g></g><g transform="translate(1582.390625, 138.5)" class="edgeLabel"><g transform="translate(-84.25, -10.5)" class="label"><g><rect height="21" width="168.5" y="0" x="-2" style="" class="background"/><text style="" y="-10.1"><tspan dy="1.1em" y="-0.1em" x="0" class="text-outer-tspan"><tspan font-weight="normal" class="text-inner-tspan" font-style="normal">7</tspan><tspan font-weight="normal" class="text-inner-tspan" font-style="normal"> cross-subsystem</tspan><tspan font-weight="normal" class="text-inner-tspan" font-style="normal"> refs</tspan></tspan></text></g></g></g><g transform="translate(443.7404, 698.75477)" class="edgeLabel"><g transform="translate(-84.25, -10.5)" class="label"><g><rect height="21" width="168.5" y="0" x="-2" style="" class="background"/><text style="" y="-10.1"><tspan dy="1.1em" y="-0.1em" x="0" class="text-outer-tspan"><tspan font-weight="normal" class="text-inner-tspan" font-style="normal">2</tspan><tspan font-weight="normal" class="text-inner-tspan" font-style="normal"> cross-subsystem</tspan><tspan font-weight="normal" class="text-inner-tspan" font-style="normal"> refs</tspan></tspan></text></g></g></g><g transform="translate(1343.140625, 824)" class="edgeLabel"><g transform="translate(-84.25, -10.5)" class="label"><g><rect height="21" width="168.5" y="0" x="-2" style="" class="background"/><text style="" y="-10.1"><tspan dy="1.1em" y="-0.1em" x="0" class="text-outer-tspan"><tspan font-weight="normal" class="text-inner-tspan" font-style="normal">1</tspan><tspan font-weight="normal" class="text-inner-tspan" font-style="normal"> cross-subsystem</tspan><tspan font-weight="normal" class="text-inner-tspan" font-style="normal"> refs</tspan></tspan></text></g></g></g><g transform="translate(860.1953125, 650.25)" class="edgeLabel"><g transform="translate(-84.25, -10.5)" class="label"><g><rect height="21" width="168.5" y="0" x="-2" style="" class="background"/><text style="" y="-10.1"><tspan dy="1.1em" y="-0.1em" x="0" class="text-outer-tspan"><tspan font-weight="normal" class="text-inner-tspan" font-style="normal">1</tspan><tspan font-weight="normal" class="text-inner-tspan" font-style="normal"> cross-subsystem</tspan><tspan font-weight="normal" class="text-inner-tspan" font-style="normal"> refs</tspan></tspan></text></g></g></g><g transform="translate(377.25, 680.75)" class="edgeLabel"><g transform="translate(-84.25, -10.5)" class="label"><g><rect height="21" width="168.5" y="0" x="-2" style="" class="background"/><text style="" y="-10.1"><tspan dy="1.1em" y="-0.1em" x="0" class="text-outer-tspan"><tspan font-weight="normal" class="text-inner-tspan" font-style="normal">6</tspan><tspan font-weight="normal" class="text-inner-tspan" font-style="normal"> cross-subsystem</tspan><tspan font-weight="normal" class="text-inner-tspan" font-style="normal"> refs</tspan></tspan></text></g></g></g><g transform="translate(1343.140625, 744.75)" class="edgeLabel"><g transform="translate(-84.25, -10.5)" class="label"><g><rect height="21" width="168.5" y="0" x="-2" style="" class="background"/><text style="" y="-10.1"><tspan dy="1.1em" y="-0.1em" x="0" class="text-outer-tspan"><tspan font-weight="normal" class="text-inner-tspan" font-style="normal">7</tspan><tspan font-weight="normal" class="text-inner-tspan" font-style="normal"> cross-subsystem</tspan><tspan font-weight="normal" class="text-inner-tspan" font-style="normal"> refs</tspan></tspan></text></g></g></g><g transform="translate(1582.390625, 517.75)" class="edgeLabel"><g transform="translate(-84.25, -10.5)" class="label"><g><rect height="21" width="168.5" y="0" x="-2" style="" class="background"/><text style="" y="-10.1"><tspan dy="1.1em" y="-0.1em" x="0" class="text-outer-tspan"><tspan font-weight="normal" class="text-inner-tspan" font-style="normal">9</tspan><tspan font-weight="normal" class="text-inner-tspan" font-style="normal"> cross-subsystem</tspan><tspan font-weight="normal" class="text-inner-tspan" font-style="normal"> refs</tspan></tspan></text></g></g></g><g transform="translate(1821.640625, 465.5)" class="edgeLabel"><g transform="translate(-84.25, -10.5)" class="label"><g><rect height="21" width="168.5" y="0" x="-2" style="" class="background"/><text style="" y="-10.1"><tspan dy="1.1em" y="-0.1em" x="0" class="text-outer-tspan"><tspan font-weight="normal" class="text-inner-tspan" font-style="normal">1</tspan><tspan font-weight="normal" class="text-inner-tspan" font-style="normal"> cross-subsystem</tspan><tspan font-weight="normal" class="text-inner-tspan" font-style="normal"> refs</tspan></tspan></text></g></g></g><g transform="translate(1343.140625, 578.75)" class="edgeLabel"><g transform="translate(-84.25, -10.5)" class="label"><g><rect height="21" width="168.5" y="0" x="-2" style="" class="background"/><text style="" y="-10.1"><tspan dy="1.1em" y="-0.1em" x="0" class="text-outer-tspan"><tspan font-weight="normal" class="text-inner-tspan" font-style="normal">3</tspan><tspan font-weight="normal" class="text-inner-tspan" font-style="normal"> cross-subsystem</tspan><tspan font-weight="normal" class="text-inner-tspan" font-style="normal"> refs</tspan></tspan></text></g></g></g><g transform="translate(2304.5859375, 438.5)" class="edgeLabel"><g transform="translate(-88.6953125, -10.5)" class="label"><g><rect height="21" width="177.390625" y="0" x="-2" style="" class="background"/><text style="" y="-10.1"><tspan dy="1.1em" y="-0.1em" x="0" class="text-outer-tspan"><tspan font-weight="normal" class="text-inner-tspan" font-style="normal">14</tspan><tspan font-weight="normal" class="text-inner-tspan" font-style="normal"> cross-subsystem</tspan><tspan font-weight="normal" class="text-inner-tspan" font-style="normal"> refs</tspan></tspan></text></g></g></g></g><g class="nodes"><g transform="translate(616.5, 500)" id="flowchart-identity_access-0" class="node default"><rect height="78" width="260" y="-39" x="-130" style="" class="basic label-container"/><g transform="translate(-100, -24)" style="" class="label"><rect/><foreignObject height="48" width="200"><div style="display: table; white-space: break-spaces; line-height: 1.5; max-width: 200px; text-align: center; width: 200px;" xmlns="http://www.w3.org/1999/xhtml"><span class="nodeLabel"><p>Identity, access, and memberships</p></span></div></foreignObject></g></g><g transform="translate(2548.28125, 367)" id="flowchart-platform_network-1" class="node default"><rect height="78" width="260" y="-39" x="-130" style="" class="basic label-container"/><g transform="translate(-100, -24)" style="" class="label"><rect/><foreignObject height="48" width="200"><div style="display: table; white-space: break-spaces; line-height: 1.5; max-width: 200px; text-align: center; width: 200px;" xmlns="http://www.w3.org/1999/xhtml"><span class="nodeLabel"><p>Platforms, communities, routing, and federation</p></span></div></foreignObject></g></g><g transform="translate(1582.390625, 223)" id="flowchart-content_publishing-2" class="node default"><rect height="78" width="260" y="-39" x="-130" style="" class="basic label-container"/><g transform="translate(-100, -24)" style="" class="label"><rect/><foreignObject height="48" width="200"><div style="display: table; white-space: break-spaces; line-height: 1.5; max-width: 200px; text-align: center; width: 200px;" xmlns="http://www.w3.org/1999/xhtml"><span class="nodeLabel"><p>Content, publishing, navigation, and claims</p></span></div></foreignObject></g></g><g transform="translate(1582.390625, 418)" id="flowchart-geography_and_places-3" class="node default"><rect height="78" width="260" y="-39" x="-130" style="" class="basic label-container"/><g transform="translate(-100, -24)" style="" class="label"><rect/><foreignObject height="48" width="200"><div style="display: table; white-space: break-spaces; line-height: 1.5; max-width: 200px; text-align: center; width: 200px;" xmlns="http://www.w3.org/1999/xhtml"><span class="nodeLabel"><p>Geography, addresses, and places</p></span></div></foreignObject></g></g><g transform="translate(138, 47)" id="flowchart-events_calendar-4" class="node default"><rect height="78" width="260" y="-39" x="-130" style="" class="basic label-container"/><g transform="translate(-100, -24)" style="" class="label"><rect/><foreignObject height="48" width="200"><div style="display: table; white-space: break-spaces; line-height: 1.5; max-width: 200px; text-align: center; width: 200px;" xmlns="http://www.w3.org/1999/xhtml"><span class="nodeLabel"><p>Events, calendars, attendance, and invitations</p></span></div></foreignObject></g></g><g transform="translate(138, 500)" id="flowchart-conversations_safety-5" class="node default"><rect height="78" width="260" y="-39" x="-130" style="" class="basic label-container"/><g transform="translate(-100, -24)" style="" class="label"><rect/><foreignObject height="48" width="200"><div style="display: table; white-space: break-spaces; line-height: 1.5; max-width: 200px; text-align: center; width: 200px;" xmlns="http://www.w3.org/1999/xhtml"><span class="nodeLabel"><p>Conversations, messaging, reports, and safety</p></span></div></foreignObject></g></g><g transform="translate(1103.890625, 292.5)" id="flowchart-exchange_governance-6" class="node default"><rect height="102" width="260" y="-51" x="-130" style="" class="basic label-container"/><g transform="translate(-100, -36)" style="" class="label"><rect/><foreignObject height="72" width="200"><div style="display: table; white-space: break-spaces; line-height: 1.5; max-width: 200px; text-align: center; width: 200px;" xmlns="http://www.w3.org/1999/xhtml"><span class="nodeLabel"><p>Agreements, governance, exchange, and checklist flows</p></span></div></foreignObject></g></g><g transform="translate(138, 680.75)" id="flowchart-metrics_search_ai-7" class="node default"><rect height="78" width="260" y="-39" x="-130" style="" class="basic label-container"/><g transform="translate(-100, -24)" style="" class="label"><rect/><foreignObject height="48" width="200"><div style="display: table; white-space: break-spaces; line-height: 1.5; max-width: 200px; text-align: center; width: 200px;" xmlns="http://www.w3.org/1999/xhtml"><span class="nodeLabel"><p>Metrics, search, notifications, and AI support</p></span></div></foreignObject></g></g><g transform="translate(138, 808.75)" id="flowchart-integrations_webhooks-8" class="node default"><rect height="78" width="260" y="-39" x="-130" style="" class="basic label-container"/><g transform="translate(-100, -24)" style="" class="label"><rect/><foreignObject height="48" width="200"><div style="display: table; white-space: break-spaces; line-height: 1.5; max-width: 200px; text-align: center; width: 200px;" xmlns="http://www.w3.org/1999/xhtml"><span class="nodeLabel"><p>Integrations, webhooks, API, and automation</p></span></div></foreignObject></g></g><g transform="translate(2060.890625, 438.5)" id="flowchart-shared_supporting-9" class="node default"><rect height="78" width="260" y="-39" x="-130" style="" class="basic label-container"/><g transform="translate(-100, -24)" style="" class="label"><rect/><foreignObject height="48" width="200"><div style="display: table; white-space: break-spaces; line-height: 1.5; max-width: 200px; text-align: center; width: 200px;" xmlns="http://www.w3.org/1999/xhtml"><span class="nodeLabel"><p>Shared and supporting runtime surfaces</p></span></div></foreignObject></g></g></g></g></g></svg>