<svg aria-roledescription="flowchart-v2" role="graphics-document document" viewBox="0 0 820.8046875 2583.668701171875" height="2583.668701171875" class="flowchart" xmlns:xlink="http://www.w3.org/1999/xlink" xmlns="http://www.w3.org/2000/svg" width="820.8046875" id="my-svg" style="background-color: white;"><style>#my-svg{font-family:trebuchet ms,verdana,arial,sans-serif;font-size:16px;fill:#333;}@keyframes edge-animation-frame{from{stroke-dashoffset:0;}}@keyframes dash{to{stroke-dashoffset:0;}}#my-svg .edge-animation-slow{stroke-dasharray:9,5!important;stroke-dashoffset:900;animation:dash 50s linear infinite;stroke-linecap:round;}#my-svg .edge-animation-fast{stroke-dasharray:9,5!important;stroke-dashoffset:900;animation:dash 20s linear infinite;stroke-linecap:round;}#my-svg .error-icon{fill:#552222;}#my-svg .error-text{fill:#552222;stroke:#552222;}#my-svg .edge-thickness-normal{stroke-width:1px;}#my-svg .edge-thickness-thick{stroke-width:3.5px;}#my-svg .edge-pattern-solid{stroke-dasharray:0;}#my-svg .edge-thickness-invisible{stroke-width:0;fill:none;}#my-svg .edge-pattern-dashed{stroke-dasharray:3;}#my-svg .edge-pattern-dotted{stroke-dasharray:2;}#my-svg .marker{fill:#333333;stroke:#333333;}#my-svg .marker.cross{stroke:#333333;}#my-svg svg{font-family:trebuchet ms,verdana,arial,sans-serif;font-size:16px;}#my-svg p{margin:0;}#my-svg .label{font-family:trebuchet ms,verdana,arial,sans-serif;color:#333;}#my-svg .cluster-label text{fill:#333;}#my-svg .cluster-label span{color:#333;}#my-svg .cluster-label span p{background-color:transparent;}#my-svg .label text,#my-svg span{fill:#333;color:#333;}#my-svg .node rect,#my-svg .node circle,#my-svg .node ellipse,#my-svg .node polygon,#my-svg .node path{fill:#ECECFF;stroke:#9370DB;stroke-width:1px;}#my-svg .rough-node .label text,#my-svg .node .label text,#my-svg .image-shape .label,#my-svg .icon-shape .label{text-anchor:middle;}#my-svg .node .katex path{fill:#000;stroke:#000;stroke-width:1px;}#my-svg .rough-node .label,#my-svg .node .label,#my-svg .image-shape .label,#my-svg .icon-shape .label{text-align:center;}#my-svg .node.clickable{cursor:pointer;}#my-svg .root .anchor path{fill:#333333!important;stroke-width:0;stroke:#333333;}#my-svg .arrowheadPath{fill:#333333;}#my-svg .edgePath .path{stroke:#333333;stroke-width:2.0px;}#my-svg .flowchart-link{stroke:#333333;fill:none;}#my-svg .edgeLabel{background-color:rgba(232,232,232, 0.8);text-align:center;}#my-svg .edgeLabel p{background-color:rgba(232,232,232, 0.8);}#my-svg .edgeLabel rect{opacity:0.5;background-color:rgba(232,232,232, 0.8);fill:rgba(232,232,232, 0.8);}#my-svg .labelBkg{background-color:rgba(232, 232, 232, 0.5);}#my-svg .cluster rect{fill:#ffffde;stroke:#aaaa33;stroke-width:1px;}#my-svg .cluster text{fill:#333;}#my-svg .cluster span{color:#333;}#my-svg div.mermaidTooltip{position:absolute;text-align:center;max-width:200px;padding:2px;font-family:trebuchet ms,verdana,arial,sans-serif;font-size:12px;background:hsl(80, 100%, 96.2745098039%);border:1px solid #aaaa33;border-radius:2px;pointer-events:none;z-index:100;}#my-svg .flowchartTitleText{text-anchor:middle;font-size:18px;fill:#333;}#my-svg rect.text{fill:none;stroke-width:0;}#my-svg .icon-shape,#my-svg .image-shape{background-color:rgba(232,232,232, 0.8);text-align:center;}#my-svg .icon-shape p,#my-svg .image-shape p{background-color:rgba(232,232,232, 0.8);padding:2px;}#my-svg .icon-shape rect,#my-svg .image-shape rect{opacity:0.5;background-color:rgba(232,232,232, 0.8);fill:rgba(232,232,232, 0.8);}#my-svg .label-icon{display:inline-block;height:1em;overflow:visible;vertical-align:-0.125em;}#my-svg .node .label-icon path{fill:currentColor;stroke:revert;stroke-width:revert;}#my-svg :root{--mermaid-font-family:trebuchet ms,verdana,arial,sans-serif;}</style><g><marker orient="auto" markerHeight="8" markerWidth="8" markerUnits="userSpaceOnUse" refY="5" refX="5" viewBox="0 0 10 10" class="marker flowchart-v2" id="my-svg_flowchart-v2-pointEnd"><path style="stroke-width: 1; stroke-dasharray: 1, 0;" class="arrowMarkerPath" d="M 0 0 L 10 5 L 0 10 z"/></marker><marker orient="auto" markerHeight="8" markerWidth="8" markerUnits="userSpaceOnUse" refY="5" refX="4.5" viewBox="0 0 10 10" class="marker flowchart-v2" id="my-svg_flowchart-v2-pointStart"><path style="stroke-width: 1; stroke-dasharray: 1, 0;" class="arrowMarkerPath" d="M 0 5 L 10 10 L 10 0 z"/></marker><marker orient="auto" markerHeight="11" markerWidth="11" markerUnits="userSpaceOnUse" refY="5" refX="11" viewBox="0 0 10 10" class="marker flowchart-v2" id="my-svg_flowchart-v2-circleEnd"><circle style="stroke-width: 1; stroke-dasharray: 1, 0;" class="arrowMarkerPath" r="5" cy="5" cx="5"/></marker><marker orient="auto" markerHeight="11" markerWidth="11" markerUnits="userSpaceOnUse" refY="5" refX="-1" viewBox="0 0 10 10" class="marker flowchart-v2" id="my-svg_flowchart-v2-circleStart"><circle style="stroke-width: 1; stroke-dasharray: 1, 0;" class="arrowMarkerPath" r="5" cy="5" cx="5"/></marker><marker orient="auto" markerHeight="11" markerWidth="11" markerUnits="userSpaceOnUse" refY="5.2" refX="12" viewBox="0 0 11 11" class="marker cross flowchart-v2" id="my-svg_flowchart-v2-crossEnd"><path style="stroke-width: 2; stroke-dasharray: 1, 0;" class="arrowMarkerPath" d="M 1,1 l 9,9 M 10,1 l -9,9"/></marker><marker orient="auto" markerHeight="11" markerWidth="11" markerUnits="userSpaceOnUse" refY="5.2" refX="-1" viewBox="0 0 11 11" class="marker cross flowchart-v2" id="my-svg_flowchart-v2-crossStart"><path style="stroke-width: 2; stroke-dasharray: 1, 0;" class="arrowMarkerPath" d="M 1,1 l 9,9 M 10,1 l -9,9"/></marker><g class="root"><g class="clusters"/><g class="edgePaths"><path marker-end="url(#my-svg_flowchart-v2-pointEnd)" style="" class="edge-thickness-normal edge-pattern-solid edge-thickness-normal edge-pattern-solid flowchart-link" id="L_A_B_0" d="M295.473,86L295.473,90.167C295.473,94.333,295.473,102.667,295.543,110.417C295.613,118.167,295.754,125.334,295.824,128.917L295.894,132.501"/><path marker-end="url(#my-svg_flowchart-v2-pointEnd)" style="" class="edge-thickness-normal edge-pattern-solid edge-thickness-normal edge-pattern-solid flowchart-link" id="L_B_C_0" d="M245.708,275.438L227.757,291.116C209.805,306.793,173.903,338.148,155.951,362.542C138,386.936,138,404.37,138,413.086L138,421.803"/><path marker-end="url(#my-svg_flowchart-v2-pointEnd)" style="" class="edge-thickness-normal edge-pattern-solid edge-thickness-normal edge-pattern-solid flowchart-link" id="L_B_D_0" d="M346.237,275.438L364.022,291.116C381.807,306.793,417.376,338.148,435.161,360.542C452.945,382.936,452.945,396.37,452.945,403.086L452.945,409.803"/><path marker-end="url(#my-svg_flowchart-v2-pointEnd)" style="" class="edge-thickness-normal edge-pattern-solid edge-thickness-normal edge-pattern-solid flowchart-link" id="L_D_E_0" d="M452.945,515.803L452.945,519.97C452.945,524.136,452.945,532.47,452.945,540.136C452.945,547.803,452.945,554.803,452.945,558.303L452.945,561.803"/><path marker-end="url(#my-svg_flowchart-v2-pointEnd)" style="" class="edge-thickness-normal edge-pattern-solid edge-thickness-normal edge-pattern-solid flowchart-link" id="L_E_F_0" d="M452.945,667.803L452.945,671.97C452.945,676.136,452.945,684.47,452.945,692.136C452.945,699.803,452.945,706.803,452.945,710.303L452.945,713.803"/><path marker-end="url(#my-svg_flowchart-v2-pointEnd)" style="" class="edge-thickness-normal edge-pattern-solid edge-thickness-normal edge-pattern-solid flowchart-link" id="L_F_G_0" d="M452.945,771.803L452.945,775.97C452.945,780.136,452.945,788.47,453.016,796.22C453.086,803.97,453.226,811.137,453.297,814.72L453.367,818.304"/><path marker-end="url(#my-svg_flowchart-v2-pointEnd)" style="" class="edge-thickness-normal edge-pattern-solid edge-thickness-normal edge-pattern-solid flowchart-link" id="L_G_H_0" d="M412.079,922.984L394.127,935.712C376.175,948.439,340.271,973.895,322.319,991.872C304.367,1009.85,304.367,1020.35,304.367,1025.6L304.367,1030.85"/><path marker-end="url(#my-svg_flowchart-v2-pointEnd)" style="" class="edge-thickness-normal edge-pattern-solid edge-thickness-normal edge-pattern-solid flowchart-link" id="L_G_I_0" d="M494.811,922.984L512.597,935.712C530.382,948.439,565.953,973.895,583.738,993.872C601.523,1013.85,601.523,1028.35,601.523,1035.6L601.523,1042.85"/><path marker-end="url(#my-svg_flowchart-v2-pointEnd)" style="" class="edge-thickness-normal edge-pattern-solid edge-thickness-normal edge-pattern-solid flowchart-link" id="L_H_J_0" d="M304.367,1136.85L304.367,1141.017C304.367,1145.183,304.367,1153.517,313.428,1161.586C322.489,1169.656,340.61,1177.462,349.671,1181.365L358.732,1185.268"/><path marker-end="url(#my-svg_flowchart-v2-pointEnd)" style="" class="edge-thickness-normal edge-pattern-solid edge-thickness-normal edge-pattern-solid flowchart-link" id="L_I_J_0" d="M601.523,1124.85L601.523,1131.017C601.523,1137.183,601.523,1149.517,592.463,1159.586C583.402,1169.656,565.28,1177.462,556.22,1181.365L547.159,1185.268"/><path marker-end="url(#my-svg_flowchart-v2-pointEnd)" style="" class="edge-thickness-normal edge-pattern-solid edge-thickness-normal edge-pattern-solid flowchart-link" id="L_J_K_0" d="M452.945,1264.85L452.945,1269.017C452.945,1273.183,452.945,1281.517,453.016,1289.267C453.086,1297.017,453.226,1304.184,453.297,1307.767L453.367,1311.351"/><path marker-end="url(#my-svg_flowchart-v2-pointEnd)" style="" class="edge-thickness-normal edge-pattern-solid edge-thickness-normal edge-pattern-solid flowchart-link" id="L_K_L_0" d="M404.13,1452.034L386.432,1467.554C368.735,1483.073,333.34,1514.111,315.643,1536.347C297.945,1558.583,297.945,1572.017,297.945,1578.733L297.945,1585.45"/><path marker-end="url(#my-svg_flowchart-v2-pointEnd)" style="" class="edge-thickness-normal edge-pattern-solid edge-thickness-normal edge-pattern-solid flowchart-link" id="L_K_M_0" d="M502.761,1452.034L520.292,1467.554C537.822,1483.073,572.884,1514.111,590.415,1536.347C607.945,1558.583,607.945,1572.017,607.945,1578.733L607.945,1585.45"/><path marker-end="url(#my-svg_flowchart-v2-pointEnd)" style="" class="edge-thickness-normal edge-pattern-solid edge-thickness-normal edge-pattern-solid flowchart-link" id="L_L_N_0" d="M297.945,1667.45L297.945,1671.617C297.945,1675.783,297.945,1684.117,309.733,1692.238C321.521,1700.359,345.097,1708.268,356.884,1712.223L368.672,1716.178"/><path marker-end="url(#my-svg_flowchart-v2-pointEnd)" style="" class="edge-thickness-normal edge-pattern-solid edge-thickness-normal edge-pattern-solid flowchart-link" id="L_M_N_0" d="M607.945,1667.45L607.945,1671.617C607.945,1675.783,607.945,1684.117,596.157,1692.238C584.37,1700.359,560.794,1708.268,549.006,1712.223L537.218,1716.178"/><path marker-end="url(#my-svg_flowchart-v2-pointEnd)" style="" class="edge-thickness-normal edge-pattern-solid edge-thickness-normal edge-pattern-solid flowchart-link" id="L_N_O_0" d="M452.945,1771.45L452.945,1775.617C452.945,1779.783,452.945,1788.117,453.016,1795.867C453.086,1803.617,453.226,1810.784,453.297,1814.367L453.367,1817.951"/><path marker-end="url(#my-svg_flowchart-v2-pointEnd)" style="" class="edge-thickness-normal edge-pattern-solid edge-thickness-normal edge-pattern-solid flowchart-link" id="L_O_P_0" d="M397.241,1962.965L376.9,1978.165C356.559,1993.366,315.877,2023.767,295.536,2053.385C275.195,2083.002,275.195,2111.835,275.195,2138.919C275.195,2166.002,275.195,2191.335,275.195,2207.502C275.195,2223.669,275.195,2230.669,275.195,2234.169L275.195,2237.669"/><path marker-end="url(#my-svg_flowchart-v2-pointEnd)" style="" class="edge-thickness-normal edge-pattern-solid edge-thickness-normal edge-pattern-solid flowchart-link" id="L_O_Q_0" d="M509.65,1962.965L529.824,1978.165C549.998,1993.366,590.347,2023.767,610.521,2044.218C630.695,2064.669,630.695,2075.169,630.695,2080.419L630.695,2085.669"/><path marker-end="url(#my-svg_flowchart-v2-pointEnd)" style="" class="edge-thickness-normal edge-pattern-solid edge-thickness-normal edge-pattern-solid flowchart-link" id="L_Q_R_0" d="M630.695,2191.669L630.695,2195.835C630.695,2200.002,630.695,2208.335,630.695,2216.002C630.695,2223.669,630.695,2230.669,630.695,2234.169L630.695,2237.669"/><path marker-end="url(#my-svg_flowchart-v2-pointEnd)" style="" class="edge-thickness-normal edge-pattern-solid edge-thickness-normal edge-pattern-solid flowchart-link" id="L_P_S_0" d="M275.195,2319.669L275.195,2323.835C275.195,2328.002,275.195,2336.335,286.14,2344.443C297.085,2352.55,318.975,2360.432,329.92,2364.373L340.865,2368.314"/><path marker-end="url(#my-svg_flowchart-v2-pointEnd)" style="" class="edge-thickness-normal edge-pattern-solid edge-thickness-normal edge-pattern-solid flowchart-link" id="L_R_S_0" d="M630.695,2319.669L630.695,2323.835C630.695,2328.002,630.695,2336.335,619.75,2344.443C608.805,2352.55,586.915,2360.432,575.97,2364.373L565.025,2368.314"/><path marker-end="url(#my-svg_flowchart-v2-pointEnd)" style="" class="edge-thickness-normal edge-pattern-solid edge-thickness-normal edge-pattern-solid flowchart-link" id="L_S_T_0" d="M452.945,2447.669L452.945,2451.835C452.945,2456.002,452.945,2464.335,452.945,2472.002C452.945,2479.669,452.945,2486.669,452.945,2490.169L452.945,2493.669"/></g><g class="edgeLabels"><g><rect style="stroke: none" class="background"/></g><g><rect style="stroke: none" class="background"/></g><g><rect style="stroke: none" class="background"/></g><g><rect style="stroke: none" class="background"/></g><g><rect style="stroke: none" class="background"/></g><g><rect style="stroke: none" class="background"/></g><g><rect style="stroke: none" class="background"/></g><g><rect style="stroke: none" class="background"/></g><g><rect style="stroke: none" class="background"/></g><g><rect style="stroke: none" class="background"/></g><g><rect style="stroke: none" class="background"/></g><g><rect style="stroke: none" class="background"/></g><g><rect style="stroke: none" class="background"/></g><g><rect style="stroke: none" class="background"/></g><g class="edgeLabel"><g transform="translate(0, 0)" class="label"><text y="-10.1"><tspan dy="1.1em" y="-0.1em" x="0" class="text-outer-tspan"/></text></g></g><g transform="translate(138, 369.50312423706055)" class="edgeLabel"><g transform="translate(-26.50390625, -10.5)" class="label"><g><rect height="21" width="53.0078125" y="0" x="-2" style="" class="background"/><text style="" y="-10.1"><tspan dy="1.1em" y="-0.1em" x="0" class="text-outer-tspan"><tspan font-weight="normal" class="text-inner-tspan" font-style="normal">Simple</tspan></tspan></text></g></g></g><g transform="translate(452.9453125, 369.50312423706055)" class="edgeLabel"><g transform="translate(-72.265625, -19.299999237060547)" class="label"><g><rect height="38.599998474121094" width="144.53125" y="0" x="-2" style="" class="background"/><text style="" y="-10.1"><tspan dy="1.1em" y="-0.1em" x="0" class="text-outer-tspan"><tspan font-weight="normal" class="text-inner-tspan" font-style="normal">Address</tspan><tspan font-weight="normal" class="text-inner-tspan" font-style="normal"> /</tspan><tspan font-weight="normal" class="text-inner-tspan" font-style="normal"> Building</tspan><tspan font-weight="normal" class="text-inner-tspan" font-style="normal"> /</tspan></tspan><tspan dy="1.1em" y="1em" x="0" class="text-outer-tspan"><tspan font-weight="normal" class="text-inner-tspan" font-style="normal">Settlement</tspan><tspan font-weight="normal" class="text-inner-tspan" font-style="normal"> /</tspan><tspan font-weight="normal" class="text-inner-tspan" font-style="normal"> Region</tspan></tspan></text></g></g></g><g class="edgeLabel"><g transform="translate(0, 0)" class="label"><text y="-10.1"><tspan dy="1.1em" y="-0.1em" x="0" class="text-outer-tspan"/></text></g></g><g class="edgeLabel"><g transform="translate(0, 0)" class="label"><text y="-10.1"><tspan dy="1.1em" y="-0.1em" x="0" class="text-outer-tspan"/></text></g></g><g class="edgeLabel"><g transform="translate(0, 0)" class="label"><text y="-10.1"><tspan dy="1.1em" y="-0.1em" x="0" class="text-outer-tspan"/></text></g></g><g transform="translate(304.3671875, 999.3499984741211)" class="edgeLabel"><g transform="translate(-71.375, -10.5)" class="label"><g><rect height="21" width="142.75" y="0" x="-2" style="" class="background"/><text style="" y="-10.1"><tspan dy="1.1em" y="-0.1em" x="0" class="text-outer-tspan"><tspan font-weight="normal" class="text-inner-tspan" font-style="normal">Address</tspan><tspan font-weight="normal" class="text-inner-tspan" font-style="normal"> or</tspan><tspan font-weight="normal" class="text-inner-tspan" font-style="normal"> Building</tspan></tspan></text></g></g></g><g transform="translate(601.5234375, 999.3499984741211)" class="edgeLabel"><g transform="translate(-77.15625, -10.5)" class="label"><g><rect height="21" width="154.3125" y="0" x="-2" style="" class="background"/><text style="" y="-10.1"><tspan dy="1.1em" y="-0.1em" x="0" class="text-outer-tspan"><tspan font-weight="normal" class="text-inner-tspan" font-style="normal">Settlement</tspan><tspan font-weight="normal" class="text-inner-tspan" font-style="normal"> or</tspan><tspan font-weight="normal" class="text-inner-tspan" font-style="normal"> Region</tspan></tspan></text></g></g></g><g class="edgeLabel"><g transform="translate(0, 0)" class="label"><text y="-10.1"><tspan dy="1.1em" y="-0.1em" x="0" class="text-outer-tspan"/></text></g></g><g class="edgeLabel"><g transform="translate(0, 0)" class="label"><text y="-10.1"><tspan dy="1.1em" y="-0.1em" x="0" class="text-outer-tspan"/></text></g></g><g class="edgeLabel"><g transform="translate(0, 0)" class="label"><text y="-10.1"><tspan dy="1.1em" y="-0.1em" x="0" class="text-outer-tspan"/></text></g></g><g transform="translate(297.9453125, 1545.1499977111816)" class="edgeLabel"><g transform="translate(-86.4921875, -10.5)" class="label"><g><rect height="21" width="172.984375" y="0" x="-2" style="" class="background"/><text style="" y="-10.1"><tspan dy="1.1em" y="-0.1em" x="0" class="text-outer-tspan"><tspan font-weight="normal" class="text-inner-tspan" font-style="normal">Picks</tspan><tspan font-weight="normal" class="text-inner-tspan" font-style="normal"> an</tspan><tspan font-weight="normal" class="text-inner-tspan" font-style="normal"> existing</tspan><tspan font-weight="normal" class="text-inner-tspan" font-style="normal"> record</tspan></tspan></text></g></g></g><g transform="translate(607.9453125, 1545.1499977111816)" class="edgeLabel"><g transform="translate(-84.265625, -19.299999237060547)" class="label"><g><rect height="38.599998474121094" width="168.53125" y="0" x="-2" style="" class="background"/><text style="" y="-10.1"><tspan dy="1.1em" y="-0.1em" x="0" class="text-outer-tspan"><tspan font-weight="normal" class="text-inner-tspan" font-style="normal">Clicks</tspan><tspan font-weight="normal" class="text-inner-tspan" font-style="normal"> +</tspan><tspan font-weight="normal" class="text-inner-tspan" font-style="normal"> New</tspan></tspan><tspan dy="1.1em" y="1em" x="0" class="text-outer-tspan"><tspan font-weight="normal" class="text-inner-tspan" font-style="normal">(Address/Building</tspan><tspan font-weight="normal" class="text-inner-tspan" font-style="normal"> only)</tspan></tspan></text></g></g></g><g class="edgeLabel"><g transform="translate(0, 0)" class="label"><text y="-10.1"><tspan dy="1.1em" y="-0.1em" x="0" class="text-outer-tspan"/></text></g></g><g class="edgeLabel"><g transform="translate(0, 0)" class="label"><text y="-10.1"><tspan dy="1.1em" y="-0.1em" x="0" class="text-outer-tspan"/></text></g></g><g class="edgeLabel"><g transform="translate(0, 0)" class="label"><text y="-10.1"><tspan dy="1.1em" y="-0.1em" x="0" class="text-outer-tspan"/></text></g></g><g transform="translate(275.1953125, 2140.668746948242)" class="edgeLabel"><g transform="translate(-15.0546875, -10.5)" class="label"><g><rect height="21" width="30.109375" y="0" x="-2" style="" class="background"/><text style="" y="-10.1"><tspan dy="1.1em" y="-0.1em" x="0" class="text-outer-tspan"><tspan font-weight="normal" class="text-inner-tspan" font-style="normal">Yes</tspan></tspan></text></g></g></g><g transform="translate(630.6953125, 2054.168746948242)" class="edgeLabel"><g transform="translate(-12.27734375, -10.5)" class="label"><g><rect height="21" width="24.5546875" y="0" x="-2" style="" class="background"/><text style="" y="-10.1"><tspan dy="1.1em" y="-0.1em" x="0" class="text-outer-tspan"><tspan font-weight="normal" class="text-inner-tspan" font-style="normal">No</tspan></tspan></text></g></g></g><g class="edgeLabel"><g transform="translate(0, 0)" class="label"><text y="-10.1"><tspan dy="1.1em" y="-0.1em" x="0" class="text-outer-tspan"/></text></g></g><g class="edgeLabel"><g transform="translate(0, 0)" class="label"><text y="-10.1"><tspan dy="1.1em" y="-0.1em" x="0" class="text-outer-tspan"/></text></g></g><g class="edgeLabel"><g transform="translate(0, 0)" class="label"><text y="-10.1"><tspan dy="1.1em" y="-0.1em" x="0" class="text-outer-tspan"/></text></g></g><g class="edgeLabel"><g transform="translate(0, 0)" class="label"><text y="-10.1"><tspan dy="1.1em" y="-0.1em" x="0" class="text-outer-tspan"/></text></g></g></g><g class="nodes"><g transform="translate(295.47265625, 47)" id="flowchart-A-0" class="node default"><rect height="78" width="260" y="-39" x="-130" style="" class="basic label-container"/><g transform="translate(-100, -24)" style="" class="label"><rect/><foreignObject height="48" width="200"><div style="display: table; white-space: break-spaces; line-height: 1.5; max-width: 200px; text-align: center; width: 200px;" xmlns="http://www.w3.org/1999/xhtml"><span class="nodeLabel"><p>Organizer opens the event form</p></span></div></foreignObject></g></g><g transform="translate(295.47265625, 230.6015625)" id="flowchart-B-1" class="node default"><polygon transform="translate(-94.1015625, 94.6015625)" class="label-container" points="94.6015625,0 189.203125,-94.6015625 94.6015625,-189.203125 0,-94.6015625"/><g transform="translate(-67.6015625, -12)" style="" class="label"><rect/><foreignObject height="24" width="135.203125"><div style="display: table-cell; white-space: nowrap; line-height: 1.5; max-width: 200px; text-align: center;" xmlns="http://www.w3.org/1999/xhtml"><span class="nodeLabel"><p>Location type radio</p></span></div></foreignObject></g></g><g transform="translate(138, 464.8031234741211)" id="flowchart-C-3" class="node default"><rect height="78" width="260" y="-39" x="-130" style="" class="basic label-container"/><g transform="translate(-100, -24)" style="" class="label"><rect/><foreignObject height="48" width="200"><div style="display: table; white-space: break-spaces; line-height: 1.5; max-width: 200px; text-align: center; width: 200px;" xmlns="http://www.w3.org/1999/xhtml"><span class="nodeLabel"><p>Free-text location name field</p></span></div></foreignObject></g></g><g transform="translate(452.9453125, 464.8031234741211)" id="flowchart-D-5" class="node default"><rect height="102" width="269.890625" y="-51" x="-134.9453125" style="" class="basic label-container"/><g transform="translate(-104.9453125, -36)" style="" class="label"><rect/><foreignObject height="72" width="209.890625"><div style="display: table; white-space: break-spaces; line-height: 1.5; max-width: 200px; text-align: center; width: 200px;" xmlns="http://www.w3.org/1999/xhtml"><span class="nodeLabel"><p>location_selector_controller.js<br />points the search field at the chosen type</p></span></div></foreignObject></g></g><g transform="translate(452.9453125, 616.8031234741211)" id="flowchart-E-7" class="node default"><rect height="102" width="260.140625" y="-51" x="-130.0703125" style="" class="basic label-container"/><g transform="translate(-100.0703125, -36)" style="" class="label"><rect/><foreignObject height="72" width="200.140625"><div style="display: table; white-space: break-spaces; line-height: 1.5; max-width: 200px; text-align: center; width: 200px;" xmlns="http://www.w3.org/1999/xhtml"><span class="nodeLabel"><p>GET /events/available_locations?location_type=X</p></span></div></foreignObject></g></g><g transform="translate(452.9453125, 744.8031234741211)" id="flowchart-F-9" class="node default"><rect height="54" width="322.375" y="-27" x="-161.1875" style="" class="basic label-container"/><g transform="translate(-131.1875, -12)" style="" class="label"><rect/><foreignObject height="24" width="262.375"><div style="display: table; white-space: break-spaces; line-height: 1.5; max-width: 200px; text-align: center; width: 200px;" xmlns="http://www.w3.org/1999/xhtml"><span class="nodeLabel"><p>EventsController#available_locations</p></span></div></foreignObject></g></g><g transform="translate(452.9453125, 892.8265609741211)" id="flowchart-G-11" class="node default"><polygon transform="translate(-70.5234375, 71.0234375)" class="label-container" points="71.0234375,0 142.046875,-71.0234375 71.0234375,-142.046875 0,-71.0234375"/><g transform="translate(-44.0234375, -12)" style="" class="label"><rect/><foreignObject height="24" width="88.046875"><div style="display: table-cell; white-space: nowrap; line-height: 1.5; max-width: 200px; text-align: center;" xmlns="http://www.w3.org/1999/xhtml"><span class="nodeLabel"><p>Which type?</p></span></div></foreignObject></g></g><g transform="translate(304.3671875, 1085.849998474121)" id="flowchart-H-13" class="node default"><rect height="102" width="260" y="-51" x="-130" style="" class="basic label-container"/><g transform="translate(-100, -36)" style="" class="label"><rect/><foreignObject height="72" width="200"><div style="display: table; white-space: break-spaces; line-height: 1.5; max-width: 200px; text-align: center; width: 200px;" xmlns="http://www.w3.org/1999/xhtml"><span class="nodeLabel"><p>Policy-scoped:<br />organizer's own + public records</p></span></div></foreignObject></g></g><g transform="translate(601.5234375, 1085.849998474121)" id="flowchart-I-15" class="node default"><rect height="78" width="234.3125" y="-39" x="-117.15625" style="" class="basic label-container"/><g transform="translate(-87.15625, -24)" style="" class="label"><rect/><foreignObject height="48" width="174.3125"><div style="display: table-cell; white-space: nowrap; line-height: 1.5; max-width: 200px; text-align: center;" xmlns="http://www.w3.org/1999/xhtml"><span class="nodeLabel"><p>Unscoped:<br />full curated reference list</p></span></div></foreignObject></g></g><g transform="translate(452.9453125, 1225.849998474121)" id="flowchart-J-17" class="node default"><rect height="78" width="260" y="-39" x="-130" style="" class="basic label-container"/><g transform="translate(-100, -24)" style="" class="label"><rect/><foreignObject height="48" width="200"><div style="display: table; white-space: break-spaces; line-height: 1.5; max-width: 200px; text-align: center; width: 200px;" xmlns="http://www.w3.org/1999/xhtml"><span class="nodeLabel"><p>SlimSelect shows matching results</p></span></div></foreignObject></g></g><g transform="translate(452.9453125, 1407.849998474121)" id="flowchart-K-21" class="node default"><polygon transform="translate(-92.5, 93)" class="label-container" points="93,0 186,-93 93,-186 0,-93"/><g transform="translate(-66, -12)" style="" class="label"><rect/><foreignObject height="24" width="132"><div style="display: table-cell; white-space: nowrap; line-height: 1.5; max-width: 200px; text-align: center;" xmlns="http://www.w3.org/1999/xhtml"><span class="nodeLabel"><p>Organizer's choice</p></span></div></foreignObject></g></g><g transform="translate(297.9453125, 1628.4499969482422)" id="flowchart-L-23" class="node default"><rect height="78" width="260" y="-39" x="-130" style="" class="basic label-container"/><g transform="translate(-100, -24)" style="" class="label"><rect/><foreignObject height="48" width="200"><div style="display: table; white-space: break-spaces; line-height: 1.5; max-width: 200px; text-align: center; width: 200px;" xmlns="http://www.w3.org/1999/xhtml"><span class="nodeLabel"><p>location_id + location_type submitted</p></span></div></foreignObject></g></g><g transform="translate(607.9453125, 1628.4499969482422)" id="flowchart-M-25" class="node default"><rect height="78" width="260" y="-39" x="-130" style="" class="basic label-container"/><g transform="translate(-100, -24)" style="" class="label"><rect/><foreignObject height="48" width="200"><div style="display: table; white-space: break-spaces; line-height: 1.5; max-width: 200px; text-align: center; width: 200px;" xmlns="http://www.w3.org/1999/xhtml"><span class="nodeLabel"><p>Inline new-record fields submitted alongside</p></span></div></foreignObject></g></g><g transform="translate(452.9453125, 1744.4499969482422)" id="flowchart-N-27" class="node default"><rect height="54" width="337.984375" y="-27" x="-168.9921875" style="" class="basic label-container"/><g transform="translate(-138.9921875, -12)" style="" class="label"><rect/><foreignObject height="24" width="277.984375"><div style="display: table; white-space: break-spaces; line-height: 1.5; max-width: 200px; text-align: center; width: 200px;" xmlns="http://www.w3.org/1999/xhtml"><span class="nodeLabel"><p>LocatableLocation#location_attributes=</p></span></div></foreignObject></g></g><g transform="translate(452.9453125, 1920.0593719482422)" id="flowchart-O-31" class="node default"><polygon transform="translate(-98.109375, 98.609375)" class="label-container" points="98.609375,0 197.21875,-98.609375 98.609375,-197.21875 0,-98.609375"/><g transform="translate(-71.609375, -12)" style="" class="label"><rect/><foreignObject height="24" width="143.21875"><div style="display: table-cell; white-space: nowrap; line-height: 1.5; max-width: 200px; text-align: center;" xmlns="http://www.w3.org/1999/xhtml"><span class="nodeLabel"><p>location_id present?</p></span></div></foreignObject></g></g><g transform="translate(275.1953125, 2280.668746948242)" id="flowchart-P-33" class="node default"><rect height="78" width="246.78125" y="-39" x="-123.390625" style="" class="basic label-container"/><g transform="translate(-93.390625, -24)" style="" class="label"><rect/><foreignObject height="48" width="186.78125"><div style="display: table-cell; white-space: nowrap; line-height: 1.5; max-width: 200px; text-align: center;" xmlns="http://www.w3.org/1999/xhtml"><span class="nodeLabel"><p>assign_location_by_id:<br />look up the existing record</p></span></div></foreignObject></g></g><g transform="translate(630.6953125, 2140.668746948242)" id="flowchart-Q-35" class="node default"><rect height="102" width="276.15625" y="-51" x="-138.078125" style="" class="basic label-container"/><g transform="translate(-108.078125, -36)" style="" class="label"><rect/><foreignObject height="72" width="216.15625"><div style="display: table; white-space: break-spaces; line-height: 1.5; max-width: 200px; text-align: center; width: 200px;" xmlns="http://www.w3.org/1999/xhtml"><span class="nodeLabel"><p>assign_location_by_type:<br />dispatch via Placeable.included_in_models</p></span></div></foreignObject></g></g><g transform="translate(630.6953125, 2280.668746948242)" id="flowchart-R-37" class="node default"><rect height="78" width="364.21875" y="-39" x="-182.109375" style="" class="basic label-container"/><g transform="translate(-152.109375, -24)" style="" class="label"><rect/><foreignObject height="48" width="304.21875"><div style="display: table; white-space: break-spaces; line-height: 1.5; max-width: 200px; text-align: center; width: 200px;" xmlns="http://www.w3.org/1999/xhtml"><span class="nodeLabel"><p>Address/Building#locatable_location_build:<br />build a new record</p></span></div></foreignObject></g></g><g transform="translate(452.9453125, 2408.668746948242)" id="flowchart-S-39" class="node default"><rect height="78" width="260" y="-39" x="-130" style="" class="basic label-container"/><g transform="translate(-100, -24)" style="" class="label"><rect/><foreignObject height="48" width="200"><div style="display: table; white-space: break-spaces; line-height: 1.5; max-width: 200px; text-align: center; width: 200px;" xmlns="http://www.w3.org/1999/xhtml"><span class="nodeLabel"><p>belongs_to :location, autosave: true</p></span></div></foreignObject></g></g><g transform="translate(452.9453125, 2536.668746948242)" id="flowchart-T-43" class="node default"><rect height="78" width="260" y="-39" x="-130" style="" class="basic label-container"/><g transform="translate(-100, -24)" style="" class="label"><rect/><foreignObject height="48" width="200"><div style="display: table; white-space: break-spaces; line-height: 1.5; max-width: 200px; text-align: center; width: 200px;" xmlns="http://www.w3.org/1999/xhtml"><span class="nodeLabel"><p>Event + location saved together in one submit</p></span></div></foreignObject></g></g></g></g></g></svg>