<svg aria-roledescription="flowchart-v2" role="graphics-document document" viewBox="0 0 1503.92578125 1354" height="1354" class="flowchart" xmlns:xlink="http://www.w3.org/1999/xlink" xmlns="http://www.w3.org/2000/svg" width="1503.92578125" id="my-svg" style="background-color: white;"><style>#my-svg{font-family:trebuchet ms,verdana,arial,sans-serif;font-size:16px;fill:#333;}@keyframes edge-animation-frame{from{stroke-dashoffset:0;}}@keyframes dash{to{stroke-dashoffset:0;}}#my-svg .edge-animation-slow{stroke-dasharray:9,5!important;stroke-dashoffset:900;animation:dash 50s linear infinite;stroke-linecap:round;}#my-svg .edge-animation-fast{stroke-dasharray:9,5!important;stroke-dashoffset:900;animation:dash 20s linear infinite;stroke-linecap:round;}#my-svg .error-icon{fill:#552222;}#my-svg .error-text{fill:#552222;stroke:#552222;}#my-svg .edge-thickness-normal{stroke-width:1px;}#my-svg .edge-thickness-thick{stroke-width:3.5px;}#my-svg .edge-pattern-solid{stroke-dasharray:0;}#my-svg .edge-thickness-invisible{stroke-width:0;fill:none;}#my-svg .edge-pattern-dashed{stroke-dasharray:3;}#my-svg .edge-pattern-dotted{stroke-dasharray:2;}#my-svg .marker{fill:#333333;stroke:#333333;}#my-svg .marker.cross{stroke:#333333;}#my-svg svg{font-family:trebuchet ms,verdana,arial,sans-serif;font-size:16px;}#my-svg p{margin:0;}#my-svg .label{font-family:trebuchet ms,verdana,arial,sans-serif;color:#333;}#my-svg .cluster-label text{fill:#333;}#my-svg .cluster-label span{color:#333;}#my-svg .cluster-label span p{background-color:transparent;}#my-svg .label text,#my-svg span{fill:#333;color:#333;}#my-svg .node rect,#my-svg .node circle,#my-svg .node ellipse,#my-svg .node polygon,#my-svg .node path{fill:#ECECFF;stroke:#9370DB;stroke-width:1px;}#my-svg .rough-node .label text,#my-svg .node .label text,#my-svg .image-shape .label,#my-svg .icon-shape .label{text-anchor:middle;}#my-svg .node .katex path{fill:#000;stroke:#000;stroke-width:1px;}#my-svg .rough-node .label,#my-svg .node .label,#my-svg .image-shape .label,#my-svg .icon-shape .label{text-align:center;}#my-svg .node.clickable{cursor:pointer;}#my-svg .root .anchor path{fill:#333333!important;stroke-width:0;stroke:#333333;}#my-svg .arrowheadPath{fill:#333333;}#my-svg .edgePath .path{stroke:#333333;stroke-width:2.0px;}#my-svg .flowchart-link{stroke:#333333;fill:none;}#my-svg .edgeLabel{background-color:rgba(232,232,232, 0.8);text-align:center;}#my-svg .edgeLabel p{background-color:rgba(232,232,232, 0.8);}#my-svg .edgeLabel rect{opacity:0.5;background-color:rgba(232,232,232, 0.8);fill:rgba(232,232,232, 0.8);}#my-svg .labelBkg{background-color:rgba(232, 232, 232, 0.5);}#my-svg .cluster rect{fill:#ffffde;stroke:#aaaa33;stroke-width:1px;}#my-svg .cluster text{fill:#333;}#my-svg .cluster span{color:#333;}#my-svg div.mermaidTooltip{position:absolute;text-align:center;max-width:200px;padding:2px;font-family:trebuchet ms,verdana,arial,sans-serif;font-size:12px;background:hsl(80, 100%, 96.2745098039%);border:1px solid #aaaa33;border-radius:2px;pointer-events:none;z-index:100;}#my-svg .flowchartTitleText{text-anchor:middle;font-size:18px;fill:#333;}#my-svg rect.text{fill:none;stroke-width:0;}#my-svg .icon-shape,#my-svg .image-shape{background-color:rgba(232,232,232, 0.8);text-align:center;}#my-svg .icon-shape p,#my-svg .image-shape p{background-color:rgba(232,232,232, 0.8);padding:2px;}#my-svg .icon-shape rect,#my-svg .image-shape rect{opacity:0.5;background-color:rgba(232,232,232, 0.8);fill:rgba(232,232,232, 0.8);}#my-svg .label-icon{display:inline-block;height:1em;overflow:visible;vertical-align:-0.125em;}#my-svg .node .label-icon path{fill:currentColor;stroke:revert;stroke-width:revert;}#my-svg :root{--mermaid-font-family:trebuchet ms,verdana,arial,sans-serif;}</style><g><marker orient="auto" markerHeight="8" markerWidth="8" markerUnits="userSpaceOnUse" refY="5" refX="5" viewBox="0 0 10 10" class="marker flowchart-v2" id="my-svg_flowchart-v2-pointEnd"><path style="stroke-width: 1; stroke-dasharray: 1, 0;" class="arrowMarkerPath" d="M 0 0 L 10 5 L 0 10 z"/></marker><marker orient="auto" markerHeight="8" markerWidth="8" markerUnits="userSpaceOnUse" refY="5" refX="4.5" viewBox="0 0 10 10" class="marker flowchart-v2" id="my-svg_flowchart-v2-pointStart"><path style="stroke-width: 1; stroke-dasharray: 1, 0;" class="arrowMarkerPath" d="M 0 5 L 10 10 L 10 0 z"/></marker><marker orient="auto" markerHeight="11" markerWidth="11" markerUnits="userSpaceOnUse" refY="5" refX="11" viewBox="0 0 10 10" class="marker flowchart-v2" id="my-svg_flowchart-v2-circleEnd"><circle style="stroke-width: 1; stroke-dasharray: 1, 0;" class="arrowMarkerPath" r="5" cy="5" cx="5"/></marker><marker orient="auto" markerHeight="11" markerWidth="11" markerUnits="userSpaceOnUse" refY="5" refX="-1" viewBox="0 0 10 10" class="marker flowchart-v2" id="my-svg_flowchart-v2-circleStart"><circle style="stroke-width: 1; stroke-dasharray: 1, 0;" class="arrowMarkerPath" r="5" cy="5" cx="5"/></marker><marker orient="auto" markerHeight="11" markerWidth="11" markerUnits="userSpaceOnUse" refY="5.2" refX="12" viewBox="0 0 11 11" class="marker cross flowchart-v2" id="my-svg_flowchart-v2-crossEnd"><path style="stroke-width: 2; stroke-dasharray: 1, 0;" class="arrowMarkerPath" d="M 1,1 l 9,9 M 10,1 l -9,9"/></marker><marker orient="auto" markerHeight="11" markerWidth="11" markerUnits="userSpaceOnUse" refY="5.2" refX="-1" viewBox="0 0 11 11" class="marker cross flowchart-v2" id="my-svg_flowchart-v2-crossStart"><path style="stroke-width: 2; stroke-dasharray: 1, 0;" class="arrowMarkerPath" d="M 1,1 l 9,9 M 10,1 l -9,9"/></marker><g class="root"><g class="clusters"><g data-look="classic" id="Collection" class="cluster"><rect height="552" width="424.86328125" y="465" x="1071.0625" style=""/><g transform="translate(1202.111328125, 465)" class="cluster-label"><g><rect style="stroke: none" class="background"/><text style="" y="-10.1"><tspan dy="1.1em" y="-0.1em" x="0" class="text-outer-tspan"><tspan font-weight="normal" class="text-inner-tspan" font-style="normal">Collection</tspan><tspan font-weight="normal" class="text-inner-tspan" font-style="normal"> map</tspan><tspan font-weight="normal" class="text-inner-tspan" font-style="normal"> (events</tspan></tspan><tspan dy="1.1em" y="1em" x="0" class="text-outer-tspan"><tspan font-weight="normal" class="text-inner-tspan" font-style="normal">index</tspan><tspan font-weight="normal" class="text-inner-tspan" font-style="normal"> page)</tspan></tspan></text></g></g></g><g data-look="classic" id="Single" class="cluster"><rect height="480" width="350" y="690" x="8" style=""/><g transform="translate(85.7734375, 690)" class="cluster-label"><g><rect style="stroke: none" class="background"/><text style="" y="-10.1"><tspan dy="1.1em" y="-0.1em" x="0" class="text-outer-tspan"><tspan font-weight="normal" class="text-inner-tspan" font-style="normal">Single-instance</tspan><tspan font-weight="normal" class="text-inner-tspan" font-style="normal"> map</tspan><tspan font-weight="normal" class="text-inner-tspan" font-style="normal"> (event</tspan></tspan><tspan dy="1.1em" y="1em" x="0" class="text-outer-tspan"><tspan font-weight="normal" class="text-inner-tspan" font-style="normal">show</tspan><tspan font-weight="normal" class="text-inner-tspan" font-style="normal"> page)</tspan></tspan></text></g></g></g><g data-look="classic" id="Mechanism" class="cluster"><rect height="834" width="673.0625" y="8" x="378" style=""/><g transform="translate(624.25, 8)" class="cluster-label"><g><rect style="stroke: none" class="background"/><text style="" y="-10.1"><tspan dy="1.1em" y="-0.1em" x="0" class="text-outer-tspan"><tspan font-weight="normal" class="text-inner-tspan" font-style="normal">Reusable</tspan><tspan font-weight="normal" class="text-inner-tspan" font-style="normal"> mechanism</tspan></tspan><tspan dy="1.1em" y="1em" x="0" class="text-outer-tspan"><tspan font-weight="normal" class="text-inner-tspan" font-style="normal">(Locatable::One</tspan><tspan font-weight="normal" class="text-inner-tspan" font-style="normal"> concern)</tspan></tspan></text></g></g></g></g><g class="edgePaths"><path marker-end="url(#my-svg_flowchart-v2-pointEnd)" style="" class="edge-thickness-normal edge-pattern-solid edge-thickness-normal edge-pattern-solid flowchart-link" id="L_A_B_0" d="M596.706,135L587.755,139.167C578.804,143.333,560.902,151.667,551.951,166.5C543,181.333,543,202.667,543,224C543,245.333,543,266.667,543,290C543,313.333,543,338.667,543,364C543,389.333,543,414.667,543,431.5C543,448.333,543,456.667,543,464.333C543,472,543,479,543,482.5L543,486"/><path marker-end="url(#my-svg_flowchart-v2-pointEnd)" style="" class="edge-thickness-normal edge-pattern-solid edge-thickness-normal edge-pattern-solid flowchart-link" id="L_A_C_0" d="M815.825,135L824.776,139.167C833.727,143.333,851.629,151.667,860.58,159.333C869.531,167,869.531,174,869.531,177.5L869.531,181"/><path marker-end="url(#my-svg_flowchart-v2-pointEnd)" style="" class="edge-thickness-normal edge-pattern-solid edge-thickness-normal edge-pattern-solid flowchart-link" id="L_C_D_0" d="M869.531,263L869.531,267.167C869.531,271.333,869.531,279.667,869.531,287.333C869.531,295,869.531,302,869.531,305.5L869.531,309"/><path marker-end="url(#my-svg_flowchart-v2-pointEnd)" style="" class="edge-thickness-normal edge-pattern-solid edge-thickness-normal edge-pattern-solid flowchart-link" id="L_D_E_0" d="M869.531,415L869.531,419.167C869.531,423.333,869.531,431.667,869.531,440C869.531,448.333,869.531,456.667,869.531,470.333C869.531,484,869.531,503,869.531,512.5L869.531,522"/><path marker-end="url(#my-svg_flowchart-v2-pointEnd)" style="" class="edge-thickness-normal edge-pattern-solid edge-thickness-normal edge-pattern-solid flowchart-link" id="L_E_F_0" d="M869.531,604L869.531,614.167C869.531,624.333,869.531,644.667,869.531,659C869.531,673.333,869.531,681.667,869.531,689.333C869.531,697,869.531,704,869.531,707.5L869.531,711"/><path marker-end="url(#my-svg_flowchart-v2-pointEnd)" style="" class="edge-thickness-normal edge-pattern-solid edge-thickness-normal edge-pattern-solid flowchart-link" id="L_B_G_0" d="M543,640L543,644.167C543,648.333,543,656.667,543,665C543,673.333,543,681.667,505.319,693.788C467.638,705.91,392.276,721.82,354.595,729.774L316.914,737.729"/><path marker-end="url(#my-svg_flowchart-v2-pointEnd)" style="" class="edge-thickness-normal edge-pattern-solid edge-thickness-normal edge-pattern-solid flowchart-link" id="L_F_H_0" d="M733.672,811.735L718.688,816.779C703.703,821.823,673.734,831.912,568.206,842.956C462.677,854,281.589,866,196.381,877.521C111.173,889.041,121.847,900.083,127.183,905.603L132.52,911.124"/><path marker-end="url(#my-svg_flowchart-v2-pointEnd)" style="" class="edge-thickness-normal edge-pattern-solid edge-thickness-normal edge-pattern-solid flowchart-link" id="L_G_H_0" d="M183,817L183,821.167C183,825.333,183,833.667,183,843.833C183,854,183,866,182.288,877.339C181.576,888.678,180.152,899.357,179.441,904.696L178.729,910.035"/><path marker-end="url(#my-svg_flowchart-v2-pointEnd)" style="" class="edge-thickness-normal edge-pattern-solid edge-thickness-normal edge-pattern-solid flowchart-link" id="L_H_I_0" d="M173,992L173,996.167C173,1000.333,173,1008.667,173,1017C173,1025.333,173,1033.667,173.548,1041.341C174.096,1049.016,175.192,1056.032,175.741,1059.54L176.289,1063.048"/><path marker-end="url(#my-svg_flowchart-v2-pointEnd)" style="" class="edge-thickness-normal edge-pattern-solid edge-thickness-normal edge-pattern-solid flowchart-link" id="L_J_K_0" d="M1245.871,616L1245.871,624.167C1245.871,632.333,1245.871,648.667,1245.871,661C1245.871,673.333,1245.871,681.667,1245.871,689.333C1245.871,697,1245.871,704,1245.871,707.5L1245.871,711"/><path marker-end="url(#my-svg_flowchart-v2-pointEnd)" style="" class="edge-thickness-normal edge-pattern-solid edge-thickness-normal edge-pattern-solid flowchart-link" id="L_K_L_0" d="M1245.871,817L1245.871,821.167C1245.871,825.333,1245.871,833.667,1245.871,843.833C1245.871,854,1245.871,866,1251.097,879.454C1256.323,892.908,1266.775,907.817,1272.001,915.271L1277.227,922.725"/><path marker-end="url(#my-svg_flowchart-v2-pointEnd)" style="" class="edge-thickness-normal edge-pattern-dotted edge-thickness-normal edge-pattern-solid flowchart-link" id="L_F_L_0" d="M923.729,817L928.157,821.167C932.585,825.333,941.441,833.667,1012.659,843.833C1083.876,854,1217.456,866,1279.019,879.454C1340.583,892.908,1330.131,907.817,1324.905,915.271L1319.679,922.725"/><path marker-end="url(#my-svg_flowchart-v2-pointEnd)" style="" class="edge-thickness-normal edge-pattern-solid edge-thickness-normal edge-pattern-solid flowchart-link" id="L_L_I_0" d="M1298.453,980L1298.453,986.167C1298.453,992.333,1298.453,1004.667,1126.294,1015C954.135,1025.333,609.818,1033.667,432.815,1041.591C255.811,1049.516,246.123,1057.032,241.278,1060.79L236.434,1064.548"/><path marker-end="url(#my-svg_flowchart-v2-pointEnd)" style="" class="edge-thickness-normal edge-pattern-solid edge-thickness-normal edge-pattern-solid flowchart-link" id="L_I_M_0" d="M183,1145L183,1149.167C183,1153.333,183,1161.667,183,1170C183,1178.333,183,1186.667,183,1194.333C183,1202,183,1209,183,1212.5L183,1216"/></g><g class="edgeLabels"><g><rect style="stroke: none" class="background"/></g><g><rect style="stroke: none" class="background"/></g><g><rect style="stroke: none" class="background"/></g><g><rect style="stroke: none" class="background"/></g><g><rect style="stroke: none" class="background"/></g><g><rect style="stroke: none" class="background"/></g><g><rect style="stroke: none" class="background"/></g><g><rect style="stroke: none" class="background"/></g><g><rect style="stroke: none" class="background"/></g><g><rect style="stroke: none" class="background"/></g><g><rect style="stroke: none" class="background"/></g><g><rect style="stroke: none" class="background"/></g><g><rect style="stroke: none" class="background"/></g><g class="edgeLabel"><g transform="translate(0, 0)" class="label"><text y="-10.1"><tspan dy="1.1em" y="-0.1em" x="0" class="text-outer-tspan"/></text></g></g><g class="edgeLabel"><g transform="translate(0, 0)" class="label"><text y="-10.1"><tspan dy="1.1em" y="-0.1em" x="0" class="text-outer-tspan"/></text></g></g><g class="edgeLabel"><g transform="translate(0, 0)" class="label"><text y="-10.1"><tspan dy="1.1em" y="-0.1em" x="0" class="text-outer-tspan"/></text></g></g><g class="edgeLabel"><g transform="translate(0, 0)" class="label"><text y="-10.1"><tspan dy="1.1em" y="-0.1em" x="0" class="text-outer-tspan"/></text></g></g><g class="edgeLabel"><g transform="translate(0, 0)" class="label"><text y="-10.1"><tspan dy="1.1em" y="-0.1em" x="0" class="text-outer-tspan"/></text></g></g><g class="edgeLabel"><g transform="translate(0, 0)" class="label"><text y="-10.1"><tspan dy="1.1em" y="-0.1em" x="0" class="text-outer-tspan"/></text></g></g><g class="edgeLabel"><g transform="translate(0, 0)" class="label"><text y="-10.1"><tspan dy="1.1em" y="-0.1em" x="0" class="text-outer-tspan"/></text></g></g><g class="edgeLabel"><g transform="translate(0, 0)" class="label"><text y="-10.1"><tspan dy="1.1em" y="-0.1em" x="0" class="text-outer-tspan"/></text></g></g><g class="edgeLabel"><g transform="translate(0, 0)" class="label"><text y="-10.1"><tspan dy="1.1em" y="-0.1em" x="0" class="text-outer-tspan"/></text></g></g><g class="edgeLabel"><g transform="translate(0, 0)" class="label"><text y="-10.1"><tspan dy="1.1em" y="-0.1em" x="0" class="text-outer-tspan"/></text></g></g><g class="edgeLabel"><g transform="translate(0, 0)" class="label"><text y="-10.1"><tspan dy="1.1em" y="-0.1em" x="0" class="text-outer-tspan"/></text></g></g><g transform="translate(1161.69207, 860.99052)" class="edgeLabel"><g transform="translate(-85.1640625, -11)" class="label"><g><rect height="22" width="170.328125" y="0" x="-2" style="" class="background"/><text style="" y="-10.1"><tspan dy="1.1em" y="-0.1em" x="0" class="text-outer-tspan"><tspan font-weight="normal" class="text-inner-tspan" font-style="normal">per-event</tspan><tspan font-weight="normal" class="text-inner-tspan" font-style="normal"> leaflet_points</tspan></tspan></text></g></g></g><g class="edgeLabel"><g transform="translate(0, 0)" class="label"><text y="-10.1"><tspan dy="1.1em" y="-0.1em" x="0" class="text-outer-tspan"/></text></g></g><g class="edgeLabel"><g transform="translate(0, 0)" class="label"><text y="-10.1"><tspan dy="1.1em" y="-0.1em" x="0" class="text-outer-tspan"/></text></g></g></g><g class="nodes"><g transform="translate(706.265625, 84)" id="flowchart-A-0" class="node default"><rect height="102" width="256.578125" y="-51" x="-128.2890625" style="" class="basic label-container"/><g transform="translate(-98.2890625, -36)" style="" class="label"><rect/><foreignObject height="72" width="196.578125"><div style="display: table-cell; white-space: nowrap; line-height: 1.5; max-width: 200px; text-align: center;" xmlns="http://www.w3.org/1999/xhtml"><span class="nodeLabel"><p>Model includes<br />Geography::Locatable::One<br />(e.g. Event)</p></span></div></foreignObject></g></g><g transform="translate(543, 565)" id="flowchart-B-1" class="node default"><rect height="150" width="260" y="-75" x="-130" style="" class="basic label-container"/><g transform="translate(-100, -60)" style="" class="label"><rect/><foreignObject height="120" width="200"><div style="display: table; white-space: break-spaces; line-height: 1.5; max-width: 200px; text-align: center; width: 200px;" xmlns="http://www.w3.org/1999/xhtml"><span class="nodeLabel"><p>Locatable::One auto-includes<br />Geography::Mappable<br />(has_one :map, as: :mappable)</p></span></div></foreignObject></g></g><g transform="translate(869.53125, 224)" id="flowchart-C-3" class="node default"><rect height="78" width="213.890625" y="-39" x="-106.9453125" style="" class="basic label-container"/><g transform="translate(-76.9453125, -24)" style="" class="label"><rect/><foreignObject height="48" width="153.890625"><div style="display: table-cell; white-space: nowrap; line-height: 1.5; max-width: 200px; text-align: center;" xmlns="http://www.w3.org/1999/xhtml"><span class="nodeLabel"><p>has_one :location<br />(a LocatableLocation)</p></span></div></foreignObject></g></g><g transform="translate(869.53125, 364)" id="flowchart-D-5" class="node default"><rect height="102" width="260" y="-51" x="-130" style="" class="basic label-container"/><g transform="translate(-100, -36)" style="" class="label"><rect/><foreignObject height="72" width="200"><div style="display: table; white-space: break-spaces; line-height: 1.5; max-width: 200px; text-align: center; width: 200px;" xmlns="http://www.w3.org/1999/xhtml"><span class="nodeLabel"><p>location.location<br />(Address / Building / Settlement / Region)</p></span></div></foreignObject></g></g><g transform="translate(869.53125, 565)" id="flowchart-E-7" class="node default"><rect height="78" width="293.0625" y="-39" x="-146.53125" style="" class="basic label-container"/><g transform="translate(-116.53125, -24)" style="" class="label"><rect/><foreignObject height="48" width="233.0625"><div style="display: table; white-space: break-spaces; line-height: 1.5; max-width: 200px; text-align: center; width: 200px;" xmlns="http://www.w3.org/1999/xhtml"><span class="nodeLabel"><p>Geospatial::One#to_leaflet_point<br />(nil unless geocoded)</p></span></div></foreignObject></g></g><g transform="translate(869.53125, 766)" id="flowchart-F-9" class="node default"><rect height="102" width="271.71875" y="-51" x="-135.859375" style="" class="basic label-container"/><g transform="translate(-105.859375, -36)" style="" class="label"><rect/><foreignObject height="72" width="211.71875"><div style="display: table; white-space: break-spaces; line-height: 1.5; max-width: 200px; text-align: center; width: 200px;" xmlns="http://www.w3.org/1999/xhtml"><span class="nodeLabel"><p>Locatable::One#leaflet_points<br />(builds label + popup_html,<br />returns [] when ungeocoded)</p></span></div></foreignObject></g></g><g transform="translate(183, 766)" id="flowchart-G-11" class="node default"><rect height="102" width="260" y="-51" x="-130" style="" class="basic label-container"/><g transform="translate(-100, -36)" style="" class="label"><rect/><foreignObject height="72" width="200"><div style="display: table; white-space: break-spaces; line-height: 1.5; max-width: 200px; text-align: center; width: 200px;" xmlns="http://www.w3.org/1999/xhtml"><span class="nodeLabel"><p>model.map<br />(auto-provisioned base Map record)</p></span></div></foreignObject></g></g><g transform="translate(173, 953)" id="flowchart-H-13" class="node default"><rect height="78" width="232.5625" y="-39" x="-116.28125" style="" class="basic label-container"/><g transform="translate(-86.28125, -24)" style="" class="label"><rect/><foreignObject height="48" width="172.5625"><div style="display: table-cell; white-space: nowrap; line-height: 1.5; max-width: 200px; text-align: center;" xmlns="http://www.w3.org/1999/xhtml"><span class="nodeLabel"><p>Map#leaflet_points<br />(delegates to mappable)</p></span></div></foreignObject></g></g><g transform="translate(183, 1106)" id="flowchart-I-17" class="node default"><rect height="78" width="260" y="-39" x="-130" style="" class="basic label-container"/><g transform="translate(-100, -24)" style="" class="label"><rect/><foreignObject height="48" width="200"><div style="display: table; white-space: break-spaces; line-height: 1.5; max-width: 200px; text-align: center; width: 200px;" xmlns="http://www.w3.org/1999/xhtml"><span class="nodeLabel"><p>shared _map.html.erb partial</p></span></div></foreignObject></g></g><g transform="translate(1245.87109375, 565)" id="flowchart-J-18" class="node default"><rect height="102" width="260" y="-51" x="-130" style="" class="basic label-container"/><g transform="translate(-100, -36)" style="" class="label"><rect/><foreignObject height="72" width="200"><div style="display: table; white-space: break-spaces; line-height: 1.5; max-width: 200px; text-align: center; width: 200px;" xmlns="http://www.w3.org/1999/xhtml"><span class="nodeLabel"><p>EventCollectionMap &lt; LocatableMap<br />(mappable_class = Event)</p></span></div></foreignObject></g></g><g transform="translate(1245.87109375, 766)" id="flowchart-K-19" class="node default"><rect height="102" width="257.4375" y="-51" x="-128.71875" style="" class="basic label-container"/><g transform="translate(-98.71875, -36)" style="" class="label"><rect/><foreignObject height="72" width="197.4375"><div style="display: table-cell; white-space: nowrap; line-height: 1.5; max-width: 200px; text-align: center;" xmlns="http://www.w3.org/1999/xhtml"><span class="nodeLabel"><p>records:<br />Event.joins(:location)<br />.includes(location: :location)</p></span></div></foreignObject></g></g><g transform="translate(1298.453125, 953)" id="flowchart-L-21" class="node default"><rect height="54" width="299.234375" y="-27" x="-149.6171875" style="" class="basic label-container"/><g transform="translate(-119.6171875, -12)" style="" class="label"><rect/><foreignObject height="24" width="239.234375"><div style="display: table; white-space: break-spaces; line-height: 1.5; max-width: 200px; text-align: center; width: 200px;" xmlns="http://www.w3.org/1999/xhtml"><span class="nodeLabel"><p>records.flat_map(&amp;:leaflet_points)</p></span></div></foreignObject></g></g><g transform="translate(183, 1283)" id="flowchart-M-27" class="node default"><rect height="126" width="260" y="-63" x="-130" style="" class="basic label-container"/><g transform="translate(-100, -48)" style="" class="label"><rect/><foreignObject height="96" width="200"><div style="display: table; white-space: break-spaces; line-height: 1.5; max-width: 200px; text-align: center; width: 200px;" xmlns="http://www.w3.org/1999/xhtml"><span class="nodeLabel"><p>better_together--map Stimulus controller<br />(Leaflet: markers, popups, auto center/zoom)</p></span></div></foreignObject></g></g></g></g></g></svg>