<svg aria-roledescription="class" role="graphics-document document" viewBox="0 0 1210.43359375 932" height="932" class="classDiagram" xmlns:xlink="http://www.w3.org/1999/xlink" xmlns="http://www.w3.org/2000/svg" width="1210.43359375" id="my-svg" style="background-color: white;"><style>#my-svg{font-family:trebuchet ms,verdana,arial,sans-serif;font-size:16px;fill:#333;}@keyframes edge-animation-frame{from{stroke-dashoffset:0;}}@keyframes dash{to{stroke-dashoffset:0;}}#my-svg .edge-animation-slow{stroke-dasharray:9,5!important;stroke-dashoffset:900;animation:dash 50s linear infinite;stroke-linecap:round;}#my-svg .edge-animation-fast{stroke-dasharray:9,5!important;stroke-dashoffset:900;animation:dash 20s linear infinite;stroke-linecap:round;}#my-svg .error-icon{fill:#552222;}#my-svg .error-text{fill:#552222;stroke:#552222;}#my-svg .edge-thickness-normal{stroke-width:1px;}#my-svg .edge-thickness-thick{stroke-width:3.5px;}#my-svg .edge-pattern-solid{stroke-dasharray:0;}#my-svg .edge-thickness-invisible{stroke-width:0;fill:none;}#my-svg .edge-pattern-dashed{stroke-dasharray:3;}#my-svg .edge-pattern-dotted{stroke-dasharray:2;}#my-svg .marker{fill:#333333;stroke:#333333;}#my-svg .marker.cross{stroke:#333333;}#my-svg svg{font-family:trebuchet ms,verdana,arial,sans-serif;font-size:16px;}#my-svg p{margin:0;}#my-svg g.classGroup text{fill:#9370DB;stroke:none;font-family:trebuchet ms,verdana,arial,sans-serif;font-size:10px;}#my-svg g.classGroup text .title{font-weight:bolder;}#my-svg .nodeLabel,#my-svg .edgeLabel{color:#131300;}#my-svg .edgeLabel .label rect{fill:#ECECFF;}#my-svg .label text{fill:#131300;}#my-svg .labelBkg{background:#ECECFF;}#my-svg .edgeLabel .label span{background:#ECECFF;}#my-svg .classTitle{font-weight:bolder;}#my-svg .node rect,#my-svg .node circle,#my-svg .node ellipse,#my-svg .node polygon,#my-svg .node path{fill:#ECECFF;stroke:#9370DB;stroke-width:1px;}#my-svg .divider{stroke:#9370DB;stroke-width:1;}#my-svg g.clickable{cursor:pointer;}#my-svg g.classGroup rect{fill:#ECECFF;stroke:#9370DB;}#my-svg g.classGroup line{stroke:#9370DB;stroke-width:1;}#my-svg .classLabel .box{stroke:none;stroke-width:0;fill:#ECECFF;opacity:0.5;}#my-svg .classLabel .label{fill:#9370DB;font-size:10px;}#my-svg .relation{stroke:#333333;stroke-width:1;fill:none;}#my-svg .dashed-line{stroke-dasharray:3;}#my-svg .dotted-line{stroke-dasharray:1 2;}#my-svg #compositionStart,#my-svg .composition{fill:#333333!important;stroke:#333333!important;stroke-width:1;}#my-svg #compositionEnd,#my-svg .composition{fill:#333333!important;stroke:#333333!important;stroke-width:1;}#my-svg #dependencyStart,#my-svg .dependency{fill:#333333!important;stroke:#333333!important;stroke-width:1;}#my-svg #dependencyStart,#my-svg .dependency{fill:#333333!important;stroke:#333333!important;stroke-width:1;}#my-svg #extensionStart,#my-svg .extension{fill:transparent!important;stroke:#333333!important;stroke-width:1;}#my-svg #extensionEnd,#my-svg .extension{fill:transparent!important;stroke:#333333!important;stroke-width:1;}#my-svg #aggregationStart,#my-svg .aggregation{fill:transparent!important;stroke:#333333!important;stroke-width:1;}#my-svg #aggregationEnd,#my-svg .aggregation{fill:transparent!important;stroke:#333333!important;stroke-width:1;}#my-svg #lollipopStart,#my-svg .lollipop{fill:#ECECFF!important;stroke:#333333!important;stroke-width:1;}#my-svg #lollipopEnd,#my-svg .lollipop{fill:#ECECFF!important;stroke:#333333!important;stroke-width:1;}#my-svg .edgeTerminals{font-size:11px;line-height:initial;}#my-svg .classTitleText{text-anchor:middle;font-size:18px;fill:#333;}#my-svg .label-icon{display:inline-block;height:1em;overflow:visible;vertical-align:-0.125em;}#my-svg .node .label-icon path{fill:currentColor;stroke:revert;stroke-width:revert;}#my-svg :root{--mermaid-font-family:trebuchet ms,verdana,arial,sans-serif;}</style><g><defs><marker orient="auto" markerHeight="240" markerWidth="190" refY="7" refX="18" class="marker aggregation class" id="my-svg_class-aggregationStart"><path d="M 18,7 L9,13 L1,7 L9,1 Z"/></marker></defs><defs><marker orient="auto" markerHeight="28" markerWidth="20" refY="7" refX="1" class="marker aggregation class" id="my-svg_class-aggregationEnd"><path d="M 18,7 L9,13 L1,7 L9,1 Z"/></marker></defs><defs><marker orient="auto" markerHeight="240" markerWidth="190" refY="7" refX="18" class="marker extension class" id="my-svg_class-extensionStart"><path d="M 1,7 L18,13 V 1 Z"/></marker></defs><defs><marker orient="auto" markerHeight="28" markerWidth="20" refY="7" refX="1" class="marker extension class" id="my-svg_class-extensionEnd"><path d="M 1,1 V 13 L18,7 Z"/></marker></defs><defs><marker orient="auto" markerHeight="240" markerWidth="190" refY="7" refX="18" class="marker composition class" id="my-svg_class-compositionStart"><path d="M 18,7 L9,13 L1,7 L9,1 Z"/></marker></defs><defs><marker orient="auto" markerHeight="28" markerWidth="20" refY="7" refX="1" class="marker composition class" id="my-svg_class-compositionEnd"><path d="M 18,7 L9,13 L1,7 L9,1 Z"/></marker></defs><defs><marker orient="auto" markerHeight="240" markerWidth="190" refY="7" refX="6" class="marker dependency class" id="my-svg_class-dependencyStart"><path d="M 5,7 L9,13 L1,7 L9,1 Z"/></marker></defs><defs><marker orient="auto" markerHeight="28" markerWidth="20" refY="7" refX="13" class="marker dependency class" id="my-svg_class-dependencyEnd"><path d="M 18,7 L9,13 L14,7 L9,1 Z"/></marker></defs><defs><marker orient="auto" markerHeight="240" markerWidth="190" refY="7" refX="13" class="marker lollipop class" id="my-svg_class-lollipopStart"><circle r="6" cy="7" cx="7" fill="transparent" stroke="black"/></marker></defs><defs><marker orient="auto" markerHeight="240" markerWidth="190" refY="7" refX="1" class="marker lollipop class" id="my-svg_class-lollipopEnd"><circle r="6" cy="7" cx="7" fill="transparent" stroke="black"/></marker></defs><g class="root"><g class="clusters"/><g class="edgePaths"><path marker-end="url(#my-svg_class-dependencyEnd)" style="" class="edge-thickness-normal edge-pattern-solid relation" id="id_Person_PersonDataExport_1" d="M147.566,397L144.312,403C141.057,409,134.548,421,131.294,432C128.039,443,128.039,453,128.039,458L128.039,463"/><path marker-end="url(#my-svg_class-dependencyEnd)" style="" class="edge-thickness-normal edge-pattern-solid relation" id="id_Person_Seed_2" d="M247.059,397L250.911,403C254.763,409,262.468,421,295.681,442.382C328.895,463.764,387.618,494.529,416.98,509.911L446.341,525.293"/><path marker-end="url(#my-svg_class-dependencyEnd)" style="" class="edge-thickness-normal edge-pattern-solid relation" id="id_PersonDataExportService_Person_3" d="M249.912,157.84L240.448,163.783C230.984,169.727,212.057,181.613,202.593,192.473C193.129,203.333,193.129,213.167,193.129,218.083L193.129,223"/><path marker-end="url(#my-svg_class-dependencyEnd)" style="" class="edge-thickness-normal edge-pattern-solid relation" id="id_PersonDataExportService_SeedsBuilder_4" d="M488.256,157.84L497.72,163.783C507.184,169.727,526.111,181.613,535.575,192.473C545.039,203.333,545.039,213.167,545.039,218.083L545.039,223"/><path marker-end="url(#my-svg_class-dependencyEnd)" style="" class="edge-thickness-normal edge-pattern-solid relation" id="id_SeedsBuilder_Seed_5" d="M545.039,397L545.039,403C545.039,409,545.039,421,545.039,432C545.039,443,545.039,453,545.039,458L545.039,463"/><path marker-end="url(#my-svg_class-dependencyEnd)" style="" class="edge-thickness-normal edge-pattern-solid relation" id="id_Seed_SeedPlanting_6" d="M545.039,685L545.039,690.917C545.039,696.833,545.039,708.667,545.039,719.5C545.039,730.333,545.039,740.167,545.039,745.083L545.039,750"/><path marker-end="url(#my-svg_class-dependencyEnd)" style="" class="edge-thickness-normal edge-pattern-solid relation" id="id_SeedsIngest_Seed_7" d="M1003.445,376L1003.445,385.5C1003.445,395,1003.445,414,943.562,442.311C883.679,470.622,763.912,508.245,704.029,527.056L644.146,545.867"/></g><g class="edgeLabels"><g transform="translate(128.0390625, 433)" class="edgeLabel"><g transform="translate(-32.6875, -10.5)" class="label"><g><rect height="21" width="65.375" y="0" x="-2" style=";display: inline-block" class="background"/><text style=";display: inline-block" y="-10.1"><tspan dy="1.1em" y="-0.1em" x="0" class="text-outer-tspan"><tspan font-weight="normal" class="text-inner-tspan" font-style="normal">requests</tspan></tspan></text></g></g></g><g transform="translate(341.96635, 470.61236)" class="edgeLabel"><g transform="translate(-77.4921875, -11)" class="label"><g><rect height="22" width="154.984375" y="0" x="-2" style=";display: inline-block" class="background"/><text style=";display: inline-block" y="-10.1"><tspan dy="1.1em" y="-0.1em" x="0" class="text-outer-tspan"><tspan font-weight="normal" class="text-inner-tspan" font-style="normal">personal_exports_for</tspan></tspan></text></g></g></g><g transform="translate(193.12890625, 193.5)" class="edgeLabel"><g transform="translate(-35.34375, -10.5)" class="label"><g><rect height="21" width="70.6875" y="0" x="-2" style=";display: inline-block" class="background"/><text style=";display: inline-block" y="-10.1"><tspan dy="1.1em" y="-0.1em" x="0" class="text-outer-tspan"><tspan font-weight="normal" class="text-inner-tspan" font-style="normal">serializes</tspan></tspan></text></g></g></g><g transform="translate(545.0390625, 193.5)" class="edgeLabel"><g transform="translate(-45.640625, -10.5)" class="label"><g><rect height="21" width="91.28125" y="0" x="-2" style=";display: inline-block" class="background"/><text style=";display: inline-block" y="-10.1"><tspan dy="1.1em" y="-0.1em" x="0" class="text-outer-tspan"><tspan font-weight="normal" class="text-inner-tspan" font-style="normal">delegates</tspan><tspan font-weight="normal" class="text-inner-tspan" font-style="normal"> to</tspan></tspan></text></g></g></g><g transform="translate(545.0390625, 433)" class="edgeLabel"><g transform="translate(-100.33203125, -10.5)" class="label"><g><rect height="21" width="200.6640625" y="0" x="-2" style=";display: inline-block" class="background"/><text style=";display: inline-block" y="-10.1"><tspan dy="1.1em" y="-0.1em" x="0" class="text-outer-tspan"><tspan font-weight="normal" class="text-inner-tspan" font-style="normal">persists</tspan><tspan font-weight="normal" class="text-inner-tspan" font-style="normal"> canonical</tspan><tspan font-weight="normal" class="text-inner-tspan" font-style="normal"> envelope</tspan></tspan></text></g></g></g><g transform="translate(545.0390625, 720.5)" class="edgeLabel"><g transform="translate(-50.015625, -10.5)" class="label"><g><rect height="21" width="100.03125" y="0" x="-2" style=";display: inline-block" class="background"/><text style=";display: inline-block" y="-10.1"><tspan dy="1.1em" y="-0.1em" x="0" class="text-outer-tspan"><tspan font-weight="normal" class="text-inner-tspan" font-style="normal">import</tspan><tspan font-weight="normal" class="text-inner-tspan" font-style="normal"> history</tspan></tspan></text></g></g></g><g transform="translate(1003.4453125, 433)" class="edgeLabel"><g transform="translate(-101.6640625, -10.5)" class="label"><g><rect height="21" width="203.328125" y="0" x="-2" style=";display: inline-block" class="background"/><text style=";display: inline-block" y="-10.1"><tspan dy="1.1em" y="-0.1em" x="0" class="text-outer-tspan"><tspan font-weight="normal" class="text-inner-tspan" font-style="normal">imports</tspan><tspan font-weight="normal" class="text-inner-tspan" font-style="normal"> canonical</tspan><tspan font-weight="normal" class="text-inner-tspan" font-style="normal"> seed</tspan><tspan font-weight="normal" class="text-inner-tspan" font-style="normal"> data</tspan></tspan></text></g></g></g><g transform="translate(126.03691433515289, 405.2309073134707)" class="edgeTerminals"><g transform="translate(-3.0625, -6)" class="inner"><text style=";display: inline-block"><tspan class="row" x="0" dy="1em" xml:space="preserve">1</tspan></text></g></g><g transform="translate(243.89111340992662, 419.8301237159392)" class="edgeTerminals"><g transform="translate(-3.0625, -6)" class="inner"><text style=";display: inline-block"><tspan class="row" x="0" dy="1em" xml:space="preserve">1</tspan></text></g></g><g transform="translate(530.03906125, 702.4999989285714)" class="edgeTerminals"><g transform="translate(-3.0625, -6)" class="inner"><text style=";display: inline-block"><tspan class="row" x="0" dy="1em" xml:space="preserve">1</tspan></text></g></g><g transform="translate(138.03906124999997, 446.4999989285714)" class="edgeTerminals"><g transform="translate(-2.5, -6)" class="inner"/><text style=";display: inline-block"><tspan class="row" x="0" dy="1em" xml:space="preserve">*</tspan></text></g><g transform="translate(438.11564143817867, 501.66960576445956)" class="edgeTerminals"><g transform="translate(-2.5, -6)" class="inner"/><text style=";display: inline-block"><tspan class="row" x="0" dy="1em" xml:space="preserve">*</tspan></text></g><g transform="translate(555.03906125, 733.4999989285714)" class="edgeTerminals"><g transform="translate(-2.5, -6)" class="inner"/><text style=";display: inline-block"><tspan class="row" x="0" dy="1em" xml:space="preserve">*</tspan></text></g></g><g class="nodes"><g transform="translate(193.12890625, 313)" id="classId-Person-0" class="node default"><g class="basic label-container"><path style="" fill="#ECECFF" stroke-width="0" stroke="none" d="M-92.4921875 -84 L92.4921875 -84 L92.4921875 84 L-92.4921875 84"/><path style="" stroke-dasharray="0 0" fill="none" stroke-width="1.3" stroke="#9370DB" d="M-92.4921875 -84 C-35.97632093458407 -84, 20.539545630831853 -84, 92.4921875 -84 M-92.4921875 -84 C-43.31562786939605 -84, 5.860931761207894 -84, 92.4921875 -84 M92.4921875 -84 C92.4921875 -38.60574254046405, 92.4921875 6.7885149190719005, 92.4921875 84 M92.4921875 -84 C92.4921875 -25.718739451277195, 92.4921875 32.56252109744561, 92.4921875 84 M92.4921875 84 C21.68772439909091 84, -49.11673870181818 84, -92.4921875 84 M92.4921875 84 C52.636742761679244 84, 12.781298023358488 84, -92.4921875 84 M-92.4921875 84 C-92.4921875 43.43231227772867, -92.4921875 2.8646245554573397, -92.4921875 -84 M-92.4921875 84 C-92.4921875 20.740354335994276, -92.4921875 -42.51929132801145, -92.4921875 -84"/></g><g transform="translate(0, -60)" class="annotation-group text"/><g transform="translate(-27.125, -60)" class="label-group text"><g transform="translate(0,-12)" style="font-weight: bolder" class="label"><foreignObject height="24" width="54.25"><div style="display: table-cell; white-space: nowrap; line-height: 1.5; max-width: 101px; text-align: center;" xmlns="http://www.w3.org/1999/xhtml"><span style="" class="nodeLabel markdown-node-label"><p>Person</p></span></div></foreignObject></g></g><g transform="translate(-80.4921875, -12)" class="members-group text"><g transform="translate(0,-12)" style="" class="label"><foreignObject height="24" width="21.796875"><div style="display: table-cell; white-space: nowrap; line-height: 1.5; max-width: 76px; text-align: center;" xmlns="http://www.w3.org/1999/xhtml"><span style="" class="nodeLabel markdown-node-label"><p>+id</p></span></div></foreignObject></g><g transform="translate(0,12)" style="" class="label"><foreignObject height="24" width="69.828125"><div style="display: table-cell; white-space: nowrap; line-height: 1.5; max-width: 125px; text-align: center;" xmlns="http://www.w3.org/1999/xhtml"><span style="" class="nodeLabel markdown-node-label"><p>+identifier</p></span></div></foreignObject></g></g><g transform="translate(-80.4921875, 60)" class="methods-group text"><g transform="translate(0,-12)" style="" class="label"><foreignObject height="24" width="133.859375"><div style="display: table-cell; white-space: nowrap; line-height: 1.5; max-width: 188px; text-align: center;" xmlns="http://www.w3.org/1999/xhtml"><span style="" class="nodeLabel markdown-node-label"><p>+export_as_seed()</p></span></div></foreignObject></g></g><g style="" class="divider"><path style="" stroke-dasharray="0 0" fill="none" stroke-width="1.3" stroke="#9370DB" d="M-92.4921875 -36 C-40.382603587371754 -36, 11.726980325256491 -36, 92.4921875 -36 M-92.4921875 -36 C-20.574780939209788 -36, 51.342625621580424 -36, 92.4921875 -36"/></g><g style="" class="divider"><path style="" stroke-dasharray="0 0" fill="none" stroke-width="1.3" stroke="#9370DB" d="M-92.4921875 36 C-24.654413468910036 36, 43.18336056217993 36, 92.4921875 36 M-92.4921875 36 C-52.12234269180873 36, -11.752497883617465 36, 92.4921875 36"/></g></g><g transform="translate(128.0390625, 577)" id="classId-PersonDataExport-1" class="node default"><g class="basic label-container"><path style="" fill="#ECECFF" stroke-width="0" stroke="none" d="M-120.0390625 -108 L120.0390625 -108 L120.0390625 108 L-120.0390625 108"/><path style="" stroke-dasharray="0 0" fill="none" stroke-width="1.3" stroke="#9370DB" d="M-120.0390625 -108 C-43.943962688002244 -108, 32.15113712399551 -108, 120.0390625 -108 M-120.0390625 -108 C-41.18595671902912 -108, 37.66714906194176 -108, 120.0390625 -108 M120.0390625 -108 C120.0390625 -52.88575404420736, 120.0390625 2.22849191158528, 120.0390625 108 M120.0390625 -108 C120.0390625 -48.09864482375911, 120.0390625 11.802710352481782, 120.0390625 108 M120.0390625 108 C26.96659055962256 108, -66.10588138075488 108, -120.0390625 108 M120.0390625 108 C39.060497929075126 108, -41.91806664184975 108, -120.0390625 108 M-120.0390625 108 C-120.0390625 34.923057170449255, -120.0390625 -38.15388565910149, -120.0390625 -108 M-120.0390625 108 C-120.0390625 46.31881462639148, -120.0390625 -15.362370747217042, -120.0390625 -108"/></g><g transform="translate(0, -84)" class="annotation-group text"/><g transform="translate(-69.796875, -84)" class="label-group text"><g transform="translate(0,-12)" style="font-weight: bolder" class="label"><foreignObject height="24" width="139.59375"><div style="display: table-cell; white-space: nowrap; line-height: 1.5; max-width: 181px; text-align: center;" xmlns="http://www.w3.org/1999/xhtml"><span style="" class="nodeLabel markdown-node-label"><p>PersonDataExport</p></span></div></foreignObject></g></g><g transform="translate(-108.0390625, -36)" class="members-group text"><g transform="translate(0,-12)" style="" class="label"><foreignObject height="24" width="52.03125"><div style="display: table-cell; white-space: nowrap; line-height: 1.5; max-width: 106px; text-align: center;" xmlns="http://www.w3.org/1999/xhtml"><span style="" class="nodeLabel markdown-node-label"><p>+status</p></span></div></foreignObject></g><g transform="translate(0,12)" style="" class="label"><foreignObject height="24" width="102.75"><div style="display: table-cell; white-space: nowrap; line-height: 1.5; max-width: 158px; text-align: center;" xmlns="http://www.w3.org/1999/xhtml"><span style="" class="nodeLabel markdown-node-label"><p>+requested_at</p></span></div></foreignObject></g><g transform="translate(0,36)" style="" class="label"><foreignObject height="24" width="83.171875"><div style="display: table-cell; white-space: nowrap; line-height: 1.5; max-width: 138px; text-align: center;" xmlns="http://www.w3.org/1999/xhtml"><span style="" class="nodeLabel markdown-node-label"><p>+export_file</p></span></div></foreignObject></g></g><g transform="translate(-108.0390625, 60)" class="methods-group text"><g transform="translate(0,-12)" style="" class="label"><foreignObject height="24" width="146.28125"><div style="display: table-cell; white-space: nowrap; line-height: 1.5; max-width: 201px; text-align: center;" xmlns="http://www.w3.org/1999/xhtml"><span style="" class="nodeLabel markdown-node-label"><p>+mark_processing!()</p></span></div></foreignObject></g><g transform="translate(0,12)" style="" class="label"><foreignObject height="24" width="142.71875"><div style="display: table-cell; white-space: nowrap; line-height: 1.5; max-width: 197px; text-align: center;" xmlns="http://www.w3.org/1999/xhtml"><span style="" class="nodeLabel markdown-node-label"><p>+mark_completed!()</p></span></div></foreignObject></g></g><g style="" class="divider"><path style="" stroke-dasharray="0 0" fill="none" stroke-width="1.3" stroke="#9370DB" d="M-120.0390625 -60 C-46.89238536040378 -60, 26.254291779192442 -60, 120.0390625 -60 M-120.0390625 -60 C-56.361722084981274 -60, 7.315618330037452 -60, 120.0390625 -60"/></g><g style="" class="divider"><path style="" stroke-dasharray="0 0" fill="none" stroke-width="1.3" stroke="#9370DB" d="M-120.0390625 36 C-70.03692418924575 36, -20.03478587849149 36, 120.0390625 36 M-120.0390625 36 C-37.23856145223691 36, 45.561939595526184 36, 120.0390625 36"/></g></g><g transform="translate(369.083984375, 83)" id="classId-PersonDataExportService-2" class="node default"><g class="basic label-container"><path style="" fill="#ECECFF" stroke-width="0" stroke="none" d="M-119.171875 -75 L119.171875 -75 L119.171875 75 L-119.171875 75"/><path style="" stroke-dasharray="0 0" fill="none" stroke-width="1.3" stroke="#9370DB" d="M-119.171875 -75 C-34.208607932584684 -75, 50.75465913483063 -75, 119.171875 -75 M-119.171875 -75 C-44.30657473704433 -75, 30.558725525911342 -75, 119.171875 -75 M119.171875 -75 C119.171875 -32.571488709186546, 119.171875 9.857022581626907, 119.171875 75 M119.171875 -75 C119.171875 -25.89965322388732, 119.171875 23.20069355222536, 119.171875 75 M119.171875 75 C41.23237011547491 75, -36.707134769050185 75, -119.171875 75 M119.171875 75 C40.8730545620662 75, -37.4257658758676 75, -119.171875 75 M-119.171875 75 C-119.171875 39.56665123425262, -119.171875 4.133302468505235, -119.171875 -75 M-119.171875 75 C-119.171875 33.31320886056023, -119.171875 -8.373582278879539, -119.171875 -75"/></g><g transform="translate(0, -51)" class="annotation-group text"/><g transform="translate(-98.265625, -51)" class="label-group text"><g transform="translate(0,-12)" style="font-weight: bolder" class="label"><foreignObject height="24" width="196.53125"><div style="display: table-cell; white-space: nowrap; line-height: 1.5; max-width: 234px; text-align: center;" xmlns="http://www.w3.org/1999/xhtml"><span style="" class="nodeLabel markdown-node-label"><p>PersonDataExportService</p></span></div></foreignObject></g></g><g transform="translate(-107.171875, -3)" class="members-group text"/><g transform="translate(-107.171875, 27)" class="methods-group text"><g transform="translate(0,-12)" style="" class="label"><foreignObject height="24" width="44.015625"><div style="display: table-cell; white-space: nowrap; line-height: 1.5; max-width: 98px; text-align: center;" xmlns="http://www.w3.org/1999/xhtml"><span style="" class="nodeLabel markdown-node-label"><p>+call()</p></span></div></foreignObject></g><g transform="translate(0,12)" style="" class="label"><foreignObject height="24" width="116.078125"><div style="display: table-cell; white-space: nowrap; line-height: 1.5; max-width: 171px; text-align: center;" xmlns="http://www.w3.org/1999/xhtml"><span style="" class="nodeLabel markdown-node-label"><p>+account_data()</p></span></div></foreignObject></g></g><g style="" class="divider"><path style="" stroke-dasharray="0 0" fill="none" stroke-width="1.3" stroke="#9370DB" d="M-119.171875 -27 C-39.16410451257758 -27, 40.84366597484484 -27, 119.171875 -27 M-119.171875 -27 C-45.36626613510552 -27, 28.43934272978896 -27, 119.171875 -27"/></g><g style="" class="divider"><path style="" stroke-dasharray="0 0" fill="none" stroke-width="1.3" stroke="#9370DB" d="M-119.171875 -3 C-56.566667925750565 -3, 6.03853914849887 -3, 119.171875 -3 M-119.171875 -3 C-49.36613556953709 -3, 20.439603860925814 -3, 119.171875 -3"/></g></g><g transform="translate(545.0390625, 313)" id="classId-SeedsBuilder-3" class="node default"><g class="basic label-container"><path style="" fill="#ECECFF" stroke-width="0" stroke="none" d="M-209.41796875 -84 L209.41796875 -84 L209.41796875 84 L-209.41796875 84"/><path style="" stroke-dasharray="0 0" fill="none" stroke-width="1.3" stroke="#9370DB" d="M-209.41796875 -84 C-92.33396971609143 -84, 24.750029317817138 -84, 209.41796875 -84 M-209.41796875 -84 C-62.4178862070105 -84, 84.582196335979 -84, 209.41796875 -84 M209.41796875 -84 C209.41796875 -25.034716252762337, 209.41796875 33.930567494475326, 209.41796875 84 M209.41796875 -84 C209.41796875 -27.09822373253197, 209.41796875 29.80355253493606, 209.41796875 84 M209.41796875 84 C102.21337245293616 84, -4.991223844127688 84, -209.41796875 84 M209.41796875 84 C71.90002909417655 84, -65.61791056164691 84, -209.41796875 84 M-209.41796875 84 C-209.41796875 31.18851130065299, -209.41796875 -21.62297739869402, -209.41796875 -84 M-209.41796875 84 C-209.41796875 47.820202281996224, -209.41796875 11.640404563992448, -209.41796875 -84"/></g><g transform="translate(0, -60)" class="annotation-group text"/><g transform="translate(-51.1328125, -60)" class="label-group text"><g transform="translate(0,-12)" style="font-weight: bolder" class="label"><foreignObject height="24" width="102.265625"><div style="display: table-cell; white-space: nowrap; line-height: 1.5; max-width: 146px; text-align: center;" xmlns="http://www.w3.org/1999/xhtml"><span style="" class="nodeLabel markdown-node-label"><p>SeedsBuilder</p></span></div></foreignObject></g></g><g transform="translate(-197.41796875, -12)" class="members-group text"><g transform="translate(0,-12)" style="" class="label"><foreignObject height="24" width="87.640625"><div style="display: table-cell; white-space: nowrap; line-height: 1.5; max-width: 142px; text-align: center;" xmlns="http://www.w3.org/1999/xhtml"><span style="" class="nodeLabel markdown-node-label"><p>+seed_hash</p></span></div></foreignObject></g><g transform="translate(0,12)" style="" class="label"><foreignObject height="24" width="98.296875"><div style="display: table-cell; white-space: nowrap; line-height: 1.5; max-width: 153px; text-align: center;" xmlns="http://www.w3.org/1999/xhtml"><span style="" class="nodeLabel markdown-node-label"><p>+seed_record</p></span></div></foreignObject></g></g><g transform="translate(-197.41796875, 60)" class="methods-group text"><g transform="translate(0,-12)" style="" class="label"><foreignObject height="24" width="343.703125"><div style="display: table-cell; white-space: nowrap; line-height: 1.5; max-width: 398px; text-align: center;" xmlns="http://www.w3.org/1999/xhtml"><span style="" class="nodeLabel markdown-node-label"><p>+call(subject, profile, persist, creator_id, context)</p></span></div></foreignObject></g></g><g style="" class="divider"><path style="" stroke-dasharray="0 0" fill="none" stroke-width="1.3" stroke="#9370DB" d="M-209.41796875 -36 C-121.04027095376225 -36, -32.66257315752449 -36, 209.41796875 -36 M-209.41796875 -36 C-106.21006790458225 -36, -3.002167059164492 -36, 209.41796875 -36"/></g><g style="" class="divider"><path style="" stroke-dasharray="0 0" fill="none" stroke-width="1.3" stroke="#9370DB" d="M-209.41796875 36 C-65.6786993871319 36, 78.0605699757362 36, 209.41796875 36 M-209.41796875 36 C-53.68920858346672 36, 102.03955158306655 36, 209.41796875 36"/></g></g><g transform="translate(545.0390625, 577)" id="classId-Seed-4" class="node default"><g class="basic label-container"><path style="" fill="#ECECFF" stroke-width="0" stroke="none" d="M-93.3828125 -108 L93.3828125 -108 L93.3828125 108 L-93.3828125 108"/><path style="" stroke-dasharray="0 0" fill="none" stroke-width="1.3" stroke="#9370DB" d="M-93.3828125 -108 C-51.69308693307431 -108, -10.003361366148624 -108, 93.3828125 -108 M-93.3828125 -108 C-51.63870335480183 -108, -9.894594209603653 -108, 93.3828125 -108 M93.3828125 -108 C93.3828125 -32.699805159906546, 93.3828125 42.60038968018691, 93.3828125 108 M93.3828125 -108 C93.3828125 -60.35121906624546, 93.3828125 -12.702438132490926, 93.3828125 108 M93.3828125 108 C38.62995423416099 108, -16.12290403167802 108, -93.3828125 108 M93.3828125 108 C25.549518125140153 108, -42.28377624971969 108, -93.3828125 108 M-93.3828125 108 C-93.3828125 28.977398208075627, -93.3828125 -50.045203583848746, -93.3828125 -108 M-93.3828125 108 C-93.3828125 22.805042667418988, -93.3828125 -62.389914665162024, -93.3828125 -108"/></g><g transform="translate(0, -84)" class="annotation-group text"/><g transform="translate(-19.125, -84)" class="label-group text"><g transform="translate(0,-12)" style="font-weight: bolder" class="label"><foreignObject height="24" width="38.25"><div style="display: table-cell; white-space: nowrap; line-height: 1.5; max-width: 87px; text-align: center;" xmlns="http://www.w3.org/1999/xhtml"><span style="" class="nodeLabel markdown-node-label"><p>Seed</p></span></div></foreignObject></g></g><g transform="translate(-81.3828125, -36)" class="members-group text"><g transform="translate(0,-12)" style="" class="label"><foreignObject height="24" width="69.828125"><div style="display: table-cell; white-space: nowrap; line-height: 1.5; max-width: 125px; text-align: center;" xmlns="http://www.w3.org/1999/xhtml"><span style="" class="nodeLabel markdown-node-label"><p>+identifier</p></span></div></foreignObject></g><g transform="translate(0,12)" style="" class="label"><foreignObject height="24" width="48.484375"><div style="display: table-cell; white-space: nowrap; line-height: 1.5; max-width: 103px; text-align: center;" xmlns="http://www.w3.org/1999/xhtml"><span style="" class="nodeLabel markdown-node-label"><p>+origin</p></span></div></foreignObject></g><g transform="translate(0,36)" style="" class="label"><foreignObject height="24" width="65.390625"><div style="display: table-cell; white-space: nowrap; line-height: 1.5; max-width: 120px; text-align: center;" xmlns="http://www.w3.org/1999/xhtml"><span style="" class="nodeLabel markdown-node-label"><p>+payload</p></span></div></foreignObject></g><g transform="translate(0,60)" style="" class="label"><foreignObject height="24" width="72.484375"><div style="display: table-cell; white-space: nowrap; line-height: 1.5; max-width: 127px; text-align: center;" xmlns="http://www.w3.org/1999/xhtml"><span style="" class="nodeLabel markdown-node-label"><p>+yaml_file</p></span></div></foreignObject></g></g><g transform="translate(-81.3828125, 84)" class="methods-group text"><g transform="translate(0,-12)" style="" class="label"><foreignObject height="24" width="143.640625"><div style="display: table-cell; white-space: nowrap; line-height: 1.5; max-width: 198px; text-align: center;" xmlns="http://www.w3.org/1999/xhtml"><span style="" class="nodeLabel markdown-node-label"><p>+personal_export?()</p></span></div></foreignObject></g></g><g style="" class="divider"><path style="" stroke-dasharray="0 0" fill="none" stroke-width="1.3" stroke="#9370DB" d="M-93.3828125 -60 C-53.09476707758734 -60, -12.806721655174684 -60, 93.3828125 -60 M-93.3828125 -60 C-52.169251766666115 -60, -10.95569103333223 -60, 93.3828125 -60"/></g><g style="" class="divider"><path style="" stroke-dasharray="0 0" fill="none" stroke-width="1.3" stroke="#9370DB" d="M-93.3828125 60 C-32.89918192643983 60, 27.58444864712034 60, 93.3828125 60 M-93.3828125 60 C-24.336720465787963 60, 44.709371568424075 60, 93.3828125 60"/></g></g><g transform="translate(1003.4453125, 313)" id="classId-SeedsIngest-5" class="node default"><g class="basic label-container"><path style="" fill="#ECECFF" stroke-width="0" stroke="none" d="M-198.98828125 -63 L198.98828125 -63 L198.98828125 63 L-198.98828125 63"/><path style="" stroke-dasharray="0 0" fill="none" stroke-width="1.3" stroke="#9370DB" d="M-198.98828125 -63 C-51.27253460376974 -63, 96.44321204246052 -63, 198.98828125 -63 M-198.98828125 -63 C-94.87503086456285 -63, 9.23821952087431 -63, 198.98828125 -63 M198.98828125 -63 C198.98828125 -24.358699558745748, 198.98828125 14.282600882508504, 198.98828125 63 M198.98828125 -63 C198.98828125 -22.685751238747315, 198.98828125 17.62849752250537, 198.98828125 63 M198.98828125 63 C47.561375162999184 63, -103.86553092400163 63, -198.98828125 63 M198.98828125 63 C77.17032641677672 63, -44.647628416446565 63, -198.98828125 63 M-198.98828125 63 C-198.98828125 28.101007488868838, -198.98828125 -6.797985022262324, -198.98828125 -63 M-198.98828125 63 C-198.98828125 18.06847069358767, -198.98828125 -26.86305861282466, -198.98828125 -63"/></g><g transform="translate(0, -39)" class="annotation-group text"/><g transform="translate(-47.1328125, -39)" class="label-group text"><g transform="translate(0,-12)" style="font-weight: bolder" class="label"><foreignObject height="24" width="94.265625"><div style="display: table-cell; white-space: nowrap; line-height: 1.5; max-width: 140px; text-align: center;" xmlns="http://www.w3.org/1999/xhtml"><span style="" class="nodeLabel markdown-node-label"><p>SeedsIngest</p></span></div></foreignObject></g></g><g transform="translate(-186.98828125, 9)" class="members-group text"/><g transform="translate(-186.98828125, 39)" class="methods-group text"><g transform="translate(0,-12)" style="" class="label"><foreignObject height="24" width="326.84375"><div style="display: table-cell; white-space: nowrap; line-height: 1.5; max-width: 381px; text-align: center;" xmlns="http://www.w3.org/1999/xhtml"><span style="" class="nodeLabel markdown-node-label"><p>+call(seed_data, connection, record_importer)</p></span></div></foreignObject></g></g><g style="" class="divider"><path style="" stroke-dasharray="0 0" fill="none" stroke-width="1.3" stroke="#9370DB" d="M-198.98828125 -15 C-54.835427537343946 -15, 89.31742617531211 -15, 198.98828125 -15 M-198.98828125 -15 C-114.55997491003055 -15, -30.131668570061095 -15, 198.98828125 -15"/></g><g style="" class="divider"><path style="" stroke-dasharray="0 0" fill="none" stroke-width="1.3" stroke="#9370DB" d="M-198.98828125 9 C-57.463823090387166 9, 84.06063506922567 9, 198.98828125 9 M-198.98828125 9 C-106.3632274233159 9, -13.73817359663181 9, 198.98828125 9"/></g></g><g transform="translate(545.0390625, 840)" id="classId-SeedPlanting-6" class="node default"><g class="basic label-container"><path style="" fill="#ECECFF" stroke-width="0" stroke="none" d="M-89.60546875 -84 L89.60546875 -84 L89.60546875 84 L-89.60546875 84"/><path style="" stroke-dasharray="0 0" fill="none" stroke-width="1.3" stroke="#9370DB" d="M-89.60546875 -84 C-44.26195423921992 -84, 1.0815602715601642 -84, 89.60546875 -84 M-89.60546875 -84 C-27.333478950724285 -84, 34.93851084855143 -84, 89.60546875 -84 M89.60546875 -84 C89.60546875 -35.101405543920926, 89.60546875 13.797188912158148, 89.60546875 84 M89.60546875 -84 C89.60546875 -49.76702661517207, 89.60546875 -15.534053230344142, 89.60546875 84 M89.60546875 84 C45.241017366744494 84, 0.8765659834889874 84, -89.60546875 84 M89.60546875 84 C24.98528861103918 84, -39.63489152792164 84, -89.60546875 84 M-89.60546875 84 C-89.60546875 47.74351193868546, -89.60546875 11.487023877370916, -89.60546875 -84 M-89.60546875 84 C-89.60546875 28.43951896674968, -89.60546875 -27.12096206650064, -89.60546875 -84"/></g><g transform="translate(0, -60)" class="annotation-group text"/><g transform="translate(-50.6796875, -60)" class="label-group text"><g transform="translate(0,-12)" style="font-weight: bolder" class="label"><foreignObject height="24" width="101.359375"><div style="display: table-cell; white-space: nowrap; line-height: 1.5; max-width: 145px; text-align: center;" xmlns="http://www.w3.org/1999/xhtml"><span style="" class="nodeLabel markdown-node-label"><p>SeedPlanting</p></span></div></foreignObject></g></g><g transform="translate(-77.60546875, -12)" class="members-group text"><g transform="translate(0,-12)" style="" class="label"><foreignObject height="24" width="52.03125"><div style="display: table-cell; white-space: nowrap; line-height: 1.5; max-width: 106px; text-align: center;" xmlns="http://www.w3.org/1999/xhtml"><span style="" class="nodeLabel markdown-node-label"><p>+status</p></span></div></foreignObject></g><g transform="translate(0,12)" style="" class="label"><foreignObject height="24" width="104.53125"><div style="display: table-cell; white-space: nowrap; line-height: 1.5; max-width: 159px; text-align: center;" xmlns="http://www.w3.org/1999/xhtml"><span style="" class="nodeLabel markdown-node-label"><p>+planting_type</p></span></div></foreignObject></g><g transform="translate(0,36)" style="" class="label"><foreignObject height="24" width="76.0625"><div style="display: table-cell; white-space: nowrap; line-height: 1.5; max-width: 131px; text-align: center;" xmlns="http://www.w3.org/1999/xhtml"><span style="" class="nodeLabel markdown-node-label"><p>+metadata</p></span></div></foreignObject></g></g><g transform="translate(-77.60546875, 84)" class="methods-group text"/><g style="" class="divider"><path style="" stroke-dasharray="0 0" fill="none" stroke-width="1.3" stroke="#9370DB" d="M-89.60546875 -36 C-35.51502706449379 -36, 18.575414621012413 -36, 89.60546875 -36 M-89.60546875 -36 C-35.665059990322696 -36, 18.275348769354608 -36, 89.60546875 -36"/></g><g style="" class="divider"><path style="" stroke-dasharray="0 0" fill="none" stroke-width="1.3" stroke="#9370DB" d="M-89.60546875 60 C-19.246288844651886 60, 51.11289106069623 60, 89.60546875 60 M-89.60546875 60 C-42.99513621764505 60, 3.6151963147099053 60, 89.60546875 60"/></g></g></g></g></g></svg>