<svg aria-roledescription="class" role="graphics-document document" viewBox="0 0 913.6953125 761" height="761" class="classDiagram" xmlns:xlink="http://www.w3.org/1999/xlink" xmlns="http://www.w3.org/2000/svg" width="913.6953125" id="my-svg" style="background-color: white;"><style>#my-svg{font-family:trebuchet ms,verdana,arial,sans-serif;font-size:16px;fill:#333;}@keyframes edge-animation-frame{from{stroke-dashoffset:0;}}@keyframes dash{to{stroke-dashoffset:0;}}#my-svg .edge-animation-slow{stroke-dasharray:9,5!important;stroke-dashoffset:900;animation:dash 50s linear infinite;stroke-linecap:round;}#my-svg .edge-animation-fast{stroke-dasharray:9,5!important;stroke-dashoffset:900;animation:dash 20s linear infinite;stroke-linecap:round;}#my-svg .error-icon{fill:#552222;}#my-svg .error-text{fill:#552222;stroke:#552222;}#my-svg .edge-thickness-normal{stroke-width:1px;}#my-svg .edge-thickness-thick{stroke-width:3.5px;}#my-svg .edge-pattern-solid{stroke-dasharray:0;}#my-svg .edge-thickness-invisible{stroke-width:0;fill:none;}#my-svg .edge-pattern-dashed{stroke-dasharray:3;}#my-svg .edge-pattern-dotted{stroke-dasharray:2;}#my-svg .marker{fill:#333333;stroke:#333333;}#my-svg .marker.cross{stroke:#333333;}#my-svg svg{font-family:trebuchet ms,verdana,arial,sans-serif;font-size:16px;}#my-svg p{margin:0;}#my-svg g.classGroup text{fill:#9370DB;stroke:none;font-family:trebuchet ms,verdana,arial,sans-serif;font-size:10px;}#my-svg g.classGroup text .title{font-weight:bolder;}#my-svg .nodeLabel,#my-svg .edgeLabel{color:#131300;}#my-svg .edgeLabel .label rect{fill:#ECECFF;}#my-svg .label text{fill:#131300;}#my-svg .labelBkg{background:#ECECFF;}#my-svg .edgeLabel .label span{background:#ECECFF;}#my-svg .classTitle{font-weight:bolder;}#my-svg .node rect,#my-svg .node circle,#my-svg .node ellipse,#my-svg .node polygon,#my-svg .node path{fill:#ECECFF;stroke:#9370DB;stroke-width:1px;}#my-svg .divider{stroke:#9370DB;stroke-width:1;}#my-svg g.clickable{cursor:pointer;}#my-svg g.classGroup rect{fill:#ECECFF;stroke:#9370DB;}#my-svg g.classGroup line{stroke:#9370DB;stroke-width:1;}#my-svg .classLabel .box{stroke:none;stroke-width:0;fill:#ECECFF;opacity:0.5;}#my-svg .classLabel .label{fill:#9370DB;font-size:10px;}#my-svg .relation{stroke:#333333;stroke-width:1;fill:none;}#my-svg .dashed-line{stroke-dasharray:3;}#my-svg .dotted-line{stroke-dasharray:1 2;}#my-svg #compositionStart,#my-svg .composition{fill:#333333!important;stroke:#333333!important;stroke-width:1;}#my-svg #compositionEnd,#my-svg .composition{fill:#333333!important;stroke:#333333!important;stroke-width:1;}#my-svg #dependencyStart,#my-svg .dependency{fill:#333333!important;stroke:#333333!important;stroke-width:1;}#my-svg #dependencyStart,#my-svg .dependency{fill:#333333!important;stroke:#333333!important;stroke-width:1;}#my-svg #extensionStart,#my-svg .extension{fill:transparent!important;stroke:#333333!important;stroke-width:1;}#my-svg #extensionEnd,#my-svg .extension{fill:transparent!important;stroke:#333333!important;stroke-width:1;}#my-svg #aggregationStart,#my-svg .aggregation{fill:transparent!important;stroke:#333333!important;stroke-width:1;}#my-svg #aggregationEnd,#my-svg .aggregation{fill:transparent!important;stroke:#333333!important;stroke-width:1;}#my-svg #lollipopStart,#my-svg .lollipop{fill:#ECECFF!important;stroke:#333333!important;stroke-width:1;}#my-svg #lollipopEnd,#my-svg .lollipop{fill:#ECECFF!important;stroke:#333333!important;stroke-width:1;}#my-svg .edgeTerminals{font-size:11px;line-height:initial;}#my-svg .classTitleText{text-anchor:middle;font-size:18px;fill:#333;}#my-svg .label-icon{display:inline-block;height:1em;overflow:visible;vertical-align:-0.125em;}#my-svg .node .label-icon path{fill:currentColor;stroke:revert;stroke-width:revert;}#my-svg :root{--mermaid-font-family:trebuchet ms,verdana,arial,sans-serif;}</style><g><defs><marker orient="auto" markerHeight="240" markerWidth="190" refY="7" refX="18" class="marker aggregation class" id="my-svg_class-aggregationStart"><path d="M 18,7 L9,13 L1,7 L9,1 Z"/></marker></defs><defs><marker orient="auto" markerHeight="28" markerWidth="20" refY="7" refX="1" class="marker aggregation class" id="my-svg_class-aggregationEnd"><path d="M 18,7 L9,13 L1,7 L9,1 Z"/></marker></defs><defs><marker orient="auto" markerHeight="240" markerWidth="190" refY="7" refX="18" class="marker extension class" id="my-svg_class-extensionStart"><path d="M 1,7 L18,13 V 1 Z"/></marker></defs><defs><marker orient="auto" markerHeight="28" markerWidth="20" refY="7" refX="1" class="marker extension class" id="my-svg_class-extensionEnd"><path d="M 1,1 V 13 L18,7 Z"/></marker></defs><defs><marker orient="auto" markerHeight="240" markerWidth="190" refY="7" refX="18" class="marker composition class" id="my-svg_class-compositionStart"><path d="M 18,7 L9,13 L1,7 L9,1 Z"/></marker></defs><defs><marker orient="auto" markerHeight="28" markerWidth="20" refY="7" refX="1" class="marker composition class" id="my-svg_class-compositionEnd"><path d="M 18,7 L9,13 L1,7 L9,1 Z"/></marker></defs><defs><marker orient="auto" markerHeight="240" markerWidth="190" refY="7" refX="6" class="marker dependency class" id="my-svg_class-dependencyStart"><path d="M 5,7 L9,13 L1,7 L9,1 Z"/></marker></defs><defs><marker orient="auto" markerHeight="28" markerWidth="20" refY="7" refX="13" class="marker dependency class" id="my-svg_class-dependencyEnd"><path d="M 18,7 L9,13 L14,7 L9,1 Z"/></marker></defs><defs><marker orient="auto" markerHeight="240" markerWidth="190" refY="7" refX="13" class="marker lollipop class" id="my-svg_class-lollipopStart"><circle r="6" cy="7" cx="7" fill="transparent" stroke="black"/></marker></defs><defs><marker orient="auto" markerHeight="240" markerWidth="190" refY="7" refX="1" class="marker lollipop class" id="my-svg_class-lollipopEnd"><circle r="6" cy="7" cx="7" fill="transparent" stroke="black"/></marker></defs><g class="root"><g class="clusters"/><g class="edgePaths"><path marker-start="url(#my-svg_class-extensionStart)" style="" class="edge-thickness-normal edge-pattern-solid relation" id="id_ContentBlock_ChecklistBlock_1" d="M363.901,145.058L355.641,150.381C347.381,155.705,330.86,166.353,322.6,177.843C314.34,189.333,314.34,201.667,314.34,207.833L314.34,214"/><path marker-start="url(#my-svg_class-extensionStart)" style="" class="edge-thickness-normal edge-pattern-solid relation" id="id_ContentBlock_HeroBlock_2" d="M567.83,112.329L602.166,123.107C636.503,133.886,705.175,155.443,739.511,170.388C773.848,185.333,773.848,193.667,773.848,197.833L773.848,202"/><path marker-end="url(#my-svg_class-dependencyEnd)" style="" class="edge-thickness-normal edge-pattern-solid relation" id="id_ChecklistBlock_ResourceBlockFieldsPartial_3" d="M204.256,430L196.187,437.917C188.117,445.833,171.979,461.667,163.909,474.5C155.84,487.333,155.84,497.167,155.84,502.083L155.84,507"/><path marker-end="url(#my-svg_class-dependencyEnd)" style="" class="edge-thickness-normal edge-pattern-solid relation" id="id_ChecklistBlock_ChecklistFieldsPartial_4" d="M424.423,430L432.493,437.917C440.562,445.833,456.701,461.667,464.77,484.5C472.84,507.333,472.84,537.167,472.84,552.083L472.84,567"/><path marker-end="url(#my-svg_class-dependencyEnd)" style="" class="edge-thickness-normal edge-pattern-solid relation" id="id_HeroBlock_HeroFieldsPartial_5" d="M773.848,442L773.848,447.917C773.848,453.833,773.848,465.667,773.848,484.5C773.848,503.333,773.848,529.167,773.848,542.083L773.848,555"/></g><g class="edgeLabels"><g><rect style="stroke: none" class="background"/></g><g><rect style="stroke: none" class="background"/></g><g class="edgeLabel"><g transform="translate(0, 0)" class="label"><text y="-10.1"><tspan dy="1.1em" y="-0.1em" x="0" class="text-outer-tspan"/></text></g></g><g class="edgeLabel"><g transform="translate(0, 0)" class="label"><text y="-10.1"><tspan dy="1.1em" y="-0.1em" x="0" class="text-outer-tspan"/></text></g></g><g transform="translate(155.83984375, 477.5)" class="edgeLabel"><g transform="translate(-29.125, -10.5)" class="label"><g><rect height="21" width="58.25" y="0" x="-2" style=";display: inline-block" class="background"/><text style=";display: inline-block" y="-10.1"><tspan dy="1.1em" y="-0.1em" x="0" class="text-outer-tspan"><tspan font-weight="normal" class="text-inner-tspan" font-style="normal">renders</tspan></tspan></text></g></g></g><g transform="translate(472.83984375, 477.5)" class="edgeLabel"><g transform="translate(-29.125, -10.5)" class="label"><g><rect height="21" width="58.25" y="0" x="-2" style=";display: inline-block" class="background"/><text style=";display: inline-block" y="-10.1"><tspan dy="1.1em" y="-0.1em" x="0" class="text-outer-tspan"><tspan font-weight="normal" class="text-inner-tspan" font-style="normal">renders</tspan></tspan></text></g></g></g><g transform="translate(773.84765625, 477.5)" class="edgeLabel"><g transform="translate(-29.125, -10.5)" class="label"><g><rect height="21" width="58.25" y="0" x="-2" style=";display: inline-block" class="background"/><text style=";display: inline-block" y="-10.1"><tspan dy="1.1em" y="-0.1em" x="0" class="text-outer-tspan"><tspan font-weight="normal" class="text-inner-tspan" font-style="normal">renders</tspan></tspan></text></g></g></g></g><g class="nodes"><g transform="translate(464.84375, 80)" id="classId-ContentBlock-0" class="node default"><g class="basic label-container"><path style="" fill="#ECECFF" stroke-width="0" stroke="none" d="M-85.8125 -72 L85.8125 -72 L85.8125 72 L-85.8125 72"/><path style="" stroke-dasharray="0 0" fill="none" stroke-width="1.3" stroke="#9370DB" d="M-85.8125 -72 C-23.544243757882974 -72, 38.72401248423405 -72, 85.8125 -72 M-85.8125 -72 C-44.53661544635946 -72, -3.260730892718925 -72, 85.8125 -72 M85.8125 -72 C85.8125 -25.458200732145116, 85.8125 21.08359853570977, 85.8125 72 M85.8125 -72 C85.8125 -23.386536483802033, 85.8125 25.226927032395935, 85.8125 72 M85.8125 72 C43.27186081216108 72, 0.7312216243221599 72, -85.8125 72 M85.8125 72 C30.90899523358602 72, -23.994509532827962 72, -85.8125 72 M-85.8125 72 C-85.8125 36.44533970936007, -85.8125 0.8906794187201399, -85.8125 -72 M-85.8125 72 C-85.8125 32.026690628810385, -85.8125 -7.946618742379229, -85.8125 -72"/></g><g transform="translate(0, -48)" class="annotation-group text"/><g transform="translate(-52, -48)" class="label-group text"><g transform="translate(0,-12)" style="font-weight: bolder" class="label"><foreignObject height="24" width="104"><div style="display: table-cell; white-space: nowrap; line-height: 1.5; max-width: 146px; text-align: center;" xmlns="http://www.w3.org/1999/xhtml"><span style="" class="nodeLabel markdown-node-label"><p>ContentBlock</p></span></div></foreignObject></g></g><g transform="translate(-73.8125, 0)" class="members-group text"><g transform="translate(0,-12)" style="" class="label"><foreignObject height="24" width="69.828125"><div style="display: table-cell; white-space: nowrap; line-height: 1.5; max-width: 125px; text-align: center;" xmlns="http://www.w3.org/1999/xhtml"><span style="" class="nodeLabel markdown-node-label"><p>+identifier</p></span></div></foreignObject></g><g transform="translate(0,12)" style="" class="label"><foreignObject height="24" width="95.625"><div style="display: table-cell; white-space: nowrap; line-height: 1.5; max-width: 150px; text-align: center;" xmlns="http://www.w3.org/1999/xhtml"><span style="" class="nodeLabel markdown-node-label"><p>+block_name</p></span></div></foreignObject></g></g><g transform="translate(-73.8125, 72)" class="methods-group text"/><g style="" class="divider"><path style="" stroke-dasharray="0 0" fill="none" stroke-width="1.3" stroke="#9370DB" d="M-85.8125 -24 C-17.48370397251442 -24, 50.84509205497116 -24, 85.8125 -24 M-85.8125 -24 C-19.491008768576606 -24, 46.83048246284679 -24, 85.8125 -24"/></g><g style="" class="divider"><path style="" stroke-dasharray="0 0" fill="none" stroke-width="1.3" stroke="#9370DB" d="M-85.8125 48 C-40.13854915393403 48, 5.535401692131941 48, 85.8125 48 M-85.8125 48 C-30.082085335896366 48, 25.648329328207268 48, 85.8125 48"/></g></g><g transform="translate(314.33984375, 322)" id="classId-ChecklistBlock-1" class="node default"><g class="basic label-container"><path style="" fill="#ECECFF" stroke-width="0" stroke="none" d="M-120.5 -108 L120.5 -108 L120.5 108 L-120.5 108"/><path style="" stroke-dasharray="0 0" fill="none" stroke-width="1.3" stroke="#9370DB" d="M-120.5 -108 C-67.04377561032095 -108, -13.587551220641899 -108, 120.5 -108 M-120.5 -108 C-67.14006241557873 -108, -13.780124831157451 -108, 120.5 -108 M120.5 -108 C120.5 -42.287556318582006, 120.5 23.42488736283599, 120.5 108 M120.5 -108 C120.5 -63.11930975743066, 120.5 -18.238619514861327, 120.5 108 M120.5 108 C36.07239712501061 108, -48.35520574997878 108, -120.5 108 M120.5 108 C56.903481815543394 108, -6.693036368913212 108, -120.5 108 M-120.5 108 C-120.5 49.7824713946211, -120.5 -8.435057210757805, -120.5 -108 M-120.5 108 C-120.5 53.145112073828706, -120.5 -1.709775852342588, -120.5 -108"/></g><g transform="translate(0, -84)" class="annotation-group text"/><g transform="translate(-57.359375, -84)" class="label-group text"><g transform="translate(0,-12)" style="font-weight: bolder" class="label"><foreignObject height="24" width="114.71875"><div style="display: table-cell; white-space: nowrap; line-height: 1.5; max-width: 155px; text-align: center;" xmlns="http://www.w3.org/1999/xhtml"><span style="" class="nodeLabel markdown-node-label"><p>ChecklistBlock</p></span></div></foreignObject></g></g><g transform="translate(-108.5, -36)" class="members-group text"><g transform="translate(0,-12)" style="" class="label"><foreignObject height="24" width="100.953125"><div style="display: table-cell; white-space: nowrap; line-height: 1.5; max-width: 155px; text-align: center;" xmlns="http://www.w3.org/1999/xhtml"><span style="" class="nodeLabel markdown-node-label"><p>+display_style</p></span></div></foreignObject></g><g transform="translate(0,12)" style="" class="label"><foreignObject height="24" width="76.90625"><div style="display: table-cell; white-space: nowrap; line-height: 1.5; max-width: 132px; text-align: center;" xmlns="http://www.w3.org/1999/xhtml"><span style="" class="nodeLabel markdown-node-label"><p>+item_limit</p></span></div></foreignObject></g><g transform="translate(0,36)" style="" class="label"><foreignObject height="24" width="159.640625"><div style="display: table-cell; white-space: nowrap; line-height: 1.5; max-width: 214px; text-align: center;" xmlns="http://www.w3.org/1999/xhtml"><span style="" class="nodeLabel markdown-node-label"><p>+community_scope_id</p></span></div></foreignObject></g><g transform="translate(0,60)" style="" class="label"><foreignObject height="24" width="100.953125"><div style="display: table-cell; white-space: nowrap; line-height: 1.5; max-width: 155px; text-align: center;" xmlns="http://www.w3.org/1999/xhtml"><span style="" class="nodeLabel markdown-node-label"><p>+resource_ids</p></span></div></foreignObject></g><g transform="translate(0,84)" style="" class="label"><foreignObject height="24" width="92.046875"><div style="display: table-cell; white-space: nowrap; line-height: 1.5; max-width: 147px; text-align: center;" xmlns="http://www.w3.org/1999/xhtml"><span style="" class="nodeLabel markdown-node-label"><p>+checklist_id</p></span></div></foreignObject></g></g><g transform="translate(-108.5, 108)" class="methods-group text"/><g style="" class="divider"><path style="" stroke-dasharray="0 0" fill="none" stroke-width="1.3" stroke="#9370DB" d="M-120.5 -60 C-65.81404042574843 -60, -11.128080851496861 -60, 120.5 -60 M-120.5 -60 C-47.629882466002286 -60, 25.240235067995428 -60, 120.5 -60"/></g><g style="" class="divider"><path style="" stroke-dasharray="0 0" fill="none" stroke-width="1.3" stroke="#9370DB" d="M-120.5 84 C-66.23342427618584 84, -11.966848552371701 84, 120.5 84 M-120.5 84 C-26.045193237542975 84, 68.40961352491405 84, 120.5 84"/></g></g><g transform="translate(773.84765625, 322)" id="classId-HeroBlock-2" class="node default"><g class="basic label-container"><path style="" fill="#ECECFF" stroke-width="0" stroke="none" d="M-94.9453125 -120 L94.9453125 -120 L94.9453125 120 L-94.9453125 120"/><path style="" stroke-dasharray="0 0" fill="none" stroke-width="1.3" stroke="#9370DB" d="M-94.9453125 -120 C-41.06146740481154 -120, 12.822377690376925 -120, 94.9453125 -120 M-94.9453125 -120 C-25.740535838433203 -120, 43.46424082313359 -120, 94.9453125 -120 M94.9453125 -120 C94.9453125 -67.28133189067898, 94.9453125 -14.562663781357955, 94.9453125 120 M94.9453125 -120 C94.9453125 -48.34836160686061, 94.9453125 23.303276786278786, 94.9453125 120 M94.9453125 120 C36.31743029848805 120, -22.310451903023903 120, -94.9453125 120 M94.9453125 120 C43.74971084448473 120, -7.445890811030537 120, -94.9453125 120 M-94.9453125 120 C-94.9453125 26.161293146829678, -94.9453125 -67.67741370634064, -94.9453125 -120 M-94.9453125 120 C-94.9453125 35.15354931301894, -94.9453125 -49.692901373962115, -94.9453125 -120"/></g><g transform="translate(0, -96)" class="annotation-group text"/><g transform="translate(-40.015625, -96)" class="label-group text"><g transform="translate(0,-12)" style="font-weight: bolder" class="label"><foreignObject height="24" width="80.03125"><div style="display: table-cell; white-space: nowrap; line-height: 1.5; max-width: 125px; text-align: center;" xmlns="http://www.w3.org/1999/xhtml"><span style="" class="nodeLabel markdown-node-label"><p>HeroBlock</p></span></div></foreignObject></g></g><g transform="translate(-82.9453125, -48)" class="members-group text"><g transform="translate(0,-12)" style="" class="label"><foreignObject height="24" width="66.296875"><div style="display: table-cell; white-space: nowrap; line-height: 1.5; max-width: 121px; text-align: center;" xmlns="http://www.w3.org/1999/xhtml"><span style="" class="nodeLabel markdown-node-label"><p>+heading</p></span></div></foreignObject></g><g transform="translate(0,12)" style="" class="label"><foreignObject height="24" width="61.828125"><div style="display: table-cell; white-space: nowrap; line-height: 1.5; max-width: 117px; text-align: center;" xmlns="http://www.w3.org/1999/xhtml"><span style="" class="nodeLabel markdown-node-label"><p>+content</p></span></div></foreignObject></g><g transform="translate(0,36)" style="" class="label"><foreignObject height="24" width="109.875"><div style="display: table-cell; white-space: nowrap; line-height: 1.5; max-width: 165px; text-align: center;" xmlns="http://www.w3.org/1999/xhtml"><span style="" class="nodeLabel markdown-node-label"><p>+heading_color</p></span></div></foreignObject></g><g transform="translate(0,60)" style="" class="label"><foreignObject height="24" width="125.875"><div style="display: table-cell; white-space: nowrap; line-height: 1.5; max-width: 181px; text-align: center;" xmlns="http://www.w3.org/1999/xhtml"><span style="" class="nodeLabel markdown-node-label"><p>+paragraph_color</p></span></div></foreignObject></g><g transform="translate(0,84)" style="" class="label"><foreignObject height="24" width="65.375"><div style="display: table-cell; white-space: nowrap; line-height: 1.5; max-width: 120px; text-align: center;" xmlns="http://www.w3.org/1999/xhtml"><span style="" class="nodeLabel markdown-node-label"><p>+cta_text</p></span></div></foreignObject></g><g transform="translate(0,108)" style="" class="label"><foreignObject height="24" width="57.375"><div style="display: table-cell; white-space: nowrap; line-height: 1.5; max-width: 112px; text-align: center;" xmlns="http://www.w3.org/1999/xhtml"><span style="" class="nodeLabel markdown-node-label"><p>+cta_url</p></span></div></foreignObject></g></g><g transform="translate(-82.9453125, 120)" class="methods-group text"/><g style="" class="divider"><path style="" stroke-dasharray="0 0" fill="none" stroke-width="1.3" stroke="#9370DB" d="M-94.9453125 -72 C-32.12683475289801 -72, 30.691642994203974 -72, 94.9453125 -72 M-94.9453125 -72 C-38.6929706253893 -72, 17.5593712492214 -72, 94.9453125 -72"/></g><g style="" class="divider"><path style="" stroke-dasharray="0 0" fill="none" stroke-width="1.3" stroke="#9370DB" d="M-94.9453125 96 C-50.77856976296023 96, -6.611827025920462 96, 94.9453125 96 M-94.9453125 96 C-53.209399869353255 96, -11.473487238706511 96, 94.9453125 96"/></g></g><g transform="translate(155.83984375, 633)" id="classId-ResourceBlockFieldsPartial-3" class="node default"><g class="basic label-container"><path style="" fill="#ECECFF" stroke-width="0" stroke="none" d="M-147.83984375 -120 L147.83984375 -120 L147.83984375 120 L-147.83984375 120"/><path style="" stroke-dasharray="0 0" fill="none" stroke-width="1.3" stroke="#9370DB" d="M-147.83984375 -120 C-52.62726994612039 -120, 42.585303857759214 -120, 147.83984375 -120 M-147.83984375 -120 C-76.59075337773655 -120, -5.3416630054730945 -120, 147.83984375 -120 M147.83984375 -120 C147.83984375 -32.227496526263494, 147.83984375 55.54500694747301, 147.83984375 120 M147.83984375 -120 C147.83984375 -42.807872508570455, 147.83984375 34.38425498285909, 147.83984375 120 M147.83984375 120 C75.18408138047378 120, 2.5283190109475697 120, -147.83984375 120 M147.83984375 120 C29.737376127549638 120, -88.36509149490072 120, -147.83984375 120 M-147.83984375 120 C-147.83984375 71.01239917460238, -147.83984375 22.024798349204758, -147.83984375 -120 M-147.83984375 120 C-147.83984375 31.764569349685573, -147.83984375 -56.470861300628854, -147.83984375 -120"/></g><g transform="translate(0, -96)" class="annotation-group text"/><g transform="translate(-105.8203125, -96)" class="label-group text"><g transform="translate(0,-12)" style="font-weight: bolder" class="label"><foreignObject height="24" width="211.640625"><div style="display: table-cell; white-space: nowrap; line-height: 1.5; max-width: 246px; text-align: center;" xmlns="http://www.w3.org/1999/xhtml"><span style="" class="nodeLabel markdown-node-label"><p>ResourceBlockFieldsPartial</p></span></div></foreignObject></g></g><g transform="translate(-135.83984375, -48)" class="members-group text"><g transform="translate(0,-12)" style="" class="label"><foreignObject height="24" width="100.953125"><div style="display: table-cell; white-space: nowrap; line-height: 1.5; max-width: 155px; text-align: center;" xmlns="http://www.w3.org/1999/xhtml"><span style="" class="nodeLabel markdown-node-label"><p>+display_style</p></span></div></foreignObject></g><g transform="translate(0,12)" style="" class="label"><foreignObject height="24" width="76.90625"><div style="display: table-cell; white-space: nowrap; line-height: 1.5; max-width: 132px; text-align: center;" xmlns="http://www.w3.org/1999/xhtml"><span style="" class="nodeLabel markdown-node-label"><p>+item_limit</p></span></div></foreignObject></g><g transform="translate(0,36)" style="" class="label"><foreignObject height="24" width="159.640625"><div style="display: table-cell; white-space: nowrap; line-height: 1.5; max-width: 214px; text-align: center;" xmlns="http://www.w3.org/1999/xhtml"><span style="" class="nodeLabel markdown-node-label"><p>+community_scope_id</p></span></div></foreignObject></g><g transform="translate(0,60)" style="" class="label"><foreignObject height="24" width="100.953125"><div style="display: table-cell; white-space: nowrap; line-height: 1.5; max-width: 155px; text-align: center;" xmlns="http://www.w3.org/1999/xhtml"><span style="" class="nodeLabel markdown-node-label"><p>+resource_ids</p></span></div></foreignObject></g><g transform="translate(0,84)" style="" class="label"><foreignObject height="24" width="165.859375"><div style="display: table-cell; white-space: nowrap; line-height: 1.5; max-width: 221px; text-align: center;" xmlns="http://www.w3.org/1999/xhtml"><span style="" class="nodeLabel markdown-node-label"><p>+show_view_more_link</p></span></div></foreignObject></g><g transform="translate(0,108)" style="" class="label"><foreignObject height="24" width="113.390625"><div style="display: table-cell; white-space: nowrap; line-height: 1.5; max-width: 168px; text-align: center;" xmlns="http://www.w3.org/1999/xhtml"><span style="" class="nodeLabel markdown-node-label"><p>+view_more_url</p></span></div></foreignObject></g></g><g transform="translate(-135.83984375, 120)" class="methods-group text"/><g style="" class="divider"><path style="" stroke-dasharray="0 0" fill="none" stroke-width="1.3" stroke="#9370DB" d="M-147.83984375 -72 C-61.48943428305053 -72, 24.860975183898944 -72, 147.83984375 -72 M-147.83984375 -72 C-52.506499386097204 -72, 42.82684497780559 -72, 147.83984375 -72"/></g><g style="" class="divider"><path style="" stroke-dasharray="0 0" fill="none" stroke-width="1.3" stroke="#9370DB" d="M-147.83984375 96 C-72.17665349915106 96, 3.4865367516978836 96, 147.83984375 96 M-147.83984375 96 C-86.55116978948728 96, -25.26249582897455 96, 147.83984375 96"/></g></g><g transform="translate(472.83984375, 633)" id="classId-ChecklistFieldsPartial-4" class="node default"><g class="basic label-container"><path style="" fill="#ECECFF" stroke-width="0" stroke="none" d="M-119.16015625 -60 L119.16015625 -60 L119.16015625 60 L-119.16015625 60"/><path style="" stroke-dasharray="0 0" fill="none" stroke-width="1.3" stroke="#9370DB" d="M-119.16015625 -60 C-53.67559430886948 -60, 11.808967632261044 -60, 119.16015625 -60 M-119.16015625 -60 C-42.68645224518022 -60, 33.78725175963956 -60, 119.16015625 -60 M119.16015625 -60 C119.16015625 -17.38601482894066, 119.16015625 25.22797034211868, 119.16015625 60 M119.16015625 -60 C119.16015625 -14.656743993082927, 119.16015625 30.686512013834147, 119.16015625 60 M119.16015625 60 C52.2831821194671 60, -14.593792011065801 60, -119.16015625 60 M119.16015625 60 C39.65972063240302 60, -39.840714985193955 60, -119.16015625 60 M-119.16015625 60 C-119.16015625 23.42612734193426, -119.16015625 -13.147745316131477, -119.16015625 -60 M-119.16015625 60 C-119.16015625 15.178443722892403, -119.16015625 -29.643112554215193, -119.16015625 -60"/></g><g transform="translate(0, -36)" class="annotation-group text"/><g transform="translate(-83.1484375, -36)" class="label-group text"><g transform="translate(0,-12)" style="font-weight: bolder" class="label"><foreignObject height="24" width="166.296875"><div style="display: table-cell; white-space: nowrap; line-height: 1.5; max-width: 203px; text-align: center;" xmlns="http://www.w3.org/1999/xhtml"><span style="" class="nodeLabel markdown-node-label"><p>ChecklistFieldsPartial</p></span></div></foreignObject></g></g><g transform="translate(-107.16015625, 12)" class="members-group text"><g transform="translate(0,-12)" style="" class="label"><foreignObject height="24" width="131.171875"><div style="display: table-cell; white-space: nowrap; line-height: 1.5; max-width: 186px; text-align: center;" xmlns="http://www.w3.org/1999/xhtml"><span style="" class="nodeLabel markdown-node-label"><p>+checklist selector</p></span></div></foreignObject></g></g><g transform="translate(-107.16015625, 60)" class="methods-group text"/><g style="" class="divider"><path style="" stroke-dasharray="0 0" fill="none" stroke-width="1.3" stroke="#9370DB" d="M-119.16015625 -12 C-43.443182302388095 -12, 32.27379164522381 -12, 119.16015625 -12 M-119.16015625 -12 C-41.26046453647831 -12, 36.63922717704338 -12, 119.16015625 -12"/></g><g style="" class="divider"><path style="" stroke-dasharray="0 0" fill="none" stroke-width="1.3" stroke="#9370DB" d="M-119.16015625 36 C-67.69008383598606 36, -16.22001142197213 36, 119.16015625 36 M-119.16015625 36 C-43.44906475020676 36, 32.26202674958648 36, 119.16015625 36"/></g></g><g transform="translate(773.84765625, 633)" id="classId-HeroFieldsPartial-5" class="node default"><g class="basic label-container"><path style="" fill="#ECECFF" stroke-width="0" stroke="none" d="M-131.84765625 -72 L131.84765625 -72 L131.84765625 72 L-131.84765625 72"/><path style="" stroke-dasharray="0 0" fill="none" stroke-width="1.3" stroke="#9370DB" d="M-131.84765625 -72 C-35.872891777039 -72, 60.101872695922 -72, 131.84765625 -72 M-131.84765625 -72 C-61.719090791738296 -72, 8.409474666523408 -72, 131.84765625 -72 M131.84765625 -72 C131.84765625 -38.853712449635104, 131.84765625 -5.707424899270208, 131.84765625 72 M131.84765625 -72 C131.84765625 -17.256210373265425, 131.84765625 37.48757925346915, 131.84765625 72 M131.84765625 72 C71.87463541123414 72, 11.901614572468276 72, -131.84765625 72 M131.84765625 72 C48.36989269060358 72, -35.107870868792844 72, -131.84765625 72 M-131.84765625 72 C-131.84765625 25.323593378261037, -131.84765625 -21.352813243477925, -131.84765625 -72 M-131.84765625 72 C-131.84765625 19.054572202380108, -131.84765625 -33.890855595239785, -131.84765625 -72"/></g><g transform="translate(0, -48)" class="annotation-group text"/><g transform="translate(-65.8046875, -48)" class="label-group text"><g transform="translate(0,-12)" style="font-weight: bolder" class="label"><foreignObject height="24" width="131.609375"><div style="display: table-cell; white-space: nowrap; line-height: 1.5; max-width: 173px; text-align: center;" xmlns="http://www.w3.org/1999/xhtml"><span style="" class="nodeLabel markdown-node-label"><p>HeroFieldsPartial</p></span></div></foreignObject></g></g><g transform="translate(-119.84765625, 0)" class="members-group text"><g transform="translate(0,-12)" style="" class="label"><foreignObject height="24" width="157.890625"><div style="display: table-cell; white-space: nowrap; line-height: 1.5; max-width: 212px; text-align: center;" xmlns="http://www.w3.org/1999/xhtml"><span style="" class="nodeLabel markdown-node-label"><p>+heading color control</p></span></div></foreignObject></g><g transform="translate(0,12)" style="" class="label"><foreignObject height="24" width="173.890625"><div style="display: table-cell; white-space: nowrap; line-height: 1.5; max-width: 228px; text-align: center;" xmlns="http://www.w3.org/1999/xhtml"><span style="" class="nodeLabel markdown-node-label"><p>+paragraph color control</p></span></div></foreignObject></g></g><g transform="translate(-119.84765625, 72)" class="methods-group text"/><g style="" class="divider"><path style="" stroke-dasharray="0 0" fill="none" stroke-width="1.3" stroke="#9370DB" d="M-131.84765625 -24 C-71.7163682528797 -24, -11.585080255759394 -24, 131.84765625 -24 M-131.84765625 -24 C-75.3658593783745 -24, -18.88406250674899 -24, 131.84765625 -24"/></g><g style="" class="divider"><path style="" stroke-dasharray="0 0" fill="none" stroke-width="1.3" stroke="#9370DB" d="M-131.84765625 48 C-40.264875899904595 48, 51.31790445019081 48, 131.84765625 48 M-131.84765625 48 C-59.03301848677373 48, 13.781619276452545 48, 131.84765625 48"/></g></g></g></g></g></svg>