<svg aria-roledescription="class" role="graphics-document document" viewBox="0 0 428.9375 928" style="max-width: 428.938px; background-color: transparent;" class="classDiagram" xmlns:xlink="http://www.w3.org/1999/xlink" xmlns="http://www.w3.org/2000/svg" width="100%" id="my-svg"><style>#my-svg{font-family:"trebuchet ms",verdana,arial,sans-serif;font-size:16px;fill:#333;}@keyframes edge-animation-frame{from{stroke-dashoffset:0;}}@keyframes dash{to{stroke-dashoffset:0;}}#my-svg .edge-animation-slow{stroke-dasharray:9,5!important;stroke-dashoffset:900;animation:dash 50s linear infinite;stroke-linecap:round;}#my-svg .edge-animation-fast{stroke-dasharray:9,5!important;stroke-dashoffset:900;animation:dash 20s linear infinite;stroke-linecap:round;}#my-svg .error-icon{fill:#552222;}#my-svg .error-text{fill:#552222;stroke:#552222;}#my-svg .edge-thickness-normal{stroke-width:1px;}#my-svg .edge-thickness-thick{stroke-width:3.5px;}#my-svg .edge-pattern-solid{stroke-dasharray:0;}#my-svg .edge-thickness-invisible{stroke-width:0;fill:none;}#my-svg .edge-pattern-dashed{stroke-dasharray:3;}#my-svg .edge-pattern-dotted{stroke-dasharray:2;}#my-svg .marker{fill:#333333;stroke:#333333;}#my-svg .marker.cross{stroke:#333333;}#my-svg svg{font-family:"trebuchet ms",verdana,arial,sans-serif;font-size:16px;}#my-svg p{margin:0;}#my-svg g.classGroup text{fill:#9370DB;stroke:none;font-family:"trebuchet ms",verdana,arial,sans-serif;font-size:10px;}#my-svg g.classGroup text .title{font-weight:bolder;}#my-svg .nodeLabel,#my-svg .edgeLabel{color:#131300;}#my-svg .edgeLabel .label rect{fill:#ECECFF;}#my-svg .label text{fill:#131300;}#my-svg .labelBkg{background:#ECECFF;}#my-svg .edgeLabel .label span{background:#ECECFF;}#my-svg .classTitle{font-weight:bolder;}#my-svg .node rect,#my-svg .node circle,#my-svg .node ellipse,#my-svg .node polygon,#my-svg .node path{fill:#ECECFF;stroke:#9370DB;stroke-width:1px;}#my-svg .divider{stroke:#9370DB;stroke-width:1;}#my-svg g.clickable{cursor:pointer;}#my-svg g.classGroup rect{fill:#ECECFF;stroke:#9370DB;}#my-svg g.classGroup line{stroke:#9370DB;stroke-width:1;}#my-svg .classLabel .box{stroke:none;stroke-width:0;fill:#ECECFF;opacity:0.5;}#my-svg .classLabel .label{fill:#9370DB;font-size:10px;}#my-svg .relation{stroke:#333333;stroke-width:1;fill:none;}#my-svg .dashed-line{stroke-dasharray:3;}#my-svg .dotted-line{stroke-dasharray:1 2;}#my-svg #compositionStart,#my-svg .composition{fill:#333333!important;stroke:#333333!important;stroke-width:1;}#my-svg #compositionEnd,#my-svg .composition{fill:#333333!important;stroke:#333333!important;stroke-width:1;}#my-svg #dependencyStart,#my-svg .dependency{fill:#333333!important;stroke:#333333!important;stroke-width:1;}#my-svg #dependencyStart,#my-svg .dependency{fill:#333333!important;stroke:#333333!important;stroke-width:1;}#my-svg #extensionStart,#my-svg .extension{fill:transparent!important;stroke:#333333!important;stroke-width:1;}#my-svg #extensionEnd,#my-svg .extension{fill:transparent!important;stroke:#333333!important;stroke-width:1;}#my-svg #aggregationStart,#my-svg .aggregation{fill:transparent!important;stroke:#333333!important;stroke-width:1;}#my-svg #aggregationEnd,#my-svg .aggregation{fill:transparent!important;stroke:#333333!important;stroke-width:1;}#my-svg #lollipopStart,#my-svg .lollipop{fill:#ECECFF!important;stroke:#333333!important;stroke-width:1;}#my-svg #lollipopEnd,#my-svg .lollipop{fill:#ECECFF!important;stroke:#333333!important;stroke-width:1;}#my-svg .edgeTerminals{font-size:11px;line-height:initial;}#my-svg .classTitleText{text-anchor:middle;font-size:18px;fill:#333;}#my-svg .label-icon{display:inline-block;height:1em;overflow:visible;vertical-align:-0.125em;}#my-svg .node .label-icon path{fill:currentColor;stroke:revert;stroke-width:revert;}#my-svg :root{--mermaid-font-family:"trebuchet ms",verdana,arial,sans-serif;}</style><g><defs><marker orient="auto" markerHeight="240" markerWidth="190" refY="7" refX="18" class="marker aggregation class" id="my-svg_class-aggregationStart"><path d="M 18,7 L9,13 L1,7 L9,1 Z"/></marker></defs><defs><marker orient="auto" markerHeight="28" markerWidth="20" refY="7" refX="1" class="marker aggregation class" id="my-svg_class-aggregationEnd"><path d="M 18,7 L9,13 L1,7 L9,1 Z"/></marker></defs><defs><marker orient="auto" markerHeight="240" markerWidth="190" refY="7" refX="18" class="marker extension class" id="my-svg_class-extensionStart"><path d="M 1,7 L18,13 V 1 Z"/></marker></defs><defs><marker orient="auto" markerHeight="28" markerWidth="20" refY="7" refX="1" class="marker extension class" id="my-svg_class-extensionEnd"><path d="M 1,1 V 13 L18,7 Z"/></marker></defs><defs><marker orient="auto" markerHeight="240" markerWidth="190" refY="7" refX="18" class="marker composition class" id="my-svg_class-compositionStart"><path d="M 18,7 L9,13 L1,7 L9,1 Z"/></marker></defs><defs><marker orient="auto" markerHeight="28" markerWidth="20" refY="7" refX="1" class="marker composition class" id="my-svg_class-compositionEnd"><path d="M 18,7 L9,13 L1,7 L9,1 Z"/></marker></defs><defs><marker orient="auto" markerHeight="240" markerWidth="190" refY="7" refX="6" class="marker dependency class" id="my-svg_class-dependencyStart"><path d="M 5,7 L9,13 L1,7 L9,1 Z"/></marker></defs><defs><marker orient="auto" markerHeight="28" markerWidth="20" refY="7" refX="13" class="marker dependency class" id="my-svg_class-dependencyEnd"><path d="M 18,7 L9,13 L14,7 L9,1 Z"/></marker></defs><defs><marker orient="auto" markerHeight="240" markerWidth="190" refY="7" refX="13" class="marker lollipop class" id="my-svg_class-lollipopStart"><circle r="6" cy="7" cx="7" fill="transparent" stroke="black"/></marker></defs><defs><marker orient="auto" markerHeight="240" markerWidth="190" refY="7" refX="1" class="marker lollipop class" id="my-svg_class-lollipopEnd"><circle r="6" cy="7" cx="7" fill="transparent" stroke="black"/></marker></defs><g class="root"><g class="clusters"/><g class="edgePaths"><path marker-end="url(#my-svg_class-dependencyEnd)" style="" class="edge-thickness-normal edge-pattern-solid relation" id="id_ApplicationController_BetterTogether_1" d="M214.469,182L214.469,188.167C214.469,194.333,214.469,206.667,214.469,218C214.469,229.333,214.469,239.667,214.469,244.833L214.469,250"/><path marker-end="url(#my-svg_class-dependencyEnd)" style="" class="edge-thickness-normal edge-pattern-solid relation" id="id_BetterTogether_AdapterRegistry_2" d="M214.469,454L214.469,460.167C214.469,466.333,214.469,478.667,214.469,490C214.469,501.333,214.469,511.667,214.469,516.833L214.469,522"/><path marker-end="url(#my-svg_class-dependencyEnd)" style="" class="edge-thickness-normal edge-pattern-solid relation" id="id_AdapterRegistry_ErrorReporterAdapter_3" d="M139.302,702L133.974,708.167C128.646,714.333,117.99,726.667,112.662,741C107.334,755.333,107.334,771.667,107.334,779.833L107.334,788"/><path marker-end="url(#my-svg_class-dependencyEnd)" style="" class="edge-thickness-normal edge-pattern-solid relation" id="id_AdapterRegistry_DispatchError_4" d="M289.636,702L294.964,708.167C300.292,714.333,310.948,726.667,316.276,738C321.604,749.333,321.604,759.667,321.604,764.833L321.604,770"/></g><g class="edgeLabels"><g transform="translate(214.46875, 219)" class="edgeLabel"><g transform="translate(-42.2421875, -12)" class="label"><foreignObject height="24" width="84.484375"><div class="labelBkg" xmlns="http://www.w3.org/1999/xhtml" style="display: table-cell; white-space: nowrap; line-height: 1.5; max-width: 200px; text-align: center;"><span class="edgeLabel" style=";display: inline-block"><p>report_error</p></span></div></foreignObject></g></g><g transform="translate(214.46875, 491)" class="edgeLabel"><g transform="translate(-34.6953125, -12)" class="label"><foreignObject height="24" width="69.390625"><div class="labelBkg" xmlns="http://www.w3.org/1999/xhtml" style="display: table-cell; white-space: nowrap; line-height: 1.5; max-width: 200px; text-align: center;"><span class="edgeLabel" style=";display: inline-block"><p>delegates</p></span></div></foreignObject></g></g><g transform="translate(107.333984375, 739)" class="edgeLabel"><g transform="translate(-68.9296875, -12)" class="label"><foreignObject height="24" width="137.859375"><div class="labelBkg" xmlns="http://www.w3.org/1999/xhtml" style="display: table-cell; white-space: nowrap; line-height: 1.5; max-width: 200px; text-align: center;"><span class="edgeLabel" style=";display: inline-block"><p>dispatches to many</p></span></div></foreignObject></g></g><g transform="translate(321.603515625, 739)" class="edgeLabel"><g transform="translate(-94.7109375, -12)" class="label"><foreignObject height="24" width="189.421875"><div class="labelBkg" xmlns="http://www.w3.org/1999/xhtml" style="display: table-cell; white-space: nowrap; line-height: 1.5; max-width: 200px; text-align: center;"><span class="edgeLabel" style=";display: inline-block"><p>raises after fan-out failures</p></span></div></foreignObject></g></g></g><g class="nodes"><g transform="translate(214.46875, 95)" id="classId-ApplicationController-0" class="node default"><g class="basic label-container"><path style="" fill="#ECECFF" stroke-width="0" stroke="none" d="M-150.0546875 -87 L150.0546875 -87 L150.0546875 87 L-150.0546875 87"/><path style="" stroke-dasharray="0 0" fill="none" stroke-width="1.3" stroke="#9370DB" d="M-150.0546875 -87 C-80.97614836713842 -87, -11.897609234276842 -87, 150.0546875 -87 M-150.0546875 -87 C-90.0009955689825 -87, -29.947303637965007 -87, 150.0546875 -87 M150.0546875 -87 C150.0546875 -35.326580286295325, 150.0546875 16.34683942740935, 150.0546875 87 M150.0546875 -87 C150.0546875 -18.2338242111788, 150.0546875 50.5323515776424, 150.0546875 87 M150.0546875 87 C86.63835905029859 87, 23.222030600597165 87, -150.0546875 87 M150.0546875 87 C62.63821969016884 87, -24.778248119662322 87, -150.0546875 87 M-150.0546875 87 C-150.0546875 30.73233230938773, -150.0546875 -25.53533538122454, -150.0546875 -87 M-150.0546875 87 C-150.0546875 30.24756745656515, -150.0546875 -26.5048650868697, -150.0546875 -87"/></g><g transform="translate(0, -63)" class="annotation-group text"/><g transform="translate(-81.78125, -63)" class="label-group text"><g transform="translate(0,-12)" style="font-weight: bolder" class="label"><foreignObject height="24" width="163.5625"><div style="display: table-cell; white-space: nowrap; line-height: 1.5; max-width: 192px; text-align: center;" xmlns="http://www.w3.org/1999/xhtml"><span style="" class="nodeLabel markdown-node-label"><p>ApplicationController</p></span></div></foreignObject></g></g><g transform="translate(-138.0546875, -15)" class="members-group text"/><g transform="translate(-138.0546875, 15)" class="methods-group text"><g transform="translate(0,-12)" style="" class="label"><foreignObject height="24" width="179.21875"><div style="display: table-cell; white-space: nowrap; line-height: 1.5; max-width: 218px; text-align: center;" xmlns="http://www.w3.org/1999/xhtml"><span style="" class="nodeLabel markdown-node-label"><p>+handle_error(exception)</p></span></div></foreignObject></g><g transform="translate(0,12)" style="" class="label"><foreignObject height="24" width="194.328125"><div style="display: table-cell; white-space: nowrap; line-height: 1.5; max-width: 234px; text-align: center;" xmlns="http://www.w3.org/1999/xhtml"><span style="" class="nodeLabel markdown-node-label"><p>+error_reporting(exception)</p></span></div></foreignObject></g><g transform="translate(0,36)" style="" class="label"><foreignObject height="24" width="186.3125"><div style="display: table-cell; white-space: nowrap; line-height: 1.5; max-width: 227px; text-align: center;" xmlns="http://www.w3.org/1999/xhtml"><span style="" class="nodeLabel markdown-node-label"><p>+error_reporting_context()</p></span></div></foreignObject></g></g><g style="" class="divider"><path style="" stroke-dasharray="0 0" fill="none" stroke-width="1.3" stroke="#9370DB" d="M-150.0546875 -39 C-31.875696848278892 -39, 86.30329380344222 -39, 150.0546875 -39 M-150.0546875 -39 C-41.33264904011497 -39, 67.38938941977005 -39, 150.0546875 -39"/></g><g style="" class="divider"><path style="" stroke-dasharray="0 0" fill="none" stroke-width="1.3" stroke="#9370DB" d="M-150.0546875 -15 C-57.68079676962196 -15, 34.69309396075607 -15, 150.0546875 -15 M-150.0546875 -15 C-87.83776833857176 -15, -25.620849177143526 -15, 150.0546875 -15"/></g></g><g transform="translate(214.46875, 355)" id="classId-BetterTogether-1" class="node default"><g class="basic label-container"><path style="" fill="#ECECFF" stroke-width="0" stroke="none" d="M-206.46875 -99 L206.46875 -99 L206.46875 99 L-206.46875 99"/><path style="" stroke-dasharray="0 0" fill="none" stroke-width="1.3" stroke="#9370DB" d="M-206.46875 -99 C-74.57336568882243 -99, 57.32201862235513 -99, 206.46875 -99 M-206.46875 -99 C-94.86138957696686 -99, 16.745970846066285 -99, 206.46875 -99 M206.46875 -99 C206.46875 -45.55705873899808, 206.46875 7.88588252200384, 206.46875 99 M206.46875 -99 C206.46875 -54.386297205910395, 206.46875 -9.77259441182079, 206.46875 99 M206.46875 99 C98.01188014841334 99, -10.44498970317332 99, -206.46875 99 M206.46875 99 C64.75434775104969 99, -76.96005449790061 99, -206.46875 99 M-206.46875 99 C-206.46875 24.285712047596178, -206.46875 -50.428575904807644, -206.46875 -99 M-206.46875 99 C-206.46875 40.324971946055705, -206.46875 -18.35005610788859, -206.46875 -99"/></g><g transform="translate(0, -75)" class="annotation-group text"/><g transform="translate(-56.75, -75)" class="label-group text"><g transform="translate(0,-12)" style="font-weight: bolder" class="label"><foreignObject height="24" width="113.5"><div style="display: table-cell; white-space: nowrap; line-height: 1.5; max-width: 146px; text-align: center;" xmlns="http://www.w3.org/1999/xhtml"><span style="" class="nodeLabel markdown-node-label"><p>BetterTogether</p></span></div></foreignObject></g></g><g transform="translate(-194.46875, -27)" class="members-group text"/><g transform="translate(-194.46875, 3)" class="methods-group text"><g transform="translate(0,-12)" style="" class="label"><foreignObject height="24" width="289.515625"><div style="display: table-cell; white-space: nowrap; line-height: 1.5; max-width: 312px; text-align: center;" xmlns="http://www.w3.org/1999/xhtml"><span style="" class="nodeLabel markdown-node-label"><p>+register_adapter(group, name, adapter)</p></span></div></foreignObject></g><g transform="translate(0,12)" style="" class="label"><foreignObject height="24" width="332.1875"><div style="display: table-cell; white-space: nowrap; line-height: 1.5; max-width: 359px; text-align: center;" xmlns="http://www.w3.org/1999/xhtml"><span style="" class="nodeLabel markdown-node-label"><p>+dispatch_to_adapters(group, *args, **kwargs)</p></span></div></foreignObject></g><g transform="translate(0,36)" style="" class="label"><foreignObject height="24" width="285.890625"><div style="display: table-cell; white-space: nowrap; line-height: 1.5; max-width: 313px; text-align: center;" xmlns="http://www.w3.org/1999/xhtml"><span style="" class="nodeLabel markdown-node-label"><p>+register_error_reporter(name, reporter)</p></span></div></foreignObject></g><g transform="translate(0,60)" style="" class="label"><foreignObject height="24" width="233.453125"><div style="display: table-cell; white-space: nowrap; line-height: 1.5; max-width: 269px; text-align: center;" xmlns="http://www.w3.org/1999/xhtml"><span style="" class="nodeLabel markdown-node-label"><p>+report_error(exception, context)</p></span></div></foreignObject></g></g><g style="" class="divider"><path style="" stroke-dasharray="0 0" fill="none" stroke-width="1.3" stroke="#9370DB" d="M-206.46875 -51 C-117.58593138749252 -51, -28.703112774985044 -51, 206.46875 -51 M-206.46875 -51 C-110.7350432085414 -51, -15.001336417082797 -51, 206.46875 -51"/></g><g style="" class="divider"><path style="" stroke-dasharray="0 0" fill="none" stroke-width="1.3" stroke="#9370DB" d="M-206.46875 -27 C-86.288571369614 -27, 33.89160726077199 -27, 206.46875 -27 M-206.46875 -27 C-55.1172330696036 -27, 96.2342838607928 -27, 206.46875 -27"/></g></g><g transform="translate(214.46875, 615)" id="classId-AdapterRegistry-2" class="node default"><g class="basic label-container"><path style="" fill="#ECECFF" stroke-width="0" stroke="none" d="M-162.51171875 -87 L162.51171875 -87 L162.51171875 87 L-162.51171875 87"/><path style="" stroke-dasharray="0 0" fill="none" stroke-width="1.3" stroke="#9370DB" d="M-162.51171875 -87 C-84.08702864478369 -87, -5.662338539567372 -87, 162.51171875 -87 M-162.51171875 -87 C-51.80934384744144 -87, 58.89303105511712 -87, 162.51171875 -87 M162.51171875 -87 C162.51171875 -43.18952665002845, 162.51171875 0.6209466999431044, 162.51171875 87 M162.51171875 -87 C162.51171875 -43.96566699406923, 162.51171875 -0.9313339881384621, 162.51171875 87 M162.51171875 87 C44.145325355308 87, -74.221068039384 87, -162.51171875 87 M162.51171875 87 C50.68364107612288 87, -61.144436597754236 87, -162.51171875 87 M-162.51171875 87 C-162.51171875 27.764233593993964, -162.51171875 -31.47153281201207, -162.51171875 -87 M-162.51171875 87 C-162.51171875 35.714344200376736, -162.51171875 -15.571311599246528, -162.51171875 -87"/></g><g transform="translate(0, -63)" class="annotation-group text"/><g transform="translate(-62.2421875, -63)" class="label-group text"><g transform="translate(0,-12)" style="font-weight: bolder" class="label"><foreignObject height="24" width="124.484375"><div style="display: table-cell; white-space: nowrap; line-height: 1.5; max-width: 156px; text-align: center;" xmlns="http://www.w3.org/1999/xhtml"><span style="" class="nodeLabel markdown-node-label"><p>AdapterRegistry</p></span></div></foreignObject></g></g><g transform="translate(-150.51171875, -15)" class="members-group text"/><g transform="translate(-150.51171875, 15)" class="methods-group text"><g transform="translate(0,-12)" style="" class="label"><foreignObject height="24" width="226.34375"><div style="display: table-cell; white-space: nowrap; line-height: 1.5; max-width: 257px; text-align: center;" xmlns="http://www.w3.org/1999/xhtml"><span style="" class="nodeLabel markdown-node-label"><p>+register(group, name, adapter)</p></span></div></foreignObject></g><g transform="translate(0,12)" style="" class="label"><foreignObject height="24" width="238.78125"><div style="display: table-cell; white-space: nowrap; line-height: 1.5; max-width: 277px; text-align: center;" xmlns="http://www.w3.org/1999/xhtml"><span style="" class="nodeLabel markdown-node-label"><p>+dispatch(group, *args, **kwargs)</p></span></div></foreignObject></g><g transform="translate(0,36)" style="" class="label"><foreignObject height="24" width="100.046875"><div style="display: table-cell; white-space: nowrap; line-height: 1.5; max-width: 148px; text-align: center;" xmlns="http://www.w3.org/1999/xhtml"><span style="" class="nodeLabel markdown-node-label"><p>+clear!(group)</p></span></div></foreignObject></g></g><g style="" class="divider"><path style="" stroke-dasharray="0 0" fill="none" stroke-width="1.3" stroke="#9370DB" d="M-162.51171875 -39 C-40.03765272174287 -39, 82.43641330651425 -39, 162.51171875 -39 M-162.51171875 -39 C-57.13279209720564 -39, 48.246134555588725 -39, 162.51171875 -39"/></g><g style="" class="divider"><path style="" stroke-dasharray="0 0" fill="none" stroke-width="1.3" stroke="#9370DB" d="M-162.51171875 -15 C-90.2891678387982 -15, -18.066616927596414 -15, 162.51171875 -15 M-162.51171875 -15 C-67.9631450609702 -15, 26.58542862805959 -15, 162.51171875 -15"/></g></g><g transform="translate(321.603515625, 848)" id="classId-DispatchError-3" class="node default"><g class="basic label-container"><path style="" fill="#ECECFF" stroke-width="0" stroke="none" d="M-69.13671875 -72 L69.13671875 -72 L69.13671875 72 L-69.13671875 72"/><path style="" stroke-dasharray="0 0" fill="none" stroke-width="1.3" stroke="#9370DB" d="M-69.13671875 -72 C-21.53369746666162 -72, 26.069323816676757 -72, 69.13671875 -72 M-69.13671875 -72 C-19.896300180013952 -72, 29.344118389972095 -72, 69.13671875 -72 M69.13671875 -72 C69.13671875 -42.54931438813483, 69.13671875 -13.098628776269663, 69.13671875 72 M69.13671875 -72 C69.13671875 -18.827495271255913, 69.13671875 34.345009457488175, 69.13671875 72 M69.13671875 72 C30.533772325855153 72, -8.069174098289693 72, -69.13671875 72 M69.13671875 72 C18.79328308361393 72, -31.550152582772142 72, -69.13671875 72 M-69.13671875 72 C-69.13671875 16.339808741857674, -69.13671875 -39.32038251628465, -69.13671875 -72 M-69.13671875 72 C-69.13671875 31.849142957304053, -69.13671875 -8.301714085391893, -69.13671875 -72"/></g><g transform="translate(0, -48)" class="annotation-group text"/><g transform="translate(-53.3515625, -48)" class="label-group text"><g transform="translate(0,-12)" style="font-weight: bolder" class="label"><foreignObject height="24" width="106.703125"><div style="display: table-cell; white-space: nowrap; line-height: 1.5; max-width: 141px; text-align: center;" xmlns="http://www.w3.org/1999/xhtml"><span style="" class="nodeLabel markdown-node-label"><p>DispatchError</p></span></div></foreignObject></g></g><g transform="translate(-57.13671875, 0)" class="members-group text"><g transform="translate(0,-12)" style="" class="label"><foreignObject height="24" width="50.265625"><div style="display: table-cell; white-space: nowrap; line-height: 1.5; max-width: 101px; text-align: center;" xmlns="http://www.w3.org/1999/xhtml"><span style="" class="nodeLabel markdown-node-label"><p>+group</p></span></div></foreignObject></g><g transform="translate(0,12)" style="" class="label"><foreignObject height="24" width="60.921875"><div style="display: table-cell; white-space: nowrap; line-height: 1.5; max-width: 111px; text-align: center;" xmlns="http://www.w3.org/1999/xhtml"><span style="" class="nodeLabel markdown-node-label"><p>+failures</p></span></div></foreignObject></g></g><g transform="translate(-57.13671875, 72)" class="methods-group text"/><g style="" class="divider"><path style="" stroke-dasharray="0 0" fill="none" stroke-width="1.3" stroke="#9370DB" d="M-69.13671875 -24 C-20.837596943447316 -24, 27.461524863105367 -24, 69.13671875 -24 M-69.13671875 -24 C-30.2002898989453 -24, 8.7361389521094 -24, 69.13671875 -24"/></g><g style="" class="divider"><path style="" stroke-dasharray="0 0" fill="none" stroke-width="1.3" stroke="#9370DB" d="M-69.13671875 48 C-31.748547732377887 48, 5.639623285244227 48, 69.13671875 48 M-69.13671875 48 C-15.654153513750686 48, 37.82841172249863 48, 69.13671875 48"/></g></g><g transform="translate(107.333984375, 848)" id="classId-ErrorReporterAdapter-4" class="node default"><g class="basic label-container"><path style="" fill="#ECECFF" stroke-width="0" stroke="none" d="M-95.1328125 -54 L95.1328125 -54 L95.1328125 54 L-95.1328125 54"/><path style="" stroke-dasharray="0 0" fill="none" stroke-width="1.3" stroke="#9370DB" d="M-95.1328125 -54 C-53.530574307571094 -54, -11.928336115142187 -54, 95.1328125 -54 M-95.1328125 -54 C-20.668547112419844 -54, 53.79571827516031 -54, 95.1328125 -54 M95.1328125 -54 C95.1328125 -22.805816159163513, 95.1328125 8.388367681672975, 95.1328125 54 M95.1328125 -54 C95.1328125 -13.83051081524323, 95.1328125 26.33897836951354, 95.1328125 54 M95.1328125 54 C41.06593695027399 54, -13.000938599452013 54, -95.1328125 54 M95.1328125 54 C24.762694052965585 54, -45.60742439406883 54, -95.1328125 54 M-95.1328125 54 C-95.1328125 17.300279009936446, -95.1328125 -19.399441980127108, -95.1328125 -54 M-95.1328125 54 C-95.1328125 17.813030938899253, -95.1328125 -18.373938122201494, -95.1328125 -54"/></g><g transform="translate(-36.03125, -30)" class="annotation-group text"><g transform="translate(0,-12)" style="" class="label"><foreignObject height="24" width="72.0625"><div style="display: table-cell; white-space: nowrap; line-height: 1.5; max-width: 116px; text-align: center;" xmlns="http://www.w3.org/1999/xhtml"><span style="" class="nodeLabel markdown-node-label"><p>«callable»</p></span></div></foreignObject></g></g><g transform="translate(-83.1328125, -6)" class="label-group text"><g transform="translate(0,-12)" style="font-weight: bolder" class="label"><foreignObject height="24" width="166.265625"><div style="display: table-cell; white-space: nowrap; line-height: 1.5; max-width: 192px; text-align: center;" xmlns="http://www.w3.org/1999/xhtml"><span style="" class="nodeLabel markdown-node-label"><p>ErrorReporterAdapter</p></span></div></foreignObject></g></g><g transform="translate(-83.1328125, 42)" class="members-group text"/><g transform="translate(-83.1328125, 72)" class="methods-group text"/><g style="" class="divider"><path style="" stroke-dasharray="0 0" fill="none" stroke-width="1.3" stroke="#9370DB" d="M-95.1328125 18 C-36.56503213951862 18, 22.002748220962758 18, 95.1328125 18 M-95.1328125 18 C-28.074802676697402 18, 38.983207146605196 18, 95.1328125 18"/></g><g style="" class="divider"><path style="" stroke-dasharray="0 0" fill="none" stroke-width="1.3" stroke="#9370DB" d="M-95.1328125 36 C-34.9494433269619 36, 25.233925846076204 36, 95.1328125 36 M-95.1328125 36 C-20.023294231813807 36, 55.086224036372386 36, 95.1328125 36"/></g></g></g></g></g></svg>