<svg aria-roledescription="flowchart-v2" role="graphics-document document" viewBox="0 0 3258.140625 505" height="505" class="flowchart" xmlns:xlink="http://www.w3.org/1999/xlink" xmlns="http://www.w3.org/2000/svg" width="3258.140625" id="my-svg" style="background-color: white;"><style>#my-svg{font-family:trebuchet ms,verdana,arial,sans-serif;font-size:16px;fill:#333;}@keyframes edge-animation-frame{from{stroke-dashoffset:0;}}@keyframes dash{to{stroke-dashoffset:0;}}#my-svg .edge-animation-slow{stroke-dasharray:9,5!important;stroke-dashoffset:900;animation:dash 50s linear infinite;stroke-linecap:round;}#my-svg .edge-animation-fast{stroke-dasharray:9,5!important;stroke-dashoffset:900;animation:dash 20s linear infinite;stroke-linecap:round;}#my-svg .error-icon{fill:#552222;}#my-svg .error-text{fill:#552222;stroke:#552222;}#my-svg .edge-thickness-normal{stroke-width:1px;}#my-svg .edge-thickness-thick{stroke-width:3.5px;}#my-svg .edge-pattern-solid{stroke-dasharray:0;}#my-svg .edge-thickness-invisible{stroke-width:0;fill:none;}#my-svg .edge-pattern-dashed{stroke-dasharray:3;}#my-svg .edge-pattern-dotted{stroke-dasharray:2;}#my-svg .marker{fill:#333333;stroke:#333333;}#my-svg .marker.cross{stroke:#333333;}#my-svg svg{font-family:trebuchet ms,verdana,arial,sans-serif;font-size:16px;}#my-svg p{margin:0;}#my-svg .label{font-family:trebuchet ms,verdana,arial,sans-serif;color:#333;}#my-svg .cluster-label text{fill:#333;}#my-svg .cluster-label span{color:#333;}#my-svg .cluster-label span p{background-color:transparent;}#my-svg .label text,#my-svg span{fill:#333;color:#333;}#my-svg .node rect,#my-svg .node circle,#my-svg .node ellipse,#my-svg .node polygon,#my-svg .node path{fill:#ECECFF;stroke:#9370DB;stroke-width:1px;}#my-svg .rough-node .label text,#my-svg .node .label text,#my-svg .image-shape .label,#my-svg .icon-shape .label{text-anchor:middle;}#my-svg .node .katex path{fill:#000;stroke:#000;stroke-width:1px;}#my-svg .rough-node .label,#my-svg .node .label,#my-svg .image-shape .label,#my-svg .icon-shape .label{text-align:center;}#my-svg .node.clickable{cursor:pointer;}#my-svg .root .anchor path{fill:#333333!important;stroke-width:0;stroke:#333333;}#my-svg .arrowheadPath{fill:#333333;}#my-svg .edgePath .path{stroke:#333333;stroke-width:2.0px;}#my-svg .flowchart-link{stroke:#333333;fill:none;}#my-svg .edgeLabel{background-color:rgba(232,232,232, 0.8);text-align:center;}#my-svg .edgeLabel p{background-color:rgba(232,232,232, 0.8);}#my-svg .edgeLabel rect{opacity:0.5;background-color:rgba(232,232,232, 0.8);fill:rgba(232,232,232, 0.8);}#my-svg .labelBkg{background-color:rgba(232, 232, 232, 0.5);}#my-svg .cluster rect{fill:#ffffde;stroke:#aaaa33;stroke-width:1px;}#my-svg .cluster text{fill:#333;}#my-svg .cluster span{color:#333;}#my-svg div.mermaidTooltip{position:absolute;text-align:center;max-width:200px;padding:2px;font-family:trebuchet ms,verdana,arial,sans-serif;font-size:12px;background:hsl(80, 100%, 96.2745098039%);border:1px solid #aaaa33;border-radius:2px;pointer-events:none;z-index:100;}#my-svg .flowchartTitleText{text-anchor:middle;font-size:18px;fill:#333;}#my-svg rect.text{fill:none;stroke-width:0;}#my-svg .icon-shape,#my-svg .image-shape{background-color:rgba(232,232,232, 0.8);text-align:center;}#my-svg .icon-shape p,#my-svg .image-shape p{background-color:rgba(232,232,232, 0.8);padding:2px;}#my-svg .icon-shape rect,#my-svg .image-shape rect{opacity:0.5;background-color:rgba(232,232,232, 0.8);fill:rgba(232,232,232, 0.8);}#my-svg .label-icon{display:inline-block;height:1em;overflow:visible;vertical-align:-0.125em;}#my-svg .node .label-icon path{fill:currentColor;stroke:revert;stroke-width:revert;}#my-svg :root{--mermaid-font-family:trebuchet ms,verdana,arial,sans-serif;}</style><g><marker orient="auto" markerHeight="8" markerWidth="8" markerUnits="userSpaceOnUse" refY="5" refX="5" viewBox="0 0 10 10" class="marker flowchart-v2" id="my-svg_flowchart-v2-pointEnd"><path style="stroke-width: 1; stroke-dasharray: 1, 0;" class="arrowMarkerPath" d="M 0 0 L 10 5 L 0 10 z"/></marker><marker orient="auto" markerHeight="8" markerWidth="8" markerUnits="userSpaceOnUse" refY="5" refX="4.5" viewBox="0 0 10 10" class="marker flowchart-v2" id="my-svg_flowchart-v2-pointStart"><path style="stroke-width: 1; stroke-dasharray: 1, 0;" class="arrowMarkerPath" d="M 0 5 L 10 10 L 10 0 z"/></marker><marker orient="auto" markerHeight="11" markerWidth="11" markerUnits="userSpaceOnUse" refY="5" refX="11" viewBox="0 0 10 10" class="marker flowchart-v2" id="my-svg_flowchart-v2-circleEnd"><circle style="stroke-width: 1; stroke-dasharray: 1, 0;" class="arrowMarkerPath" r="5" cy="5" cx="5"/></marker><marker orient="auto" markerHeight="11" markerWidth="11" markerUnits="userSpaceOnUse" refY="5" refX="-1" viewBox="0 0 10 10" class="marker flowchart-v2" id="my-svg_flowchart-v2-circleStart"><circle style="stroke-width: 1; stroke-dasharray: 1, 0;" class="arrowMarkerPath" r="5" cy="5" cx="5"/></marker><marker orient="auto" markerHeight="11" markerWidth="11" markerUnits="userSpaceOnUse" refY="5.2" refX="12" viewBox="0 0 11 11" class="marker cross flowchart-v2" id="my-svg_flowchart-v2-crossEnd"><path style="stroke-width: 2; stroke-dasharray: 1, 0;" class="arrowMarkerPath" d="M 1,1 l 9,9 M 10,1 l -9,9"/></marker><marker orient="auto" markerHeight="11" markerWidth="11" markerUnits="userSpaceOnUse" refY="5.2" refX="-1" viewBox="0 0 11 11" class="marker cross flowchart-v2" id="my-svg_flowchart-v2-crossStart"><path style="stroke-width: 2; stroke-dasharray: 1, 0;" class="arrowMarkerPath" d="M 1,1 l 9,9 M 10,1 l -9,9"/></marker><g class="root"><g class="clusters"><g data-look="classic" id="Review" class="cluster"><rect height="489" width="1574.046875" y="8" x="1676.09375" style=""/><g transform="translate(2375.71875, 8)" class="cluster-label"><g><rect style="stroke: none" class="background"/><text style="" y="-10.1"><tspan dy="1.1em" y="-0.1em" x="0" class="text-outer-tspan"><tspan font-weight="normal" class="text-inner-tspan" font-style="normal">Review</tspan><tspan font-weight="normal" class="text-inner-tspan" font-style="normal"> +</tspan><tspan font-weight="normal" class="text-inner-tspan" font-style="normal"> execution</tspan><tspan font-weight="normal" class="text-inner-tspan" font-style="normal"> path</tspan></tspan></text></g></g></g><g data-look="classic" id="Request" class="cluster"><rect height="148" width="1618.09375" y="147" x="8" style=""/><g transform="translate(769.453125, 147)" class="cluster-label"><g><rect style="stroke: none" class="background"/><text style="" y="-10.1"><tspan dy="1.1em" y="-0.1em" x="0" class="text-outer-tspan"><tspan font-weight="normal" class="text-inner-tspan" font-style="normal">Request</tspan><tspan font-weight="normal" class="text-inner-tspan" font-style="normal"> path</tspan></tspan></text></g></g></g></g><g class="edgePaths"><path marker-end="url(#my-svg_flowchart-v2-pointEnd)" style="" class="edge-thickness-normal edge-pattern-solid edge-thickness-normal edge-pattern-solid flowchart-link" id="L_A_B_0" d="M317.109,221L321.276,221C325.443,221,333.776,221,341.443,221C349.109,221,356.109,221,359.609,221L363.109,221"/><path marker-end="url(#my-svg_flowchart-v2-pointEnd)" style="" class="edge-thickness-normal edge-pattern-solid edge-thickness-normal edge-pattern-solid flowchart-link" id="L_B_C_0" d="M656.609,221L660.776,221C664.943,221,673.276,221,680.943,221C688.609,221,695.609,221,699.109,221L702.609,221"/><path marker-end="url(#my-svg_flowchart-v2-pointEnd)" style="" class="edge-thickness-normal edge-pattern-solid edge-thickness-normal edge-pattern-solid flowchart-link" id="L_D_E_0" d="M1376.328,221L1380.495,221C1384.661,221,1392.995,221,1400.661,221C1408.328,221,1415.328,221,1418.828,221L1422.328,221"/><path marker-end="url(#my-svg_flowchart-v2-pointEnd)" style="" class="edge-thickness-normal edge-pattern-solid edge-thickness-normal edge-pattern-solid flowchart-link" id="L_E_F_0" d="M1601.094,221L1605.26,221C1609.427,221,1617.76,221,1626.094,221C1634.427,221,1642.76,221,1651.094,221C1659.427,221,1667.76,221,1675.427,221C1683.094,221,1690.094,221,1693.594,221L1697.094,221"/><path marker-end="url(#my-svg_flowchart-v2-pointEnd)" style="" class="edge-thickness-normal edge-pattern-solid edge-thickness-normal edge-pattern-solid flowchart-link" id="L_F_G_0" d="M1911.658,194L1924.082,189.833C1936.506,185.667,1961.355,177.333,1977.279,173.167C1993.203,169,2000.203,169,2003.703,169L2007.203,169"/><path marker-end="url(#my-svg_flowchart-v2-pointEnd)" style="" class="edge-thickness-normal edge-pattern-solid edge-thickness-normal edge-pattern-solid flowchart-link" id="L_G_H_0" d="M2273.688,169L2277.854,169C2282.021,169,2290.354,169,2298.021,169C2305.688,169,2312.688,169,2316.188,169L2319.688,169"/><path marker-end="url(#my-svg_flowchart-v2-pointEnd)" style="" class="edge-thickness-normal edge-pattern-solid edge-thickness-normal edge-pattern-solid flowchart-link" id="L_H_I_0" d="M2583.688,130.419L2587.854,129.183C2592.021,127.946,2600.354,125.473,2613.432,124.237C2626.51,123,2644.333,123,2653.245,123L2662.156,123"/><path marker-end="url(#my-svg_flowchart-v2-pointEnd)" style="" class="edge-thickness-normal edge-pattern-solid edge-thickness-normal edge-pattern-solid flowchart-link" id="L_H_J_0" d="M2557.912,208L2566.374,211.167C2574.837,214.333,2591.762,220.667,2606.429,223.833C2621.096,227,2633.505,227,2639.71,227L2645.914,227"/><path marker-end="url(#my-svg_flowchart-v2-pointEnd)" style="" class="edge-thickness-normal edge-pattern-solid edge-thickness-normal edge-pattern-solid flowchart-link" id="L_F_K_0" d="M1869.207,248L1888.707,261.833C1908.206,275.667,1947.205,303.333,1992.744,317.167C2038.284,331,2090.365,331,2142.445,331C2194.526,331,2246.607,331,2298.48,331C2350.354,331,2402.021,331,2453.688,331C2505.354,331,2557.021,331,2586.354,331C2615.688,331,2622.688,331,2626.188,331L2629.688,331"/><path marker-end="url(#my-svg_flowchart-v2-pointEnd)" style="" class="edge-thickness-normal edge-pattern-solid edge-thickness-normal edge-pattern-solid flowchart-link" id="L_F_L_0" d="M1850.711,248L1873.293,279.167C1895.875,310.333,1941.039,372.667,1989.662,403.833C2038.284,435,2090.365,435,2142.445,435C2194.526,435,2246.607,435,2298.48,435C2350.354,435,2402.021,435,2453.688,435C2505.354,435,2557.021,435,2594.211,435C2631.401,435,2654.115,435,2665.471,435L2676.828,435"/><path marker-end="url(#my-svg_flowchart-v2-pointEnd)" style="" class="edge-thickness-normal edge-pattern-solid edge-thickness-normal edge-pattern-solid flowchart-link" id="L_F_M_0" d="M1856.368,194L1878.007,170.833C1899.646,147.667,1942.925,101.333,1990.604,78.167C2038.284,55,2090.365,55,2142.445,55C2194.526,55,2246.607,55,2298.48,55C2350.354,55,2402.021,55,2453.688,55C2505.354,55,2557.021,55,2610.475,55C2663.93,55,2719.172,55,2774.414,55C2829.656,55,2884.898,55,2932.049,76.671C2979.2,98.343,3018.259,141.686,3037.788,163.357L3057.318,185.029"/><path marker-end="url(#my-svg_flowchart-v2-pointEnd)" style="" class="edge-thickness-normal edge-pattern-solid edge-thickness-normal edge-pattern-solid flowchart-link" id="L_C_D_0" d="M966.609,221L970.776,221C974.943,221,983.276,221,990.943,221C998.609,221,1005.609,221,1009.109,221L1012.609,221"/><path marker-end="url(#my-svg_flowchart-v2-pointEnd)" style="" class="edge-thickness-normal edge-pattern-solid edge-thickness-normal edge-pattern-solid flowchart-link" id="L_I_M_0" d="M2882.672,123L2892.25,123C2901.828,123,2920.984,123,2946.155,133.462C2971.325,143.924,3002.51,164.848,3018.102,175.309L3033.694,185.771"/><path marker-end="url(#my-svg_flowchart-v2-pointEnd)" style="" class="edge-thickness-normal edge-pattern-solid edge-thickness-normal edge-pattern-solid flowchart-link" id="L_J_M_0" d="M2898.914,227L2905.785,227C2912.656,227,2926.398,227,2936.77,227C2947.141,227,2954.141,227,2957.641,227L2961.141,227"/><path marker-end="url(#my-svg_flowchart-v2-pointEnd)" style="" class="edge-thickness-normal edge-pattern-solid edge-thickness-normal edge-pattern-solid flowchart-link" id="L_K_M_0" d="M2915.141,331L2919.307,331C2923.474,331,2931.807,331,2951.566,320.538C2971.325,310.076,3002.51,289.152,3018.102,278.691L3033.694,268.229"/><path marker-end="url(#my-svg_flowchart-v2-pointEnd)" style="" class="edge-thickness-normal edge-pattern-solid edge-thickness-normal edge-pattern-solid flowchart-link" id="L_L_M_0" d="M2868,435L2880.023,435C2892.047,435,2916.094,435,2948.708,407.368C2981.323,379.736,3022.506,324.472,3043.097,296.839L3063.688,269.207"/></g><g class="edgeLabels"><g><rect style="stroke: none" class="background"/></g><g><rect style="stroke: none" class="background"/></g><g><rect style="stroke: none" class="background"/></g><g><rect style="stroke: none" class="background"/></g><g><rect style="stroke: none" class="background"/></g><g><rect style="stroke: none" class="background"/></g><g><rect style="stroke: none" class="background"/></g><g><rect style="stroke: none" class="background"/></g><g><rect style="stroke: none" class="background"/></g><g><rect style="stroke: none" class="background"/></g><g><rect style="stroke: none" class="background"/></g><g><rect style="stroke: none" class="background"/></g><g><rect style="stroke: none" class="background"/></g><g><rect style="stroke: none" class="background"/></g><g><rect style="stroke: none" class="background"/></g><g><rect style="stroke: none" class="background"/></g><g class="edgeLabel"><g transform="translate(0, 0)" class="label"><text y="-10.1"><tspan dy="1.1em" y="-0.1em" x="0" class="text-outer-tspan"/></text></g></g><g class="edgeLabel"><g transform="translate(0, 0)" class="label"><text y="-10.1"><tspan dy="1.1em" y="-0.1em" x="0" class="text-outer-tspan"/></text></g></g><g class="edgeLabel"><g transform="translate(0, 0)" class="label"><text y="-10.1"><tspan dy="1.1em" y="-0.1em" x="0" class="text-outer-tspan"/></text></g></g><g class="edgeLabel"><g transform="translate(0, 0)" class="label"><text y="-10.1"><tspan dy="1.1em" y="-0.1em" x="0" class="text-outer-tspan"/></text></g></g><g class="edgeLabel"><g transform="translate(0, 0)" class="label"><text y="-10.1"><tspan dy="1.1em" y="-0.1em" x="0" class="text-outer-tspan"/></text></g></g><g class="edgeLabel"><g transform="translate(0, 0)" class="label"><text y="-10.1"><tspan dy="1.1em" y="-0.1em" x="0" class="text-outer-tspan"/></text></g></g><g class="edgeLabel"><g transform="translate(0, 0)" class="label"><text y="-10.1"><tspan dy="1.1em" y="-0.1em" x="0" class="text-outer-tspan"/></text></g></g><g class="edgeLabel"><g transform="translate(0, 0)" class="label"><text y="-10.1"><tspan dy="1.1em" y="-0.1em" x="0" class="text-outer-tspan"/></text></g></g><g class="edgeLabel"><g transform="translate(0, 0)" class="label"><text y="-10.1"><tspan dy="1.1em" y="-0.1em" x="0" class="text-outer-tspan"/></text></g></g><g class="edgeLabel"><g transform="translate(0, 0)" class="label"><text y="-10.1"><tspan dy="1.1em" y="-0.1em" x="0" class="text-outer-tspan"/></text></g></g><g class="edgeLabel"><g transform="translate(0, 0)" class="label"><text y="-10.1"><tspan dy="1.1em" y="-0.1em" x="0" class="text-outer-tspan"/></text></g></g><g class="edgeLabel"><g transform="translate(0, 0)" class="label"><text y="-10.1"><tspan dy="1.1em" y="-0.1em" x="0" class="text-outer-tspan"/></text></g></g><g class="edgeLabel"><g transform="translate(0, 0)" class="label"><text y="-10.1"><tspan dy="1.1em" y="-0.1em" x="0" class="text-outer-tspan"/></text></g></g><g class="edgeLabel"><g transform="translate(0, 0)" class="label"><text y="-10.1"><tspan dy="1.1em" y="-0.1em" x="0" class="text-outer-tspan"/></text></g></g><g class="edgeLabel"><g transform="translate(0, 0)" class="label"><text y="-10.1"><tspan dy="1.1em" y="-0.1em" x="0" class="text-outer-tspan"/></text></g></g><g class="edgeLabel"><g transform="translate(0, 0)" class="label"><text y="-10.1"><tspan dy="1.1em" y="-0.1em" x="0" class="text-outer-tspan"/></text></g></g></g><g class="nodes"><g transform="translate(175.0546875, 221)" id="flowchart-A-0" class="node default"><rect height="54" width="284.109375" y="-27" x="-142.0546875" style="" class="basic label-container"/><g transform="translate(-112.0546875, -12)" style="" class="label"><rect/><foreignObject height="24" width="224.109375"><div style="display: table; white-space: break-spaces; line-height: 1.5; max-width: 200px; text-align: center; width: 200px;" xmlns="http://www.w3.org/1999/xhtml"><span class="nodeLabel"><p>RegistrationsController#destroy</p></span></div></foreignObject></g></g><g transform="translate(511.859375, 221)" id="flowchart-B-1" class="node default"><rect height="54" width="289.5" y="-27" x="-144.75" style="" class="basic label-container"/><g transform="translate(-114.75, -12)" style="" class="label"><rect/><foreignObject height="24" width="229.5"><div style="display: table; white-space: break-spaces; line-height: 1.5; max-width: 200px; text-align: center; width: 200px;" xmlns="http://www.w3.org/1999/xhtml"><span class="nodeLabel"><p>find_or_create_deletion_request</p></span></div></foreignObject></g></g><g transform="translate(836.609375, 221)" id="flowchart-C-3" class="node default"><rect height="78" width="260" y="-39" x="-130" style="" class="basic label-container"/><g transform="translate(-100, -24)" style="" class="label"><rect/><foreignObject height="48" width="200"><div style="display: table; white-space: break-spaces; line-height: 1.5; max-width: 200px; text-align: center; width: 200px;" xmlns="http://www.w3.org/1999/xhtml"><span class="nodeLabel"><p>Redirect to settings_my_data</p></span></div></foreignObject></g></g><g transform="translate(1196.46875, 221)" id="flowchart-D-4" class="node default"><rect height="54" width="359.71875" y="-27" x="-179.859375" style="" class="basic label-container"/><g transform="translate(-149.859375, -12)" style="" class="label"><rect/><foreignObject height="24" width="299.71875"><div style="display: table; white-space: break-spaces; line-height: 1.5; max-width: 200px; text-align: center; width: 200px;" xmlns="http://www.w3.org/1999/xhtml"><span class="nodeLabel"><p>PersonDeletionRequestsController#create</p></span></div></foreignObject></g></g><g transform="translate(1513.7109375, 221)" id="flowchart-E-5" class="node default"><rect height="54" width="174.765625" y="-27" x="-87.3828125" style="" class="basic label-container"/><g transform="translate(-57.3828125, -12)" style="" class="label"><rect/><foreignObject height="24" width="114.765625"><div style="display: table-cell; white-space: nowrap; line-height: 1.5; max-width: 200px; text-align: center;" xmlns="http://www.w3.org/1999/xhtml"><span class="nodeLabel"><p>pending request</p></span></div></foreignObject></g></g><g transform="translate(1831.1484375, 221)" id="flowchart-F-7" class="node default"><rect height="54" width="260.109375" y="-27" x="-130.0546875" style="" class="basic label-container"/><g transform="translate(-100.0546875, -12)" style="" class="label"><rect/><foreignObject height="24" width="200.109375"><div style="display: table; white-space: break-spaces; line-height: 1.5; max-width: 200px; text-align: center; width: 200px;" xmlns="http://www.w3.org/1999/xhtml"><span class="nodeLabel"><p>PersonDeletionExecutor.call</p></span></div></foreignObject></g></g><g transform="translate(2142.4453125, 169)" id="flowchart-G-9" class="node default"><rect height="54" width="262.484375" y="-27" x="-131.2421875" style="" class="basic label-container"/><g transform="translate(-101.2421875, -12)" style="" class="label"><rect/><foreignObject height="24" width="202.484375"><div style="display: table; white-space: break-spaces; line-height: 1.5; max-width: 200px; text-align: center; width: 200px;" xmlns="http://www.w3.org/1999/xhtml"><span class="nodeLabel"><p>PersonDeletionInventory.call</p></span></div></foreignObject></g></g><g transform="translate(2453.6875, 169)" id="flowchart-H-11" class="node default"><rect height="78" width="260" y="-39" x="-130" style="" class="basic label-container"/><g transform="translate(-100, -24)" style="" class="label"><rect/><foreignObject height="48" width="200"><div style="display: table; white-space: break-spaces; line-height: 1.5; max-width: 200px; text-align: center; width: 200px;" xmlns="http://www.w3.org/1999/xhtml"><span class="nodeLabel"><p>Manifest entries grouped by action</p></span></div></foreignObject></g></g><g transform="translate(2774.4140625, 123)" id="flowchart-I-13" class="node default"><rect height="54" width="216.515625" y="-27" x="-108.2578125" style="" class="basic label-container"/><g transform="translate(-78.2578125, -12)" style="" class="label"><rect/><foreignObject height="24" width="156.515625"><div style="display: table-cell; white-space: nowrap; line-height: 1.5; max-width: 200px; text-align: center;" xmlns="http://www.w3.org/1999/xhtml"><span class="nodeLabel"><p>destroy linked records</p></span></div></foreignObject></g></g><g transform="translate(2774.4140625, 227)" id="flowchart-J-15" class="node default"><rect height="54" width="249" y="-27" x="-124.5" style="" class="basic label-container"/><g transform="translate(-94.5, -12)" style="" class="label"><rect/><foreignObject height="24" width="189"><div style="display: table-cell; white-space: nowrap; line-height: 1.5; max-width: 200px; text-align: center;" xmlns="http://www.w3.org/1999/xhtml"><span class="nodeLabel"><p>retain request + audit rows</p></span></div></foreignObject></g></g><g transform="translate(2774.4140625, 331)" id="flowchart-K-17" class="node default"><rect height="54" width="281.453125" y="-27" x="-140.7265625" style="" class="basic label-container"/><g transform="translate(-110.7265625, -12)" style="" class="label"><rect/><foreignObject height="24" width="221.453125"><div style="display: table; white-space: break-spaces; line-height: 1.5; max-width: 200px; text-align: center; width: 200px;" xmlns="http://www.w3.org/1999/xhtml"><span class="nodeLabel"><p>PersonDeletionAnonymizer.call</p></span></div></foreignObject></g></g><g transform="translate(2774.4140625, 435)" id="flowchart-L-19" class="node default"><rect height="54" width="187.171875" y="-27" x="-93.5859375" style="" class="basic label-container"/><g transform="translate(-63.5859375, -12)" style="" class="label"><rect/><foreignObject height="24" width="127.171875"><div style="display: table-cell; white-space: nowrap; line-height: 1.5; max-width: 200px; text-align: center;" xmlns="http://www.w3.org/1999/xhtml"><span class="nodeLabel"><p>scrub request text</p></span></div></foreignObject></g></g><g transform="translate(3095.140625, 227)" id="flowchart-M-21" class="node default"><rect height="78" width="260" y="-39" x="-130" style="" class="basic label-container"/><g transform="translate(-100, -24)" style="" class="label"><rect/><foreignObject height="48" width="200"><div style="display: table; white-space: break-spaces; line-height: 1.5; max-width: 200px; text-align: center; width: 200px;" xmlns="http://www.w3.org/1999/xhtml"><span class="nodeLabel"><p>complete PersonPurgeAudit snapshot</p></span></div></foreignObject></g></g></g></g></g></svg>