<svg aria-roledescription="flowchart-v2" role="graphics-document document" viewBox="0 0 2448.5 753" height="753" class="flowchart" xmlns:xlink="http://www.w3.org/1999/xlink" xmlns="http://www.w3.org/2000/svg" width="2448.5" id="my-svg" style="background-color: white;"><style>#my-svg{font-family:trebuchet ms,verdana,arial,sans-serif;font-size:16px;fill:#333;}@keyframes edge-animation-frame{from{stroke-dashoffset:0;}}@keyframes dash{to{stroke-dashoffset:0;}}#my-svg .edge-animation-slow{stroke-dasharray:9,5!important;stroke-dashoffset:900;animation:dash 50s linear infinite;stroke-linecap:round;}#my-svg .edge-animation-fast{stroke-dasharray:9,5!important;stroke-dashoffset:900;animation:dash 20s linear infinite;stroke-linecap:round;}#my-svg .error-icon{fill:#552222;}#my-svg .error-text{fill:#552222;stroke:#552222;}#my-svg .edge-thickness-normal{stroke-width:1px;}#my-svg .edge-thickness-thick{stroke-width:3.5px;}#my-svg .edge-pattern-solid{stroke-dasharray:0;}#my-svg .edge-thickness-invisible{stroke-width:0;fill:none;}#my-svg .edge-pattern-dashed{stroke-dasharray:3;}#my-svg .edge-pattern-dotted{stroke-dasharray:2;}#my-svg .marker{fill:#333333;stroke:#333333;}#my-svg .marker.cross{stroke:#333333;}#my-svg svg{font-family:trebuchet ms,verdana,arial,sans-serif;font-size:16px;}#my-svg p{margin:0;}#my-svg .label{font-family:trebuchet ms,verdana,arial,sans-serif;color:#333;}#my-svg .cluster-label text{fill:#333;}#my-svg .cluster-label span{color:#333;}#my-svg .cluster-label span p{background-color:transparent;}#my-svg .label text,#my-svg span{fill:#333;color:#333;}#my-svg .node rect,#my-svg .node circle,#my-svg .node ellipse,#my-svg .node polygon,#my-svg .node path{fill:#ECECFF;stroke:#9370DB;stroke-width:1px;}#my-svg .rough-node .label text,#my-svg .node .label text,#my-svg .image-shape .label,#my-svg .icon-shape .label{text-anchor:middle;}#my-svg .node .katex path{fill:#000;stroke:#000;stroke-width:1px;}#my-svg .rough-node .label,#my-svg .node .label,#my-svg .image-shape .label,#my-svg .icon-shape .label{text-align:center;}#my-svg .node.clickable{cursor:pointer;}#my-svg .root .anchor path{fill:#333333!important;stroke-width:0;stroke:#333333;}#my-svg .arrowheadPath{fill:#333333;}#my-svg .edgePath .path{stroke:#333333;stroke-width:2.0px;}#my-svg .flowchart-link{stroke:#333333;fill:none;}#my-svg .edgeLabel{background-color:rgba(232,232,232, 0.8);text-align:center;}#my-svg .edgeLabel p{background-color:rgba(232,232,232, 0.8);}#my-svg .edgeLabel rect{opacity:0.5;background-color:rgba(232,232,232, 0.8);fill:rgba(232,232,232, 0.8);}#my-svg .labelBkg{background-color:rgba(232, 232, 232, 0.5);}#my-svg .cluster rect{fill:#ffffde;stroke:#aaaa33;stroke-width:1px;}#my-svg .cluster text{fill:#333;}#my-svg .cluster span{color:#333;}#my-svg div.mermaidTooltip{position:absolute;text-align:center;max-width:200px;padding:2px;font-family:trebuchet ms,verdana,arial,sans-serif;font-size:12px;background:hsl(80, 100%, 96.2745098039%);border:1px solid #aaaa33;border-radius:2px;pointer-events:none;z-index:100;}#my-svg .flowchartTitleText{text-anchor:middle;font-size:18px;fill:#333;}#my-svg rect.text{fill:none;stroke-width:0;}#my-svg .icon-shape,#my-svg .image-shape{background-color:rgba(232,232,232, 0.8);text-align:center;}#my-svg .icon-shape p,#my-svg .image-shape p{background-color:rgba(232,232,232, 0.8);padding:2px;}#my-svg .icon-shape rect,#my-svg .image-shape rect{opacity:0.5;background-color:rgba(232,232,232, 0.8);fill:rgba(232,232,232, 0.8);}#my-svg .label-icon{display:inline-block;height:1em;overflow:visible;vertical-align:-0.125em;}#my-svg .node .label-icon path{fill:currentColor;stroke:revert;stroke-width:revert;}#my-svg :root{--mermaid-font-family:trebuchet ms,verdana,arial,sans-serif;}</style><g><marker orient="auto" markerHeight="8" markerWidth="8" markerUnits="userSpaceOnUse" refY="5" refX="5" viewBox="0 0 10 10" class="marker flowchart-v2" id="my-svg_flowchart-v2-pointEnd"><path style="stroke-width: 1; stroke-dasharray: 1, 0;" class="arrowMarkerPath" d="M 0 0 L 10 5 L 0 10 z"/></marker><marker orient="auto" markerHeight="8" markerWidth="8" markerUnits="userSpaceOnUse" refY="5" refX="4.5" viewBox="0 0 10 10" class="marker flowchart-v2" id="my-svg_flowchart-v2-pointStart"><path style="stroke-width: 1; stroke-dasharray: 1, 0;" class="arrowMarkerPath" d="M 0 5 L 10 10 L 10 0 z"/></marker><marker orient="auto" markerHeight="11" markerWidth="11" markerUnits="userSpaceOnUse" refY="5" refX="11" viewBox="0 0 10 10" class="marker flowchart-v2" id="my-svg_flowchart-v2-circleEnd"><circle style="stroke-width: 1; stroke-dasharray: 1, 0;" class="arrowMarkerPath" r="5" cy="5" cx="5"/></marker><marker orient="auto" markerHeight="11" markerWidth="11" markerUnits="userSpaceOnUse" refY="5" refX="-1" viewBox="0 0 10 10" class="marker flowchart-v2" id="my-svg_flowchart-v2-circleStart"><circle style="stroke-width: 1; stroke-dasharray: 1, 0;" class="arrowMarkerPath" r="5" cy="5" cx="5"/></marker><marker orient="auto" markerHeight="11" markerWidth="11" markerUnits="userSpaceOnUse" refY="5.2" refX="12" viewBox="0 0 11 11" class="marker cross flowchart-v2" id="my-svg_flowchart-v2-crossEnd"><path style="stroke-width: 2; stroke-dasharray: 1, 0;" class="arrowMarkerPath" d="M 1,1 l 9,9 M 10,1 l -9,9"/></marker><marker orient="auto" markerHeight="11" markerWidth="11" markerUnits="userSpaceOnUse" refY="5.2" refX="-1" viewBox="0 0 11 11" class="marker cross flowchart-v2" id="my-svg_flowchart-v2-crossStart"><path style="stroke-width: 2; stroke-dasharray: 1, 0;" class="arrowMarkerPath" d="M 1,1 l 9,9 M 10,1 l -9,9"/></marker><g class="root"><g class="clusters"><g data-look="classic" id="EVIDENCE" class="cluster"><rect height="176" width="1260" y="569" x="8" style=""/><g transform="translate(554.8359375, 569)" class="cluster-label"><g><rect style="stroke: none" class="background"/><text style="" y="-10.1"><tspan dy="1.1em" y="-0.1em" x="0" class="text-outer-tspan"><tspan font-weight="normal" class="text-inner-tspan" font-style="normal">Current</tspan><tspan font-weight="normal" class="text-inner-tspan" font-style="normal"> evidence</tspan><tspan font-weight="normal" class="text-inner-tspan" font-style="normal"> and</tspan></tspan><tspan dy="1.1em" y="1em" x="0" class="text-outer-tspan"><tspan font-weight="normal" class="text-inner-tspan" font-style="normal">remaining</tspan><tspan font-weight="normal" class="text-inner-tspan" font-style="normal"> release</tspan><tspan font-weight="normal" class="text-inner-tspan" font-style="normal"> gaps</tspan></tspan></text></g></g></g><g data-look="classic" id="RELEASE" class="cluster"><rect height="633" width="1152.5" y="112" x="1288" style=""/><g transform="translate(1788.0703125, 112)" class="cluster-label"><g><rect style="stroke: none" class="background"/><text style="" y="-10.1"><tspan dy="1.1em" y="-0.1em" x="0" class="text-outer-tspan"><tspan font-weight="normal" class="text-inner-tspan" font-style="normal">0.11.0</tspan><tspan font-weight="normal" class="text-inner-tspan" font-style="normal"> release</tspan><tspan font-weight="normal" class="text-inner-tspan" font-style="normal"> packet</tspan></tspan><tspan dy="1.1em" y="1em" x="0" class="text-outer-tspan"><tspan font-weight="normal" class="text-inner-tspan" font-style="normal">structure</tspan></tspan></text></g></g></g></g><g class="edgePaths"><path marker-end="url(#my-svg_flowchart-v2-pointEnd)" style="" class="edge-thickness-normal edge-pattern-solid edge-thickness-normal edge-pattern-solid flowchart-link" id="L_V010_FED_0" d="M1541.51,62L1530.091,66.167C1518.673,70.333,1495.837,78.667,1484.418,87C1473,95.333,1473,103.667,1473,111.333C1473,119,1473,126,1473,129.5L1473,133"/><path marker-end="url(#my-svg_flowchart-v2-pointEnd)" style="" class="edge-thickness-normal edge-pattern-solid edge-thickness-normal edge-pattern-solid flowchart-link" id="L_V010_CONTENT_0" d="M1699.766,52.704L1726.971,58.42C1754.177,64.136,1808.589,75.568,1835.794,85.451C1863,95.333,1863,103.667,1863,120.5C1863,137.333,1863,162.667,1863,188C1863,213.333,1863,238.667,1863,254.833C1863,271,1863,278,1863,281.5L1863,285"/><path marker-end="url(#my-svg_flowchart-v2-pointEnd)" style="" class="edge-thickness-normal edge-pattern-solid edge-thickness-normal edge-pattern-solid flowchart-link" id="L_FED_PRIV_0" d="M1506.553,239L1509.294,243.167C1512.035,247.333,1517.518,255.667,1520.259,263.333C1523,271,1523,278,1523,281.5L1523,285"/><path marker-end="url(#my-svg_flowchart-v2-pointEnd)" style="" class="edge-thickness-normal edge-pattern-solid edge-thickness-normal edge-pattern-solid flowchart-link" id="L_FED_METRICS_0" d="M1603,200.626L1711.75,211.188C1820.5,221.751,2038,242.875,2146.75,264.104C2255.5,285.333,2255.5,306.667,2255.5,328C2255.5,349.333,2255.5,370.667,2255.5,384.833C2255.5,399,2255.5,406,2255.5,409.5L2255.5,413"/><path marker-end="url(#my-svg_flowchart-v2-pointEnd)" style="" class="edge-thickness-normal edge-pattern-solid edge-thickness-normal edge-pattern-solid flowchart-link" id="L_PRIV_SAFE_0" d="M1579.367,367L1585.389,371.167C1591.411,375.333,1603.456,383.667,1609.478,393.333C1615.5,403,1615.5,414,1615.5,419.5L1615.5,425"/><path marker-end="url(#my-svg_flowchart-v2-pointEnd)" style="" class="edge-thickness-normal edge-pattern-solid edge-thickness-normal edge-pattern-solid flowchart-link" id="L_CONTENT_SEO_0" d="M1913.273,367L1918.645,371.167C1924.016,375.333,1934.758,383.667,1940.129,393.333C1945.5,403,1945.5,414,1945.5,419.5L1945.5,425"/><path marker-end="url(#my-svg_flowchart-v2-pointEnd)" style="" class="edge-thickness-normal edge-pattern-solid edge-thickness-normal edge-pattern-solid flowchart-link" id="L_CONTENT_HARDEN_0" d="M1993,342.924L2064.25,351.103C2135.5,359.283,2278,375.641,2349.25,396.487C2420.5,417.333,2420.5,442.667,2420.5,468C2420.5,493.333,2420.5,518.667,2420.5,535.5C2420.5,552.333,2420.5,560.667,2405.877,570.75C2391.253,580.833,2362.006,592.667,2347.383,598.583L2332.759,604.5"/><path marker-end="url(#my-svg_flowchart-v2-pointEnd)" style="" class="edge-thickness-normal edge-pattern-solid edge-thickness-normal edge-pattern-solid flowchart-link" id="L_METRICS_HARDEN_0" d="M2255.5,519L2255.5,523.167C2255.5,527.333,2255.5,535.667,2255.5,544C2255.5,552.333,2255.5,560.667,2252.163,570.427C2248.825,580.188,2242.15,591.377,2238.813,596.971L2235.476,602.565"/><path marker-end="url(#my-svg_flowchart-v2-pointEnd)" style="" class="edge-thickness-normal edge-pattern-solid edge-thickness-normal edge-pattern-solid flowchart-link" id="L_SAFE_HARDEN_0" d="M1745.5,488.371L1804.667,497.643C1863.833,506.914,1982.167,525.457,2041.333,538.895C2100.5,552.333,2100.5,560.667,2107.177,570.566C2113.854,580.465,2127.208,591.93,2133.885,597.662L2140.562,603.394"/><path marker-end="url(#my-svg_flowchart-v2-pointEnd)" style="" class="edge-thickness-normal edge-pattern-solid edge-thickness-normal edge-pattern-solid flowchart-link" id="L_SEO_HARDEN_0" d="M1945.5,507L1945.5,513.167C1945.5,519.333,1945.5,531.667,1945.5,542C1945.5,552.333,1945.5,560.667,1966.119,571.88C1986.738,583.093,2027.977,597.186,2048.596,604.233L2069.215,611.279"/><path marker-end="url(#my-svg_flowchart-v2-pointEnd)" style="" class="edge-thickness-normal edge-pattern-solid edge-thickness-normal edge-pattern-solid flowchart-link" id="L_FED_DOCS_0" d="M1375.697,239L1367.748,243.167C1359.798,247.333,1343.899,255.667,1335.95,270.5C1328,285.333,1328,306.667,1328,328C1328,349.333,1328,370.667,1328,394C1328,417.333,1328,442.667,1328,468C1328,493.333,1328,518.667,1328,535.5C1328,552.333,1328,560.667,1157.831,577.799C987.663,594.93,647.326,620.861,477.157,633.826L306.988,646.791"/><path marker-end="url(#my-svg_flowchart-v2-pointEnd)" style="" class="edge-thickness-normal edge-pattern-solid edge-thickness-normal edge-pattern-solid flowchart-link" id="L_PRIV_DOCS_0" d="M1393,366.698L1378.833,370.915C1364.667,375.132,1336.333,383.566,1322.167,400.45C1308,417.333,1308,442.667,1308,468C1308,493.333,1308,518.667,1308,535.5C1308,552.333,1308,560.667,1141.165,577.769C974.329,594.871,640.659,620.741,473.823,633.676L306.988,646.612"/><path marker-end="url(#my-svg_flowchart-v2-pointEnd)" style="" class="edge-thickness-normal edge-pattern-solid edge-thickness-normal edge-pattern-solid flowchart-link" id="L_SAFE_DIAGRAMS_0" d="M1510.303,507L1493.669,513.167C1477.035,519.333,1443.768,531.667,1427.134,542C1410.5,552.333,1410.5,560.667,1278.247,577.381C1145.994,594.096,881.488,619.192,749.235,631.74L616.982,644.288"/><path marker-end="url(#my-svg_flowchart-v2-pointEnd)" style="" class="edge-thickness-normal edge-pattern-solid edge-thickness-normal edge-pattern-solid flowchart-link" id="L_CONTENT_REVIEW_0" d="M1733,348.17L1685.917,355.475C1638.833,362.78,1544.667,377.39,1497.583,397.362C1450.5,417.333,1450.5,442.667,1450.5,468C1450.5,493.333,1450.5,518.667,1450.5,535.5C1450.5,552.333,1450.5,560.667,1363.244,576.512C1275.988,592.357,1101.476,615.713,1014.221,627.392L926.965,639.07"/><path marker-end="url(#my-svg_flowchart-v2-pointEnd)" style="" class="edge-thickness-normal edge-pattern-solid edge-thickness-normal edge-pattern-solid flowchart-link" id="L_PRIV_REVIEW_0" d="M1466.633,367L1460.611,371.167C1454.589,375.333,1442.544,383.667,1436.522,400.5C1430.5,417.333,1430.5,442.667,1430.5,468C1430.5,493.333,1430.5,518.667,1430.5,535.5C1430.5,552.333,1430.5,560.667,1346.577,576.418C1262.654,592.169,1094.808,615.339,1010.885,626.923L926.962,638.508"/><path marker-end="url(#my-svg_flowchart-v2-pointEnd)" style="" class="edge-thickness-normal edge-pattern-solid edge-thickness-normal edge-pattern-solid flowchart-link" id="L_METRICS_GAPS_0" d="M2125.5,493.172L2081.75,501.643C2038,510.115,1950.5,527.057,1906.75,539.695C1863,552.333,1863,560.667,1758.662,576.915C1654.324,593.162,1445.649,617.325,1341.311,629.406L1236.973,641.487"/><path marker-end="url(#my-svg_flowchart-v2-pointEnd)" style="" class="edge-thickness-normal edge-pattern-solid edge-thickness-normal edge-pattern-solid flowchart-link" id="L_CONTENT_GAPS_0" d="M1812.727,367L1807.355,371.167C1801.984,375.333,1791.242,383.667,1785.871,400.5C1780.5,417.333,1780.5,442.667,1780.5,468C1780.5,493.333,1780.5,518.667,1780.5,535.5C1780.5,552.333,1780.5,560.667,1689.911,576.6C1599.322,592.533,1418.144,616.066,1327.556,627.833L1236.967,639.599"/><path marker-end="url(#my-svg_flowchart-v2-pointEnd)" style="" class="edge-thickness-normal edge-pattern-solid edge-thickness-normal edge-pattern-solid flowchart-link" id="L_SEO_GAPS_0" d="M1815.5,497.939L1782.167,505.616C1748.833,513.293,1682.167,528.646,1648.833,540.49C1615.5,552.333,1615.5,560.667,1552.407,575.667C1489.314,590.667,1363.128,612.334,1300.035,623.168L1236.942,634.001"/></g><g class="edgeLabels"><g><rect style="stroke: none" class="background"/></g><g><rect style="stroke: none" class="background"/></g><g><rect style="stroke: none" class="background"/></g><g><rect style="stroke: none" class="background"/></g><g><rect style="stroke: none" class="background"/></g><g><rect style="stroke: none" class="background"/></g><g><rect style="stroke: none" class="background"/></g><g><rect style="stroke: none" class="background"/></g><g><rect style="stroke: none" class="background"/></g><g><rect style="stroke: none" class="background"/></g><g><rect style="stroke: none" class="background"/></g><g><rect style="stroke: none" class="background"/></g><g><rect style="stroke: none" class="background"/></g><g><rect style="stroke: none" class="background"/></g><g><rect style="stroke: none" class="background"/></g><g><rect style="stroke: none" class="background"/></g><g><rect style="stroke: none" class="background"/></g><g><rect style="stroke: none" class="background"/></g><g class="edgeLabel"><g transform="translate(0, 0)" class="label"><text y="-10.1"><tspan dy="1.1em" y="-0.1em" x="0" class="text-outer-tspan"/></text></g></g><g class="edgeLabel"><g transform="translate(0, 0)" class="label"><text y="-10.1"><tspan dy="1.1em" y="-0.1em" x="0" class="text-outer-tspan"/></text></g></g><g class="edgeLabel"><g transform="translate(0, 0)" class="label"><text y="-10.1"><tspan dy="1.1em" y="-0.1em" x="0" class="text-outer-tspan"/></text></g></g><g class="edgeLabel"><g transform="translate(0, 0)" class="label"><text y="-10.1"><tspan dy="1.1em" y="-0.1em" x="0" class="text-outer-tspan"/></text></g></g><g class="edgeLabel"><g transform="translate(0, 0)" class="label"><text y="-10.1"><tspan dy="1.1em" y="-0.1em" x="0" class="text-outer-tspan"/></text></g></g><g class="edgeLabel"><g transform="translate(0, 0)" class="label"><text y="-10.1"><tspan dy="1.1em" y="-0.1em" x="0" class="text-outer-tspan"/></text></g></g><g class="edgeLabel"><g transform="translate(0, 0)" class="label"><text y="-10.1"><tspan dy="1.1em" y="-0.1em" x="0" class="text-outer-tspan"/></text></g></g><g class="edgeLabel"><g transform="translate(0, 0)" class="label"><text y="-10.1"><tspan dy="1.1em" y="-0.1em" x="0" class="text-outer-tspan"/></text></g></g><g class="edgeLabel"><g transform="translate(0, 0)" class="label"><text y="-10.1"><tspan dy="1.1em" y="-0.1em" x="0" class="text-outer-tspan"/></text></g></g><g class="edgeLabel"><g transform="translate(0, 0)" class="label"><text y="-10.1"><tspan dy="1.1em" y="-0.1em" x="0" class="text-outer-tspan"/></text></g></g><g class="edgeLabel"><g transform="translate(0, 0)" class="label"><text y="-10.1"><tspan dy="1.1em" y="-0.1em" x="0" class="text-outer-tspan"/></text></g></g><g class="edgeLabel"><g transform="translate(0, 0)" class="label"><text y="-10.1"><tspan dy="1.1em" y="-0.1em" x="0" class="text-outer-tspan"/></text></g></g><g class="edgeLabel"><g transform="translate(0, 0)" class="label"><text y="-10.1"><tspan dy="1.1em" y="-0.1em" x="0" class="text-outer-tspan"/></text></g></g><g class="edgeLabel"><g transform="translate(0, 0)" class="label"><text y="-10.1"><tspan dy="1.1em" y="-0.1em" x="0" class="text-outer-tspan"/></text></g></g><g class="edgeLabel"><g transform="translate(0, 0)" class="label"><text y="-10.1"><tspan dy="1.1em" y="-0.1em" x="0" class="text-outer-tspan"/></text></g></g><g class="edgeLabel"><g transform="translate(0, 0)" class="label"><text y="-10.1"><tspan dy="1.1em" y="-0.1em" x="0" class="text-outer-tspan"/></text></g></g><g class="edgeLabel"><g transform="translate(0, 0)" class="label"><text y="-10.1"><tspan dy="1.1em" y="-0.1em" x="0" class="text-outer-tspan"/></text></g></g><g class="edgeLabel"><g transform="translate(0, 0)" class="label"><text y="-10.1"><tspan dy="1.1em" y="-0.1em" x="0" class="text-outer-tspan"/></text></g></g></g><g class="nodes"><g transform="translate(1615.5, 35)" id="flowchart-V010-0" class="node default"><rect height="54" width="168.53125" y="-27" x="-84.265625" style="" class="basic label-container"/><g transform="translate(-54.265625, -12)" style="" class="label"><rect/><foreignObject height="24" width="108.53125"><div style="display: table-cell; white-space: nowrap; line-height: 1.5; max-width: 200px; text-align: center;" xmlns="http://www.w3.org/1999/xhtml"><span class="nodeLabel"><p>0.10.0 baseline</p></span></div></foreignObject></g></g><g transform="translate(1473, 188)" id="flowchart-FED-1" class="node default"><rect height="102" width="260" y="-51" x="-130" style="" class="basic label-container"/><g transform="translate(-100, -36)" style="" class="label"><rect/><foreignObject height="72" width="200"><div style="display: table; white-space: break-spaces; line-height: 1.5; max-width: 200px; text-align: center; width: 200px;" xmlns="http://www.w3.org/1999/xhtml"><span class="nodeLabel">1. Federation, platform connections, and multi-tenant scoping</span></div></foreignObject></g></g><g transform="translate(1523, 328)" id="flowchart-PRIV-2" class="node default"><rect height="78" width="260" y="-39" x="-130" style="" class="basic label-container"/><g transform="translate(-100, -24)" style="" class="label"><rect/><foreignObject height="48" width="200"><div style="display: table; white-space: break-spaces; line-height: 1.5; max-width: 200px; text-align: center; width: 200px;" xmlns="http://www.w3.org/1999/xhtml"><span class="nodeLabel">2. Privacy, member data rights, and consent auditing</span></div></foreignObject></g></g><g transform="translate(1615.5, 468)" id="flowchart-SAFE-3" class="node default"><rect height="78" width="260" y="-39" x="-130" style="" class="basic label-container"/><g transform="translate(-100, -24)" style="" class="label"><rect/><foreignObject height="48" width="200"><div style="display: table; white-space: break-spaces; line-height: 1.5; max-width: 200px; text-align: center; width: 200px;" xmlns="http://www.w3.org/1999/xhtml"><span class="nodeLabel">3. Safety, reporting, and encrypted messaging</span></div></foreignObject></g></g><g transform="translate(2255.5, 468)" id="flowchart-METRICS-4" class="node default"><rect height="102" width="260" y="-51" x="-130" style="" class="basic label-container"/><g transform="translate(-100, -36)" style="" class="label"><rect/><foreignObject height="72" width="200"><div style="display: table; white-space: break-spaces; line-height: 1.5; max-width: 200px; text-align: center; width: 200px;" xmlns="http://www.w3.org/1999/xhtml"><span class="nodeLabel">4. Metrics, analytics retention, and reporting hygiene</span></div></foreignObject></g></g><g transform="translate(1863, 328)" id="flowchart-CONTENT-5" class="node default"><rect height="78" width="260" y="-39" x="-130" style="" class="basic label-container"/><g transform="translate(-100, -24)" style="" class="label"><rect/><foreignObject height="48" width="200"><div style="display: table; white-space: break-spaces; line-height: 1.5; max-width: 200px; text-align: center; width: 200px;" xmlns="http://www.w3.org/1999/xhtml"><span class="nodeLabel">5. Content, media, and authoring UX</span></div></foreignObject></g></g><g transform="translate(1945.5, 468)" id="flowchart-SEO-6" class="node default"><rect height="78" width="260" y="-39" x="-130" style="" class="basic label-container"/><g transform="translate(-100, -24)" style="" class="label"><rect/><foreignObject height="48" width="200"><div style="display: table; white-space: break-spaces; line-height: 1.5; max-width: 200px; text-align: center; width: 200px;" xmlns="http://www.w3.org/1999/xhtml"><span class="nodeLabel">6. SEO, structured data, and native polish</span></div></foreignObject></g></g><g transform="translate(2203, 657)" id="flowchart-HARDEN-7" class="node default"><rect height="102" width="260" y="-51" x="-130" style="" class="basic label-container"/><g transform="translate(-100, -36)" style="" class="label"><rect/><foreignObject height="72" width="200"><div style="display: table; white-space: break-spaces; line-height: 1.5; max-width: 200px; text-align: center; width: 200px;" xmlns="http://www.w3.org/1999/xhtml"><span class="nodeLabel">7. Bug fixes, migrations, dependencies, and hardening</span></div></foreignObject></g></g><g transform="translate(173, 657)" id="flowchart-DOCS-8" class="node default"><rect height="78" width="260" y="-39" x="-130" style="" class="basic label-container"/><g transform="translate(-100, -24)" style="" class="label"><rect/><foreignObject height="48" width="200"><div style="display: table; white-space: break-spaces; line-height: 1.5; max-width: 200px; text-align: center; width: 200px;" xmlns="http://www.w3.org/1999/xhtml"><span class="nodeLabel"><p>Current-tip docs and system guides</p></span></div></foreignObject></g></g><g transform="translate(483, 657)" id="flowchart-DIAGRAMS-9" class="node default"><rect height="102" width="260" y="-51" x="-130" style="" class="basic label-container"/><g transform="translate(-100, -36)" style="" class="label"><rect/><foreignObject height="72" width="200"><div style="display: table; white-space: break-spaces; line-height: 1.5; max-width: 200px; text-align: center; width: 200px;" xmlns="http://www.w3.org/1999/xhtml"><span class="nodeLabel"><p>Current-tip Mermaid sources and release capability map</p></span></div></foreignObject></g></g><g transform="translate(793, 657)" id="flowchart-REVIEW-10" class="node default"><rect height="102" width="260" y="-51" x="-130" style="" class="basic label-container"/><g transform="translate(-100, -36)" style="" class="label"><rect/><foreignObject height="72" width="200"><div style="display: table; white-space: break-spaces; line-height: 1.5; max-width: 200px; text-align: center; width: 200px;" xmlns="http://www.w3.org/1999/xhtml"><span class="nodeLabel"><p>Current-tip review screenshots from PR 1486 and PR 1490</p></span></div></foreignObject></g></g><g transform="translate(1103, 657)" id="flowchart-GAPS-11" class="node default"><rect height="126" width="260" y="-63" x="-130" style="" class="basic label-container"/><g transform="translate(-100, -48)" style="" class="label"><rect/><foreignObject height="96" width="200"><div style="display: table; white-space: break-spaces; line-height: 1.5; max-width: 200px; text-align: center; width: 200px;" xmlns="http://www.w3.org/1999/xhtml"><span class="nodeLabel"><p>Release-specific screenshots and export/deletion docs still to add</p></span></div></foreignObject></g></g></g></g></g></svg>